SplineFontDB: 3.0
FontName: SPSida-Oblique
FullName: SP Sida Oblique
FamilyName: SP Sida
Weight: Book
Copyright: Copyright (c) 2006 by Department of Intellectual Property (DIP), Ministry of Commerce and Software Industry Promotion Agency (Public Organization) (SIPA). All rights reserved.
Version: 2.1
ItalicAngle: -12
UnderlinePosition: -55
UnderlineWidth: 50
Ascent: 800
Descent: 200
LayerCount: 2
Layer: 0 0 "Back" 
Layer: 1 0 "Fore" 
NeedsXUIDChange: 1
XUID: [1021 375 425136265 3644846]
FSType: 0
OS2Version: 3
OS2_WeightWidthSlopeOnly: 0
OS2_UseTypoMetrics: 1
CreationTime: 1158666240
ModificationTime: 1211190243
PfmFamily: 17
TTFWeight: 400
TTFWidth: 5
LineGap: 60
VLineGap: 0
Panose: 2 0 5 6 0 0 0 2 0 4
OS2TypoAscent: 0
OS2TypoAOffset: 1
OS2TypoDescent: 0
OS2TypoDOffset: 1
OS2TypoLinegap: 0
OS2WinAscent: -21
OS2WinAOffset: 1
OS2WinDescent: -178
OS2WinDOffset: 1
HheadAscent: -21
HheadAOffset: 1
HheadDescent: 178
HheadDOffset: 1
OS2SubXSize: 700
OS2SubYSize: 650
OS2SubXOff: 0
OS2SubYOff: 140
OS2SupXSize: 700
OS2SupYSize: 650
OS2SupXOff: 0
OS2SupYOff: 477
OS2StrikeYSize: 50
OS2StrikeYPos: 250
OS2FamilyClass: 773
OS2Vendor: 'K2D '
Lookup: 4 0 0 "'frac' Diagonal Fractions in Latin lookup 0"  {"'frac' Diagonal Fractions in Latin lookup 0 subtable"  } ['frac' ('latn' <'dflt' > ) ]
Lookup: 6 0 0 "'liga' Standard Ligatures in Latin lookup 1"  {"'liga' Standard Ligatures in Latin lookup 1 subtable"  } ['liga' ('latn' <'dflt' > ) ]
Lookup: 6 0 0 "'liga' Standard Ligatures in Latin lookup 2"  {"'liga' Standard Ligatures in Latin lookup 2 subtable"  } ['liga' ('latn' <'dflt' > ) ]
Lookup: 6 0 0 "'liga' Standard Ligatures in Latin lookup 3"  {"'liga' Standard Ligatures in Latin lookup 3 subtable"  } ['liga' ('latn' <'dflt' > ) ]
Lookup: 6 0 0 "'liga' Standard Ligatures in Latin lookup 4"  {"'liga' Standard Ligatures in Latin lookup 4 subtable"  } ['liga' ('latn' <'dflt' > ) ]

StartChar: .notdef
Encoding: 65536 -1 0
Width: 753
VWidth: 1507
Flags: W
HStem: 0 53<157 616> 995 53<357 817>
LayerCount: 2
Fore
SplineSet
616 53 m 1
 817 995 l 1
 357 995 l 1
 157 53 l 1
 616 53 l 1
657 0 m 1
 95 0 l 1
 317 1048 l 1
 879 1048 l 1
 657 0 l 1
EndSplineSet
EndChar

StartChar: numbersign
Encoding: 35 35 4
Width: 622
VWidth: 1507
Flags: W
HStem: 222 48<103.393 228 295 402 470 597.284> 437 48<173.837 298 366 473 541 666.537>
LayerCount: 2
Fore
SplineSet
553 680 m 2
 565 714 588 729 621 725 c 1
 541 485 l 1
 678 485 l 1
 670 453 651 437 620 437 c 2
 525 437 l 1
 470 270 l 1
 609 270 l 1
 601 238 581 222 550 222 c 2
 454 222 l 1
 392 35 l 2
 381 0 359 -14 326 -9 c 1
 402 222 l 1
 279 222 l 1
 217 35 l 2
 206 0 184 -14 151 -9 c 1
 228 222 l 1
 93 222 l 1
 99 254 119 270 152 270 c 2
 244 270 l 1
 298 437 l 1
 163 437 l 1
 170 469 189 485 222 485 c 2
 315 485 l 1
 378 680 l 2
 390 714 413 729 446 725 c 1
 366 485 l 1
 490 485 l 1
 553 680 l 2
295 270 m 1
 419 270 l 1
 473 437 l 1
 350 437 l 1
 295 270 l 1
EndSplineSet
EndChar

StartChar: dollar
Encoding: 36 36 5
Width: 682
VWidth: 1507
Flags: W
HStem: -8 55<248.782 312 375 457.088> 669 55<376.786 457 520 572.193>
VStem: 99 62<126.702 226.225> 197 61<450.575 571.593> 610 63<171.604 277.945> 637 62<492.169 607.772>
LayerCount: 2
Fore
SplineSet
312 -8 m 1xf8
 194 2 102 72 99 184 c 0
 102 246 154 256 173 256 c 1
 171 251 170 246 169 241 c 2
 164 226 l 2
 162 216 161 206 161 196 c 0
 161 129 220 57 324 47 c 1
 387 345 l 1
 264 372 197 402 197 486 c 0
 197 629 341 713 469 724 c 1
 473 749 l 2
 481 783 502 800 535 800 c 1
 520 724 l 1
 675 711 699 600 699 542 c 0
 699 468 638 461 626 461 c 1
 628 466 629 470 630 472 c 1
 633 491 l 2
 636 505 637 518 637 531 c 0xf4
 637 567 623 655 508 669 c 1
 449 392 l 1
 565 367 673 350 673 251 c 0
 673 142 544 8 363 -8 c 1
 359 -33 l 2
 351 -67 330 -84 297 -84 c 1
 312 -8 l 1xf8
375 47 m 1
 508 59 610 161 610 232 c 0xf8
 610 300 504 321 437 336 c 1
 375 47 l 1
457 669 m 1
 361 660 258 593 258 501 c 0
 258 461 277 432 399 402 c 1
 457 669 l 1
EndSplineSet
EndChar

StartChar: percent
Encoding: 37 37 6
Width: 854
VWidth: 1507
Flags: W
HStem: -5 44<582.35 723.102> 309 44<222.129 363.49> 363 44<641.887 782.207> 677 43<283.551 423.636>
VStem: 153 50<373.277 418.738 417.5 419.977 419.977 443.211> 444 51<586.789 608.523 608.523 614.023 611.273 655.87> 511 50<60.0052 106.227 104.977 107.477 107.477 129.211> 800 50<272.789 296.023 296.023 300.523 298.273 342.478>
LayerCount: 2
Fore
SplineSet
368 720 m 0
 446 720 495 676 495 625 c 0
 495 618 495 611 493 603 c 2
 455 427 l 2
 445 362 363 309 280 309 c 256
 218 309 153 341 153 408 c 0
 153 414 154 421 155 427 c 2
 193 603 l 2
 202 660 274 720 368 720 c 0
444 614 m 0
 444 650 407 677 359 677 c 0
 299 677 250 640 243 603 c 2
 205 427 l 2
 204 422 203 417 203 413 c 0
 203 377 241 353 289 353 c 0
 345 353 396 386 405 427 c 2
 443 603 l 2
 444 607 444 611 444 614 c 0
727 407 m 0
 797 407 853 369 853 312 c 0
 853 305 852 297 850 289 c 2
 812 113 l 2
 801 48 720 -5 639 -5 c 256
 566 -5 511 36 511 97 c 0
 511 102 511 107 512 113 c 2
 550 289 l 2
 566 354 639 407 727 407 c 0
802 303 m 0
 802 338 764 363 717 363 c 0
 660 363 609 330 600 289 c 2
 562 113 l 2
 561 109 561 105 561 102 c 0
 561 77 585 39 648 39 c 0
 703 39 755 73 763 113 c 2
 800 289 l 2
 801 294 802 299 802 303 c 0
733 722 m 2
 748 743 765 754 783 754 c 0
 792 754 801 751 811 746 c 1
 273 -6 l 2
 257 -27 240 -38 222 -38 c 0
 213 -38 204 -35 194 -30 c 1
 733 722 l 2
EndSplineSet
EndChar

StartChar: ampersand
Encoding: 38 38 7
Width: 648
VWidth: 1507
Flags: W
HStem: -9 54<185.546 377.205> 672 53<361.104 498.486>
VStem: 70 62<92.4287 243.518> 234 62<477.344 603.942> 517 61<539.576 653.287>
LayerCount: 2
Fore
SplineSet
641 11 m 1
 630 2 614 -8 595 -8 c 0
 582 -8 571 -2 562 8 c 2
 506 77 l 1
 444 34 352 -9 249 -9 c 0
 126 -9 70 73 70 149 c 0
 70 251 140 348 268 405 c 1
 246 445 234 483 234 519 c 0
 234 624 328 725 454 725 c 0
 525 725 578 689 578 620 c 0
 578 572 560 472 353 384 c 1
 444 251 l 2
 474 210 498 178 519 155 c 1
 585 215 608 255 624 327 c 1
 652 327 665 315 665 290 c 0
 665 232 612 172 553 121 c 1
 596 62 l 2
 612 42 627 25 641 11 c 1
436 672 m 0
 346 672 296 597 296 526 c 0
 296 512 299 484 329 433 c 1
 330 425 l 1
 459 482 517 529 517 599 c 0
 517 635 500 672 436 672 c 0
132 159 m 0
 132 90 185 45 273 45 c 0
 354 45 422 76 475 116 c 1
 401 214 l 2
 376 248 328 313 294 365 c 1
 252 347 132 282 132 159 c 0
EndSplineSet
EndChar

StartChar: quotesingle
Encoding: 39 39 8
Width: 220
VWidth: 1507
Flags: W
HStem: 508 217
VStem: 191 67<527.611 607.928>
LayerCount: 2
Fore
SplineSet
214 653 m 2
 225 720 279 725 301 725 c 1
 258 565 l 2
 253 545 231 508 191 508 c 1
 214 653 l 2
EndSplineSet
EndChar

StartChar: parenleft
Encoding: 40 40 9
Width: 287
VWidth: 1507
Flags: W
VStem: 118 60<9.08276 267.07>
LayerCount: 2
Fore
SplineSet
252 -112 m 1
 237 -128 224 -129 218 -129 c 0
 207 -129 199 -124 193 -113 c 0
 137 -17 118 71 118 167 c 0
 118 306 175 499 300 649 c 0
 378 744 391 744 403 744 c 0
 419 744 426 734 430 727 c 1
 314 615 234 486 196 307 c 256
 184 251 178 199 178 151 c 0
 178 40 217 -53 252 -112 c 1
EndSplineSet
EndChar

StartChar: asterisk
Encoding: 42 42 11
Width: 434
VWidth: 1507
Flags: W
HStem: 389 356<304 363 304 304> 537 57<479.917 514 143 526 526 526>
LayerCount: 2
Fore
SplineSet
359 546 m 1x40
 415 445 414 445 430 421 c 1
 363 389 l 1
 324 531 l 1
 283 474 231 403 220 389 c 1x80
 178 421 l 1
 301 550 l 1
 143 537 l 1
 155 594 l 1x40
 309 583 l 1
 240 711 l 1
 304 745 l 1
 345 606 l 1
 443 745 l 1x80
 491 713 l 1
 368 582 l 1
 526 594 l 1
 514 537 l 1
 359 546 l 1x40
EndSplineSet
EndChar

StartChar: plus
Encoding: 43 43 12
Width: 602
VWidth: 1507
Flags: W
HStem: 273 51<115.262 330 398 614.092>
LayerCount: 2
Fore
SplineSet
330 273 m 1
 102 273 l 1
 111 307 131 324 164 324 c 2
 341 324 l 1
 378 497 l 2
 385 536 409 555 448 555 c 1
 398 324 l 1
 626 324 l 1
 619 290 599 273 564 273 c 2
 387 273 l 1
 351 99 l 2
 342 61 319 42 280 42 c 1
 330 273 l 1
EndSplineSet
EndChar

StartChar: comma
Encoding: 44 44 13
Width: 192
VWidth: 1507
Flags: W
HStem: -149 253<31 119>
VStem: 50 116<37.8766 83.4041>
LayerCount: 2
Fore
SplineSet
50 36 m 0
 50 67 79 104 119 104 c 256
 146 104 166 87 166 61 c 0
 166 43 145 -64 78 -120 c 0
 45 -148 40 -149 31 -149 c 0
 26 -149 22 -148 20 -145 c 1
 97 -88 110 -29 115 -6 c 1
 109 -8 102 -9 95 -9 c 0
 67 -9 50 9 50 36 c 0
EndSplineSet
EndChar

StartChar: hyphen
Encoding: 45 45 14
Width: 354
VWidth: 1507
Flags: W
HStem: 271 55<115.729 363.623 102 377 164 164>
LayerCount: 2
Fore
SplineSet
377 326 m 1
 369 290 352 271 315 271 c 2
 102 271 l 1
 109 308 130 326 164 326 c 2
 377 326 l 1
EndSplineSet
EndChar

StartChar: period
Encoding: 46 46 15
Width: 197
VWidth: 1507
Flags: W
HStem: -9 113<70.663 145.736>
VStem: 50 116<11.75 83.4041>
LayerCount: 2
Fore
SplineSet
50 36 m 0
 50 67 79 104 119 104 c 256
 146 104 166 87 166 61 c 0
 166 23 134 -9 95 -9 c 256
 67 -9 50 9 50 36 c 0
EndSplineSet
EndChar

StartChar: slash
Encoding: 47 47 16
Width: 420
VWidth: 1507
Flags: W
LayerCount: 2
Fore
SplineSet
515 722 m 2
 531 743 547 754 566 754 c 0
 575 754 584 751 594 746 c 1
 56 -6 l 2
 40 -28 24 -39 6 -39 c 0
 -2 -39 -12 -36 -21 -30 c 1
 515 722 l 2
EndSplineSet
EndChar

StartChar: zero
Encoding: 48 48 17
Width: 693
VWidth: 1507
Flags: W
HStem: -9 54<256.482 464.152> 671 54<378.482 587.968>
VStem: 121 61<109.41 181.356 180.713 182 182 194 194 210.4> 661 62<505.6 522 522 533.5 533.5 535.287 534.393 608.279>
LayerCount: 2
Fore
SplineSet
500 725 m 256
 624 725 723 657 723 556 c 0
 723 545 721 533 719 522 c 2
 650 194 l 2
 628 89 495 -9 344 -9 c 256
 220 -9 121 59 121 160 c 0
 121 171 123 183 125 194 c 2
 194 522 l 2
 216 627 349 725 500 725 c 256
661 545 m 0
 661 620 585 671 488 671 c 256
 366 671 269 597 255 522 c 2
 185 194 l 2
 183 186 182 178 182 170 c 0
 182 101 254 45 356 45 c 256
 455 45 568 100 589 194 c 2
 659 522 l 2
 660 530 661 537 661 545 c 0
EndSplineSet
EndChar

StartChar: one
Encoding: 49 49 18
Width: 693
VWidth: 1507
Flags: MW
HStem: -9 21G<348.262 364> 662 54<377.485 487>
LayerCount: 2
Fore
SplineSet
529 716 m 2
 546 716 553 703 553 694 c 0
 553 692 553 689 552 687 c 1
 418 51 l 2
 409 11 384 -9 344 -9 c 1
 487 662 l 1
 421 662 l 2
 390 662 375 674 375 699 c 0
 375 704 376 710 377 716 c 1
 529 716 l 2
EndSplineSet
EndChar

StartChar: two
Encoding: 50 50 19
Width: 693
VWidth: 1507
Flags: W
HStem: 0 54<160 584.433> 671 54<386.953 584.978>
VStem: 199 50<485.595 553.406> 659 62<484.989 603.172>
LayerCount: 2
Fore
SplineSet
502 725 m 0
 617 725 721 654 721 549 c 0
 721 455 657 379 508 314 c 2
 407 270 l 2
 235 198 180 108 160 54 c 1
 561 54 l 2
 583 54 611 46 611 15 c 0
 611 11 610 6 609 0 c 1
 115 0 l 2
 103 0 91 6 91 18 c 0
 91 24 108 197 393 320 c 2
 465 349 l 2
 546 381 592 416 617 440 c 0
 659 479 659 520 659 534 c 0
 659 616 585 671 490 671 c 256
 374 671 249 589 249 478 c 1
 212 478 199 506 199 521 c 0
 199 578 323 725 502 725 c 0
EndSplineSet
EndChar

StartChar: three
Encoding: 51 51 20
Width: 693
VWidth: 1507
Flags: W
HStem: -9 54<259.859 461.764> 362 56<401.025 518.219> 671 54<394.503 573.024>
VStem: 124 60<112.67 208.411> 244 52<519.423 564.132> 594 62<159.137 296.802> 625 61<502.201 622.672>
LayerCount: 2
Fore
SplineSet
244 551 m 0xfa
 244 610 351 725 500 725 c 256
 604 725 686 665 686 575 c 0xfa
 686 480 600 418 550 392 c 1
 601 369 656 318 656 242 c 0
 656 110 509 -9 344 -9 c 256
 205 -9 124 77 124 158 c 0
 124 204 145 234 192 234 c 2
 196 234 l 1
 196 234 184 198 184 175 c 0
 184 115 242 45 356 45 c 256
 492 45 594 141 594 231 c 0xfc
 594 310 516 362 424 362 c 0
 410 362 398 370 398 383 c 0
 398 400 413 418 435 418 c 0
 548 418 625 499 625 565 c 0
 625 616 577 671 488 671 c 0
 395 671 316 613 300 544 c 1
 298 540 296 531 296 523 c 0
 296 520 296 517 297 514 c 1
 289 514 l 2
 267 514 244 528 244 551 c 0xfa
EndSplineSet
EndChar

StartChar: four
Encoding: 52 52 21
Width: 693
VWidth: 1507
Flags: W
HStem: -9 21G<468.362 484.5> 179 55<187 505 576 683.146> 706 20G<646 654>
LayerCount: 2
Fore
SplineSet
650 726 m 0
 658 726 675 721 675 702 c 0
 675 696 l 1
 576 234 l 1
 698 234 l 1
 690 197 668 179 633 179 c 2
 534 179 l 1
 538 178 l 1
 564 175 l 1
 538 51 l 2
 529 11 505 -9 464 -9 c 1
 505 179 l 1
 119 179 l 2
 99 179 93 195 93 201 c 0
 93 209 98 217 106 225 c 2
 627 716 l 2
 635 723 642 726 650 726 c 0
515 234 m 1
 597 612 l 1
 627 644 l 1
 627 648 l 1
 187 234 l 1
 515 234 l 1
EndSplineSet
EndChar

StartChar: five
Encoding: 53 53 22
Width: 693
VWidth: 1507
Flags: W
HStem: -9 54<270.387 447.164> 461 54<350.807 528.539> 662 54<421 696.463>
VStem: 134 58<122.907 268.54> 606 62<205.384 383.576>
LayerCount: 2
Fore
SplineSet
248 374 m 0
 227 374 221 392 221 399 c 0
 221 403 223 409 226 415 c 2
 378 693 l 2
 385 708 396 716 411 716 c 2
 711 716 l 1
 703 680 682 662 647 662 c 2
 421 662 l 1
 404 635 390 609 378 586 c 2
 348 529 l 2
 338 511 332 499 329 493 c 1
 308 482 301 477 295 472 c 1
 300 470 l 1
 354 502 409 515 455 515 c 0
 596 515 668 412 668 309 c 0
 668 151 515 -9 344 -9 c 256
 212 -9 134 80 134 192 c 0
 134 278 171 283 206 283 c 1
 206 283 192 247 192 208 c 0
 192 110 264 45 356 45 c 256
 485 45 606 169 606 298 c 0
 606 388 545 461 445 461 c 0
 375 461 315 428 271 384 c 0
 264 378 257 374 248 374 c 0
EndSplineSet
EndChar

StartChar: six
Encoding: 54 54 23
Width: 693
VWidth: 1507
Flags: W
HStem: -9 54<272.084 447.164> 461 54<383.026 528.539> 706 20G<595.5 608>
VStem: 131 61<123.994 299.499> 606 62<205.384 383.576>
LayerCount: 2
Fore
SplineSet
344 -9 m 256
 208 -9 131 91 131 197 c 0
 131 240 142 341 258 442 c 2
 559 705 l 2
 575 719 589 726 602 726 c 0
 614 726 626 720 636 708 c 1
 421 519 l 1
 406 516 392 512 377 508 c 1
 381 505 l 1
 403 510 429 515 455 515 c 0
 596 515 668 412 668 309 c 0
 668 151 515 -9 344 -9 c 256
356 45 m 256
 485 45 606 169 606 298 c 0
 606 388 545 461 445 461 c 256
 318 461 192 339 192 208 c 0
 192 110 264 45 356 45 c 256
EndSplineSet
EndChar

StartChar: seven
Encoding: 55 55 24
Width: 693
VWidth: 1507
Flags: W
HStem: -10 21G<231.5 244.5> 662 54<246.472 686>
LayerCount: 2
Fore
SplineSet
739 716 m 2
 758 716 763 699 763 691 c 0
 763 685 761 679 757 672 c 2
 283 21 l 2
 269 1 253 -10 236 -10 c 0
 227 -10 217 -6 206 0 c 1
 686 662 l 1
 289 662 l 2
 259 662 244 674 244 699 c 0
 244 704 245 710 246 716 c 1
 739 716 l 2
EndSplineSet
EndChar

StartChar: eight
Encoding: 56 56 25
Width: 693
VWidth: 1507
Flags: W
HStem: -9 54<259.648 461.764> 362 56<352.268 518.219> 671 54<394.03 573.024>
VStem: 123 61<112.113 247.011> 236 62<465.702 586.365> 594 62<159.137 296.802> 625 61<502.201 622.672>
LayerCount: 2
Fore
SplineSet
236 511 m 0xfc
 236 629 371 725 500 725 c 256
 604 725 686 665 686 575 c 0xfa
 686 480 600 418 550 392 c 1
 601 369 656 318 656 242 c 0
 656 110 509 -9 344 -9 c 256
 217 -9 123 61 123 167 c 0
 123 257 196 349 309 392 c 1
 275 413 236 451 236 511 c 0xfc
424 362 m 256
 305 362 184 278 184 175 c 0
 184 115 242 45 356 45 c 256
 492 45 594 141 594 231 c 0xfc
 594 310 516 362 424 362 c 256
488 671 m 0
 378 671 298 592 298 524 c 0
 298 473 344 418 434 418 c 0
 548 418 625 499 625 565 c 0xfa
 625 616 577 671 488 671 c 0
EndSplineSet
EndChar

StartChar: nine
Encoding: 57 57 26
Width: 693
VWidth: 1507
Flags: W
HStem: -10 21G<236 248.5> 200 55<316.306 460.755> 671 54<394.971 572.089>
VStem: 176 62<333.883 512.629> 652 60<413.36 589.131>
LayerCount: 2
Fore
SplineSet
500 725 m 256
 623 725 712 642 712 517 c 0
 712 420 661 338 586 274 c 2
 285 11 l 2
 269 -3 255 -10 242 -10 c 0
 230 -10 218 -4 208 8 c 1
 424 197 l 1
 438 200 452 204 467 208 c 1
 463 211 l 1
 441 205 415 200 388 200 c 0
 254 200 176 300 176 407 c 0
 176 574 336 725 500 725 c 256
488 671 m 256
 361 671 238 549 238 417 c 0
 238 329 299 255 399 255 c 256
 528 255 652 378 652 505 c 0
 652 588 596 671 488 671 c 256
EndSplineSet
EndChar

StartChar: less
Encoding: 60 60 29
Width: 602
VWidth: 1507
Flags: W
LayerCount: 2
Fore
SplineSet
111 292 m 0
 111 297 113 310 127 318 c 2
 678 589 l 1
 679 584 680 578 680 574 c 0
 680 551 668 534 645 522 c 2
 193 298 l 1
 550 75 l 2
 562 67 568 57 568 44 c 0
 568 34 563 22 555 8 c 1
 119 279 l 2
 114 282 111 287 111 292 c 0
EndSplineSet
EndChar

StartChar: equal
Encoding: 61 61 30
Width: 602
VWidth: 1507
Flags: W
HStem: 182 52<96.6154 593.766> 363 52<134.234 631.385>
LayerCount: 2
Fore
SplineSet
122 363 m 1
 128 398 149 415 184 415 c 2
 645 415 l 1
 637 380 616 363 583 363 c 2
 122 363 l 1
83 182 m 1
 91 217 112 234 145 234 c 2
 606 234 l 1
 600 199 579 182 544 182 c 2
 83 182 l 1
EndSplineSet
EndChar

StartChar: question
Encoding: 63 63 32
Width: 503
VWidth: 1507
Flags: W
HStem: -9 113<219.458 292.794> 674 51<302.17 466.825>
VStem: 151 48<503.867 571.596> 198 116<12.5 83.1328> 515 57<479.896 627.56>
LayerCount: 2
Fore
SplineSet
399 725 m 0xe8
 505 725 572 663 572 570 c 0
 572 527 557 467 518 426 c 0
 426 330 341 312 323 234 c 2
 317 202 l 2
 308 164 284 145 247 145 c 1
 265 234 l 2
 300 387 515 393 515 561 c 0
 515 624 470 674 389 674 c 0
 274 674 199 574 199 497 c 1
 170 497 151 517 151 538 c 0
 151 582 233 725 399 725 c 0xe8
198 34 m 0xd8
 198 65 226 104 267 104 c 256
 294 104 314 87 314 61 c 0
 314 25 282 -9 243 -9 c 256
 216 -9 198 8 198 34 c 0xd8
EndSplineSet
EndChar

StartChar: at
Encoding: 64 64 33
Width: 847
VWidth: 1507
Flags: W
HStem: -9 45<339.249 562.748> 137 48<350.265 454.339 573.516 655.571> 526 50<491.769 606.642> 681 44<467.118 691.859>
VStem: 143 51<182.845 400.222> 267 65<201.888 338.797> 816 51<379.224 566.446>
LayerCount: 2
Fore
SplineSet
332 260 m 0
 332 230 346 185 401 185 c 0
 505 185 623 378 623 454 c 0
 623 507 586 526 562 526 c 0
 442 526 332 348 332 260 c 0
577 576 m 0
 648 576 662 523 666 493 c 1
 705 556 l 1
 757 556 l 1
 584 236 l 1
 583 232 573 215 573 201 c 0
 573 188 581 182 597 182 c 256
 677 182 816 337 816 481 c 0
 816 573 742 681 585 681 c 0
 364 681 194 468 194 290 c 0
 194 157 285 36 449 36 c 0
 565 36 673 98 740 173 c 0
 751 185 760 190 769 190 c 0
 777 190 785 185 791 173 c 1
 712 73 580 -9 439 -9 c 0
 242 -9 143 138 143 283 c 0
 143 515 368 725 592 725 c 0
 755 725 867 626 867 484 c 0
 867 307 699 137 577 137 c 0
 545 137 522 157 522 192 c 0
 522 196 522 201 523 205 c 1
 522 205 l 1
 494 180 435 137 377 137 c 0
 289 137 267 201 267 249 c 0
 267 341 385 576 577 576 c 0
EndSplineSet
EndChar

StartChar: A
Encoding: 65 65 34
Width: 633
VWidth: 1507
Flags: W
HStem: -9 21G<57.5 78.0988 557.543 574> 234 54<246 509> 705 20G<462.5 477>
LayerCount: 2
Fore
SplineSet
66 -9 m 1
 49 -2 39 14 39 35 c 0
 39 46 42 57 48 69 c 2
 437 707 l 2
 444 719 455 725 470 725 c 0
 484 725 492 719 494 707 c 2
 612 69 l 2
 613 66 613 62 613 59 c 0
 613 27 587 0 561 -9 c 1
 519 234 l 1
 213 234 l 1
 66 -9 l 1
246 288 m 1
 509 288 l 1
 445 657 l 1
 443 653 l 1
 445 623 l 1
 246 288 l 1
EndSplineSet
EndChar

StartChar: B
Encoding: 66 66 35
Width: 700
VWidth: 1507
Flags: W
HStem: 0 54<161 557.359> 332 54<232 560.15> 662 54<291 612.081>
VStem: 641 60<143.252 298.999> 649 60<479.804 624.75>
LayerCount: 2
Fore
SplineSet
709 564 m 0xe8
 709 470 639 399 592 377 c 1
 672 358 701 296 701 237 c 0xf0
 701 139 618 -0 475 0 c 2
 121 0 l 2
 106 0 95 12 95 24 c 0
 95 26 95 28 96 30 c 1
 235 686 l 2
 240 706 252 716 271 716 c 2
 565 716 l 2
 656 716 709 643 709 564 c 0xe8
649 556 m 0xe8
 649 609 615 662 555 662 c 2
 291 662 l 1
 232 386 l 1
 496 386 l 2
 568 386 649 473 649 556 c 0xe8
641 234 m 0xf0
 641 293 602 332 545 332 c 2
 220 332 l 1
 161 54 l 1
 485 54 l 2
 582 54 641 148 641 234 c 0xf0
EndSplineSet
EndChar

StartChar: C
Encoding: 67 67 36
Width: 699
VWidth: 1507
Flags: W
HStem: -9 54<268.215 438.466> 671 54<392.094 599.723>
VStem: 117 62<125.093 221.319> 680 69<479.497 488.625 488.543 592.254>
LayerCount: 2
Fore
SplineSet
687 522 m 0
 687 612 602 671 499 671 c 256
 393 671 261 603 240 491 c 2
 182 226 l 2
 180 216 179 207 179 198 c 0
 179 112 257 45 366 45 c 256
 505 45 611 142 627 226 c 1
 629 231 630 236 631 242 c 2
 633 256 l 1
 654 256 682 244 682 216 c 0
 682 174 617 48 450 4 c 0
 417 -5 385 -9 354 -9 c 0
 230 -9 117 67 117 181 c 0
 117 195 119 210 122 226 c 2
 179 491 l 2
 208 634 376 725 511 725 c 0
 646 725 747 652 749 535 c 0
 749 468 692 461 677 461 c 1
 679 466 680 470 680 472 c 1
 684 491 l 2
 686 502 687 512 687 522 c 0
EndSplineSet
EndChar

StartChar: D
Encoding: 68 68 37
Width: 729
VWidth: 1507
Flags: W
HStem: 0 54<161 488.793> 662 54<291 609.39>
VStem: 701 61<465.689 482 482 496.023 496.023 497.368 496.695 582.753>
LayerCount: 2
Fore
SplineSet
121 0 m 2
 101 0 95 14 95 23 c 0
 95 25 95 28 96 30 c 1
 235 686 l 2
 240 706 252 716 271 716 c 2
 523 716 l 2
 643 716 762 644 762 527 c 0
 762 513 760 498 757 482 c 2
 704 235 l 2
 671 89 506 0 372 0 c 2
 121 0 l 2
701 510 m 0
 701 601 615 662 512 662 c 2
 291 662 l 1
 161 54 l 1
 383 54 l 2
 497 54 625 133 645 235 c 2
 698 482 l 2
 700 492 701 501 701 510 c 0
EndSplineSet
EndChar

StartChar: E
Encoding: 69 69 38
Width: 699
VWidth: 1507
Flags: W
HStem: -9 54<268.215 438.466> 332 54<217 500.094> 671 54<392.094 599.723>
VStem: 117 62<125.093 221.319> 680 69<479.497 488.625 488.543 592.254>
LayerCount: 2
Fore
SplineSet
687 522 m 0
 687 612 602 671 499 671 c 256
 393 671 261 603 240 491 c 2
 217 386 l 1
 515 386 l 1
 507 350 485 332 449 332 c 2
 205 332 l 1
 182 226 l 2
 180 216 179 207 179 198 c 0
 179 112 257 45 366 45 c 256
 505 45 611 142 627 226 c 1
 629 231 630 236 631 242 c 2
 633 256 l 1
 654 256 682 244 682 216 c 0
 682 174 617 48 450 4 c 0
 417 -5 385 -9 354 -9 c 0
 230 -9 117 67 117 181 c 0
 117 195 119 210 122 226 c 2
 179 491 l 2
 208 634 376 725 511 725 c 0
 646 725 747 652 749 535 c 0
 749 468 692 461 677 461 c 1
 679 466 680 470 680 472 c 1
 684 491 l 2
 686 502 687 512 687 522 c 0
EndSplineSet
EndChar

StartChar: F
Encoding: 70 70 39
Width: 699
VWidth: 1507
Flags: W
HStem: -9 21G<76.28 92.5> 332 54<217 500.094> 671 54<392.094 600.091>
VStem: 680 69<480.786 488.625 489.932 593.138>
LayerCount: 2
Fore
SplineSet
687 522 m 0
 687 612 602 671 499 671 c 256
 393 671 261 603 240 491 c 2
 217 386 l 1
 515 386 l 1
 507 350 485 332 449 332 c 2
 205 332 l 1
 146 51 l 2
 137 11 113 -9 72 -9 c 1
 179 491 l 2
 208 634 376 725 511 725 c 0
 637 725 741 657 749 535 c 0
 747 471 697 461 677 461 c 1
 679 466 680 470 680 472 c 1
 684 491 l 2
 686 502 687 512 687 522 c 0
EndSplineSet
EndChar

StartChar: G
Encoding: 71 71 40
Width: 714
VWidth: 1507
Flags: W
HStem: -9 54<268.215 472.25> 332 54<442.203 648> 671 54<392.094 599.723>
VStem: 117 62<125.093 211.305 210.632 211.977 211.977 226 226 241.991> 680 69<479.497 488.625 488.543 592.254>
LayerCount: 2
Fore
SplineSet
690 386 m 2
 705 386 715 374 715 363 c 0
 715 353 712 362 686 226 c 0
 654 77 485 -9 354 -9 c 256
 230 -9 117 67 117 181 c 0
 117 195 119 210 122 226 c 2
 179 491 l 2
 208 634 376 725 511 725 c 0
 646 725 747 652 749 535 c 0
 749 468 692 461 677 461 c 1
 679 466 680 470 680 472 c 1
 684 491 l 2
 686 502 687 512 687 522 c 0
 687 612 602 671 499 671 c 256
 393 671 261 603 240 491 c 2
 182 226 l 2
 180 216 179 207 179 198 c 0
 179 112 257 45 366 45 c 256
 486 45 603 124 626 226 c 2
 648 332 l 1
 428 332 l 1
 435 368 457 386 494 386 c 2
 690 386 l 2
EndSplineSet
EndChar

StartChar: H
Encoding: 72 72 41
Width: 744
VWidth: 1507
Flags: W
HStem: -9 21G<91.273 107.5 595.223 611> 332 54<232 663> 705 20G<284 299.752 788 803.757>
LayerCount: 2
Fore
SplineSet
665 51 m 2
 656 11 631 -9 591 -9 c 1
 663 332 l 1
 220 332 l 1
 161 51 l 2
 152 11 128 -9 87 -9 c 1
 231 665 l 2
 240 705 264 725 304 725 c 1
 232 386 l 1
 675 386 l 1
 734 665 l 2
 743 705 768 725 808 725 c 1
 665 51 l 2
EndSplineSet
EndChar

StartChar: I
Encoding: 73 73 42
Width: 241
VWidth: 1507
Flags: W
HStem: -9 734
LayerCount: 2
Fore
SplineSet
161 51 m 2
 152 11 128 -9 87 -9 c 1
 231 665 l 2
 240 705 264 725 304 725 c 1
 161 51 l 2
EndSplineSet
EndChar

StartChar: J
Encoding: 74 74 43
Width: 640
VWidth: 1507
Flags: W
HStem: -9 54<237.242 415.497> 662 54<460.472 645>
VStem: 102 62<117.282 226.414>
LayerCount: 2
Fore
SplineSet
178 256 m 1
 164 222 164 206 164 193 c 0
 164 104 234 45 323 45 c 0
 432 45 531 131 552 226 c 2
 594 425 l 2
 647 662 641 649 645 662 c 1
 503 662 l 2
 473 662 458 674 458 699 c 0
 458 704 459 710 460 716 c 1
 687 716 l 2
 700 716 711 707 711 693 c 0
 711 691 711 689 710 686 c 2
 612 226 l 2
 581 89 443 -9 311 -9 c 0
 192 -9 102 68 102 184 c 0
 105 245 155 256 178 256 c 1
EndSplineSet
EndChar

StartChar: K
Encoding: 75 75 44
Width: 684
VWidth: 1507
Flags: W
HStem: -9 21G<91.273 107.5 535.286 551> 368 54<362.908 503.782> 705 20G<284 299.77 679.83 708.5>
VStem: 576 62<170.667 187 187 199.523 199.523 203.5 201.511 298.456>
LayerCount: 2
Fore
SplineSet
576 220 m 0
 576 307 510 368 419 368 c 256
 319 368 210 288 190 187 c 2
 161 51 l 2
 152 11 128 -9 87 -9 c 1
 231 665 l 2
 240 705 264 725 304 725 c 1
 223 342 l 1
 705 725 l 1
 712 715 716 705 716 695 c 0
 716 679 706 664 687 648 c 2
 411 430 l 1
 400 426 376 419 356 407 c 1
 360 405 l 1
 379 414 406 422 431 422 c 0
 553 422 638 337 638 233 c 0
 638 218 637 203 633 187 c 2
 604 51 l 2
 595 11 571 -9 531 -9 c 1
 573 187 l 2
 575 198 576 209 576 220 c 0
EndSplineSet
EndChar

StartChar: L
Encoding: 76 76 45
Width: 624
VWidth: 1507
Flags: W
HStem: 0 54<161 593.389> 705 20G<284 299.738>
LayerCount: 2
Fore
SplineSet
121 0 m 2
 101 0 95 14 95 23 c 0
 95 25 95 28 96 30 c 1
 231 665 l 2
 240 705 264 725 304 725 c 1
 161 54 l 1
 550 54 l 2
 580 54 596 42 596 17 c 0
 596 12 595 6 594 0 c 1
 121 0 l 2
EndSplineSet
EndChar

StartChar: M
Encoding: 77 77 46
Width: 856
VWidth: 1507
Flags: W
HStem: -9 21G<91.273 107.5 419.5 432 706.298 722.5> 705 20G<284 308.462 846.059 875.5>
LayerCount: 2
Fore
SplineSet
231 665 m 2
 240 705 264 725 304 725 c 1
 445 93 l 1
 430 66 l 1
 430 62 l 1
 859 725 l 1
 892 725 908 711 908 684 c 0
 908 678 908 672 906 665 c 2
 776 51 l 2
 767 11 743 -9 702 -9 c 1
 826 568 l 1
 853 620 l 1
 852 624 l 1
 457 11 l 2
 450 -2 439 -9 425 -9 c 0
 414 -9 406 -2 402 11 c 2
 267 624 l 1
 265 620 l 1
 271 568 l 1
 161 51 l 2
 152 11 128 -9 87 -9 c 1
 231 665 l 2
EndSplineSet
EndChar

StartChar: N
Encoding: 78 78 47
Width: 744
VWidth: 1507
Flags: W
HStem: -9 21G<91.273 107.5 569.5 611> 705 20G<284 313.681 743.73 764>
LayerCount: 2
Fore
SplineSet
231 665 m 2
 240 705 264 725 304 725 c 1
 623 66 l 1
 624 71 l 1
 615 102 l 1
 748 725 l 1
 780 725 797 712 797 686 c 0
 797 680 796 673 794 665 c 2
 665 51 l 2
 656 11 631 -9 591 -9 c 1
 548 72 353 485 273 650 c 1
 270 645 l 1
 280 613 l 1
 161 51 l 2
 152 11 128 -9 87 -9 c 1
 231 665 l 2
EndSplineSet
EndChar

StartChar: O
Encoding: 79 79 48
Width: 854
VWidth: 1507
Flags: W
HStem: -9 54<329.748 553.307> 671 54<455.942 673.708>
VStem: 127 61<182.877 399.754> 817 62<312.966 526.575>
LayerCount: 2
Fore
SplineSet
127 277 m 0
 127 503 339 725 580 725 c 256
 750 725 879 610 879 436 c 0
 879 208 661 -9 424 -9 c 256
 231 -9 127 131 127 277 c 0
568 671 m 256
 375 671 188 487 188 288 c 0
 188 153 283 45 436 45 c 256
 632 45 817 225 817 425 c 0
 817 560 720 671 568 671 c 256
EndSplineSet
EndChar

StartChar: P
Encoding: 80 80 49
Width: 714
VWidth: 1507
Flags: W
HStem: -9 21G<91.259 107.5> 332 54<232 620.03> 662 54<291 671.081>
VStem: 708 60<480.075 623.499>
LayerCount: 2
Fore
SplineSet
768 564 m 0
 768 449 656 332 543 332 c 2
 220 332 l 1
 161 51 l 2
 152 11 128 -9 87 -9 c 1
 235 686 l 2
 240 706 252 716 271 716 c 2
 624 716 l 2
 715 716 768 642 768 564 c 0
708 554 m 0
 708 594 683 662 613 662 c 2
 291 662 l 1
 232 386 l 1
 555 386 l 2
 629 386 708 477 708 554 c 0
EndSplineSet
EndChar

StartChar: Q
Encoding: 81 81 50
Width: 854
VWidth: 1507
Flags: W
HStem: -10 48<347.253 530.938 734.406 792.202> 244 54<271.115 433.015> 671 54<456.716 673.708>
VStem: 127 61<276 396.788> 817 62<311.162 526.575>
LayerCount: 2
Fore
SplineSet
696 89 m 1
 750 40 781 38 802 38 c 1
 795 6 779 -10 754 -10 c 0
 706 -10 660 37 644 53 c 1
 587 20 512 -9 424 -9 c 0
 231 -9 127 131 127 277 c 0
 127 503 339 725 580 725 c 256
 750 725 879 610 879 436 c 0
 879 297 802 172 696 89 c 1
568 671 m 256
 379 671 188 493 188 283 c 2
 188 276 l 1
 235 291 282 298 329 298 c 0
 537 298 630 149 660 127 c 1
 747 195 817 306 817 425 c 0
 817 560 720 671 568 671 c 256
197 220 m 1
 219 136 293 45 436 45 c 0
 494 45 551 61 607 92 c 1
 569 144 467 244 317 244 c 0
 271 244 233 236 197 220 c 1
EndSplineSet
EndChar

StartChar: R
Encoding: 82 82 51
Width: 731
VWidth: 1507
Flags: W
HStem: -9 21G<91.259 107.5 596.335 612.5> 332 54<232 606.774> 662 54<291 671.081>
VStem: 636 60<177.852 194 194 207.454 207.454 207.66 207.557 283.656> 708 60<480.185 623.499>
LayerCount: 2
Fore
SplineSet
708 554 m 0
 708 594 683 662 613 662 c 2
 291 662 l 1
 232 386 l 1
 555 386 l 2
 629 386 708 477 708 554 c 0
641 234 m 0
 641 293 601 332 544 332 c 2
 220 332 l 1
 161 51 l 2
 152 11 128 -9 87 -9 c 1
 235 686 l 2
 240 706 252 716 271 716 c 2
 624 716 l 2
 715 716 768 642 768 564 c 0
 768 455 674 374 633 356 c 1
 695 324 700 259 700 234 c 0
 700 221 699 208 696 194 c 2
 666 51 l 2
 657 11 633 -9 592 -9 c 1
 636 194 l 2
 639 208 641 221 641 234 c 0
EndSplineSet
EndChar

StartChar: S
Encoding: 83 83 52
Width: 684
VWidth: 1507
Flags: W
HStem: -9 54<251.777 456.581> 671 54<379.612 571.044>
VStem: 99 62<126.024 226.344> 197 61<459.194 569.866> 610 63<169.814 278.726> 638 61<508.256 607.397>
LayerCount: 2
Fore
SplineSet
338 -9 m 0xf8
 194 -9 99 79 99 184 c 0
 102 246 154 256 173 256 c 1
 171 251 169 246 168 242 c 2
 164 226 l 2
 162 216 161 207 161 198 c 0
 161 113 238 45 350 45 c 0
 483 45 610 148 610 232 c 0xf8
 610 343 337 328 242 397 c 0
 199 428 197 469 197 487 c 0
 197 618 332 725 494 725 c 0
 663 725 699 618 699 546 c 0
 699 545 702 498 672 478 c 0
 656 466 641 461 626 461 c 1
 628 466 629 470 630 472 c 1
 633 491 l 2
 636 505 638 519 638 532 c 0xf4
 638 589 604 671 482 671 c 256
 369 671 258 597 258 499 c 0
 258 454 289 426 430 396 c 2
 532 374 l 2
 645 348 673 300 673 251 c 0
 673 124 509 -9 338 -9 c 0xf8
EndSplineSet
EndChar

StartChar: T
Encoding: 84 84 53
Width: 562
VWidth: 1507
Flags: W
HStem: -9 21G<253.262 269> 662 54<154.15 392 452 698.146>
LayerCount: 2
Fore
SplineSet
713 716 m 1
 705 680 683 662 648 662 c 2
 452 662 l 1
 323 51 l 2
 314 11 289 -9 249 -9 c 1
 392 662 l 1
 140 662 l 1
 147 698 169 716 205 716 c 2
 713 716 l 1
EndSplineSet
EndChar

StartChar: U
Encoding: 85 85 54
Width: 744
VWidth: 1507
Flags: W
HStem: -9 54<283.421 488.643> 705 20G<284 299.711 788 803.711>
VStem: 132 62<125.093 211.305 210.632 211.977 211.977 226 226 242.322>
LayerCount: 2
Fore
SplineSet
369 -9 m 256
 246 -9 132 67 132 181 c 0
 132 195 134 210 137 226 c 2
 231 665 l 2
 240 705 264 725 304 725 c 1
 197 226 l 2
 195 216 194 207 194 198 c 0
 194 112 272 45 381 45 c 256
 501 45 618 124 641 226 c 2
 734 665 l 2
 743 705 768 725 808 725 c 1
 701 226 l 2
 670 80 506 -9 369 -9 c 256
EndSplineSet
EndChar

StartChar: V
Encoding: 86 86 55
Width: 651
VWidth: 1507
Flags: W
HStem: -9 21G<315.5 329.5> 708 20G<188 202.5 760.5 770>
VStem: 167 71<672.82 718.503>
LayerCount: 2
Fore
SplineSet
342 93 m 1
 326 63 l 1
 327 59 l 1
 702 687 l 2
 724 722 755 728 766 728 c 0
 774 728 781 726 788 722 c 1
 356 9 l 2
 347 -3 336 -9 323 -9 c 0
 308 -9 300 -3 298 9 c 2
 167 722 l 1
 176 726 184 728 192 728 c 0
 213 728 235 714 238 687 c 2
 342 93 l 1
EndSplineSet
EndChar

StartChar: W
Encoding: 87 87 56
Width: 961
VWidth: 1507
Flags: W
HStem: -9 21G<288 308.659 651.839 669> 707 20G<184 200.5 1066 1083>
LayerCount: 2
Fore
SplineSet
298 -9 m 1
 278 -9 255 -3 249 41 c 2
 169 724 l 1
 175 726 181 727 187 727 c 0
 214 727 234 708 237 684 c 2
 300 110 l 1
 286 78 l 1
 286 74 l 1
 585 636 l 2
 593 649 604 656 618 656 c 256
 632 656 640 649 642 636 c 2
 698 110 l 1
 684 78 l 1
 684 74 l 1
 1011 684 l 2
 1023 709 1052 727 1080 727 c 0
 1086 727 1091 726 1097 724 c 1
 725 41 l 2
 708 8 684 -9 654 -9 c 1
 591 574 l 1
 589 570 l 1
 589 537 l 1
 298 -9 l 1
EndSplineSet
EndChar

StartChar: X
Encoding: 88 88 57
Width: 633
VWidth: 1507
Flags: W
HStem: -10 21G<38 48.5 579 589.5> 707 20G<209.5 219 716.5 731>
LayerCount: 2
Fore
SplineSet
181 716 m 1
 193 723 204 727 215 727 c 0
 223 727 245 723 256 701 c 2
 404 415 l 1
 672 701 l 2
 687 717 707 727 726 727 c 0
 736 727 746 723 754 716 c 1
 428 369 l 1
 618 2 l 1
 606 -6 595 -10 584 -10 c 0
 574 -10 554 -5 543 18 c 2
 384 324 l 1
 96 18 l 2
 75 -5 54 -10 43 -10 c 0
 33 -10 23 -6 15 2 c 1
 362 369 l 1
 181 716 l 1
EndSplineSet
EndChar

StartChar: Y
Encoding: 89 89 58
Width: 602
VWidth: 1507
Flags: W
HStem: -9 21G<272.278 288.5> 707 20G<194.5 204 701.5 716>
LayerCount: 2
Fore
SplineSet
342 51 m 2
 333 11 309 -9 268 -9 c 1
 348 365 l 1
 166 716 l 1
 178 723 189 727 200 727 c 0
 208 727 230 723 241 701 c 2
 389 415 l 1
 657 701 l 2
 672 717 692 727 711 727 c 0
 721 727 731 723 739 716 c 1
 408 365 l 1
 342 51 l 2
EndSplineSet
EndChar

StartChar: Z
Encoding: 90 90 59
Width: 633
VWidth: 1507
Flags: W
HStem: 0 54<128 602.389> 662 54<181.485 656>
LayerCount: 2
Fore
SplineSet
60 0 m 2
 41 0 36 15 36 25 c 0
 36 33 39 40 45 47 c 2
 683 683 l 1
 678 681 l 1
 656 662 l 1
 225 662 l 2
 194 662 179 674 179 699 c 0
 179 704 180 710 181 716 c 1
 724 716 l 2
 743 716 748 701 748 691 c 0
 748 683 745 676 739 669 c 2
 101 33 l 1
 106 35 l 1
 128 54 l 1
 559 54 l 2
 589 54 605 42 605 17 c 0
 605 12 604 6 603 0 c 1
 60 0 l 2
EndSplineSet
EndChar

StartChar: bracketleft
Encoding: 91 91 60
Width: 287
VWidth: 1507
Flags: MW
HStem: -130 55<131 266.969> 689 54<294 438.113>
LayerCount: 2
Fore
SplineSet
62 -130 m 1
 247 743 l 1
 452 743 l 1
 445 707 424 689 387 689 c 2
 294 689 l 1
 131 -75 l 1
 225 -75 l 2
 255 -75 269 -87 269 -111 c 0
 269 -117 269 -123 267 -130 c 1
 62 -130 l 1
EndSplineSet
EndChar

StartChar: backslash
Encoding: 92 92 61
Width: 420
VWidth: 1507
Flags: MW
LayerCount: 2
Fore
SplineSet
428 -30 m 1
 416 -36 405 -39 396 -39 c 0
 379 -39 368 -28 362 -6 c 2
 143 746 l 1
 155 752 166 755 175 755 c 0
 193 755 204 744 210 722 c 2
 428 -30 l 1
EndSplineSet
EndChar

StartChar: asciicircum
Encoding: 94 94 63
Width: 642
VWidth: 1507
Flags: W
HStem: 700 20G<467.5 481>
VStem: 116 497<211 211 211 211>
LayerCount: 2
Fore
SplineSet
475 720 m 0
 487 719 495 714 497 704 c 2
 613 211 l 1
 605 207 598 206 590 206 c 0
 575 206 554 212 549 232 c 2
 455 638 l 1
 190 232 l 2
 179 215 159 206 138 206 c 0
 130 206 123 207 116 211 c 1
 443 704 l 2
 449 715 460 720 475 720 c 0
EndSplineSet
EndChar

StartChar: underscore
Encoding: 95 95 64
Width: 542
VWidth: 1507
Flags: W
HStem: -282 48<-48 482>
LayerCount: 2
Fore
SplineSet
-59 -282 m 1
 -48 -234 l 1
 493 -234 l 1
 482 -282 l 1
 -59 -282 l 1
EndSplineSet
EndChar

StartChar: grave
Encoding: 96 96 65
Width: 325
VWidth: 1507
Flags: W
HStem: 562 157
LayerCount: 2
Fore
SplineSet
374 562 m 1
 349 562 326 564 314 579 c 2
 217 719 l 1
 252 719 l 2
 287 719 308 710 317 692 c 2
 374 562 l 1
EndSplineSet
EndChar

StartChar: a
Encoding: 97 97 66
Width: 557
VWidth: 1507
Flags: W
HStem: -9 50<188.7 361.803> 283 50<234.131 403.329> 470 50<279.469 444.167>
VStem: 90 55<82.5897 202.125> 489 56<351.195 427.484>
LayerCount: 2
Fore
SplineSet
90 130 m 0
 90 235 206 333 333 333 c 0
 401 333 456 308 485 259 c 1
 488 264 l 1
 484 272 479 279 473 285 c 1
 487 350 l 2
 488 357 489 364 489 371 c 0
 489 418 449 470 363 470 c 0
 289 470 223 418 188 372 c 1
 185 374 172 387 172 409 c 0
 172 451 269 520 374 520 c 0
 465 520 545 465 545 383 c 0
 545 372 544 361 541 350 c 2
 476 45 l 2
 468 9 446 -9 410 -9 c 1
 421 39 l 1
 432 45 432 50 445 60 c 1
 445 65 l 1
 403 23 339 -9 261 -9 c 0
 164 -9 90 47 90 130 c 0
145 137 m 0
 145 99 178 41 271 41 c 0
 361 41 448 103 448 182 c 0
 448 243 394 283 323 283 c 256
 228 283 145 216 145 137 c 0
EndSplineSet
Substitution2: "Single Substitution lookup 22 subtable" uni0E38
Substitution2: "Single Substitution lookup 22 subtable" uni0E38
EndChar

StartChar: b
Encoding: 98 98 67
Width: 572
VWidth: 1507
Flags: W
HStem: -9 50<235.533 391.202> 470 50<303.577 473.597> 705 20G<279.5 293.731>
VStem: 517 54<334.037 350 350 361.023 361.023 362.331 361.677 428.411>
LayerCount: 2
Fore
SplineSet
520 372 m 0
 520 411 487 470 393 470 c 0
 307 470 229 412 219 350 c 2
 178 163 l 2
 176 156 176 149 176 142 c 0
 176 81 230 41 301 41 c 256
 393 41 466 104 476 163 c 2
 517 350 l 2
 519 358 520 365 520 372 c 0
291 -9 m 0
 271 -9 181 -7 140 65 c 1
 137 60 l 1
 141 52 146 45 152 39 c 1
 143 6 125 -9 87 -9 c 1
 232 671 l 2
 239 707 261 725 298 725 c 1
 244 472 l 1
 233 466 233 461 220 451 c 1
 220 446 l 1
 262 488 326 520 404 520 c 0
 513 520 575 450 575 381 c 0
 575 371 573 361 571 350 c 2
 531 163 l 2
 510 67 402 -9 291 -9 c 0
EndSplineSet
Substitution2: "Single Substitution lookup 22 subtable" uni0E39
Substitution2: "Single Substitution lookup 22 subtable" uni0E39
EndChar

StartChar: c
Encoding: 99 99 68
Width: 518
VWidth: 1507
Flags: W
HStem: -9 50<204.689 377.062> 470 50<289.636 459.77>
VStem: 105 55<84.1665 149.945 149.914 149.977 149.977 161 161 177.363> 502 54<361.933 428.511>
LayerCount: 2
Fore
SplineSet
276 -9 m 0
 181 -9 105 46 105 128 c 0
 105 139 106 150 109 161 c 2
 149 348 l 2
 169 436 269 520 389 520 c 0
 513 520 556 437 556 402 c 0
 556 370 520 348 502 348 c 1
 503 354 504 361 504 367 c 0
 504 429 453 470 378 470 c 256
 289 470 216 409 203 348 c 2
 163 161 l 2
 161 153 160 146 160 139 c 0
 160 92 201 41 286 41 c 0
 380 41 451 105 461 163 c 1
 478 163 497 145 497 126 c 0
 497 92 411 -9 276 -9 c 0
EndSplineSet
Substitution2: "Single Substitution lookup 22 subtable" uni0E3A
Substitution2: "Single Substitution lookup 22 subtable" uni0E3A
EndChar

StartChar: d
Encoding: 100 100 69
Width: 572
VWidth: 1507
Flags: W
HStem: -9 50<204.689 377.625> 470 50<289.636 445.001> 705 20G<617.5 631.735>
VStem: 105 55<84.1665 149.945 149.914 149.977 149.977 161 161 177.363>
LayerCount: 2
Fore
SplineSet
160 139 m 0
 160 92 201 41 286 41 c 0
 380 41 451 103 461 161 c 2
 502 348 l 2
 503 354 504 361 504 367 c 0
 504 429 453 470 378 470 c 256
 289 470 216 409 203 348 c 2
 163 161 l 2
 161 153 160 146 160 139 c 0
389 520 m 0
 409 520 499 518 540 446 c 1
 543 451 l 1
 539 459 534 466 528 472 c 1
 570 671 l 2
 577 707 599 725 636 725 c 1
 491 45 l 2
 483 9 461 -9 425 -9 c 1
 436 39 l 1
 447 45 447 50 460 60 c 1
 460 65 l 1
 418 23 354 -9 276 -9 c 0
 181 -9 105 46 105 128 c 0
 105 139 106 150 109 161 c 2
 149 348 l 2
 169 436 269 520 389 520 c 0
EndSplineSet
EndChar

StartChar: e
Encoding: 101 101 70
Width: 557
VWidth: 1507
Flags: W
HStem: -9 50<204.689 377.062> 267 50<196 494> 470 50<289.636 458.613>
VStem: 105 55<84.1665 159.782> 504 56<334.438 348 348 357.5 357.5 360.331 358.916 428.019>
LayerCount: 2
Fore
SplineSet
389 520 m 256
 506 520 560 441 560 379 c 0
 560 369 558 359 556 348 c 2
 544 294 l 2
 540 280 527 267 511 267 c 2
 185 267 l 1
 163 161 l 2
 161 153 160 146 160 139 c 0
 160 92 201 41 286 41 c 0
 380 41 451 105 461 163 c 1
 478 163 497 145 497 126 c 0
 497 92 411 -9 276 -9 c 0
 181 -9 105 46 105 128 c 0
 105 139 106 150 109 161 c 2
 149 348 l 2
 169 436 269 520 389 520 c 256
504 367 m 0
 504 429 453 470 378 470 c 256
 289 470 216 409 203 348 c 2
 196 317 l 1
 494 317 l 1
 502 348 l 2
 503 354 504 361 504 367 c 0
EndSplineSet
EndChar

StartChar: f
Encoding: 102 102 71
Width: 301
VWidth: 1507
Flags: MW
HStem: -9 21G<103.298 117.5> 461 50<124.15 200 265 347.496> 675 50<322.41 433.578>
LayerCount: 2
Fore
SplineSet
405 725 m 0
 440 725 447 706 447 693 c 0
 447 684 443 675 436 666 c 1
 425 672 411 675 395 675 c 0
 326 675 289 630 280 588 c 2
 265 511 l 1
 360 511 l 1
 352 478 332 461 300 461 c 2
 255 461 l 1
 166 45 l 2
 158 9 136 -9 99 -9 c 1
 200 461 l 1
 113 461 l 1
 119 494 139 511 173 511 c 2
 211 511 l 1
 226 588 l 2
 239 649 298 725 405 725 c 0
EndSplineSet
EndChar

StartChar: g
Encoding: 103 103 72
Width: 572
VWidth: 1507
Flags: W
HStem: -214 50<162.841 332.333> -9 50<204.689 377.625> 470 50<289.636 445.001>
VStem: 65 53<-121.412 -56.8965> 105 55<84.1665 149.945 149.914 149.977 149.977 161 161 177.363>
LayerCount: 2
Fore
SplineSet
160 139 m 0xe8
 160 92 201 41 286 41 c 0
 380 41 451 103 461 161 c 2
 502 348 l 2
 503 354 504 361 504 367 c 0
 504 429 453 470 378 470 c 256
 289 470 216 409 203 348 c 2
 163 161 l 2
 161 153 160 146 160 139 c 0xe8
118 -65 m 0xf0
 118 -104 151 -164 243 -164 c 256
 316 -164 403 -118 418 -44 c 2
 436 39 l 1
 447 45 447 50 460 60 c 1
 460 65 l 1
 418 23 354 -9 276 -9 c 0
 181 -9 105 46 105 128 c 0xe8
 105 139 106 150 109 161 c 2
 149 348 l 2
 169 436 269 520 389 520 c 0
 409 520 499 518 540 446 c 1
 543 451 l 1
 539 459 534 466 528 472 c 1
 541 519 576 520 592 520 c 1
 472 -44 l 2
 450 -142 341 -214 232 -214 c 0
 99 -214 65 -122 65 -97 c 0
 65 -68 99 -42 121 -42 c 1
 119 -50 118 -57 118 -65 c 0xf0
EndSplineSet
EndChar

StartChar: h
Encoding: 104 104 73
Width: 587
VWidth: 1507
Flags: W
HStem: -9 21G<91.2647 105.5 444.314 458> 470 50<304.159 473.223> 705 20G<279.5 293.731>
VStem: 87 67<5.79883 367.679> 519 56<331.773 348 348 358.023 358.023 360.331 359.177 426.851>
LayerCount: 2
Fore
SplineSet
519 368 m 0
 519 409 488 470 393 470 c 256
 302 470 229 407 219 348 c 2
 154 45 l 2
 146 9 124 -9 87 -9 c 1
 232 671 l 2
 239 707 261 725 298 725 c 1
 244 472 l 1
 233 466 233 461 220 451 c 1
 220 446 l 1
 262 488 326 520 404 520 c 0
 521 520 575 441 575 379 c 0
 575 369 573 359 571 348 c 2
 506 45 l 2
 498 9 476 -9 440 -9 c 1
 517 348 l 2
 518 355 519 362 519 368 c 0
EndSplineSet
EndChar

StartChar: i
Encoding: 105 105 74
Width: 235
VWidth: 1507
Flags: MW
HStem: -9 21G<91.2526 105.5> 500 20G<236.5 250.747> 601 103<221.301 289.125>
VStem: 203 105<620.199 685.582>
LayerCount: 2
Fore
SplineSet
188 466 m 2
 195 502 218 520 255 520 c 1
 154 45 l 2
 146 9 124 -9 87 -9 c 1
 188 466 l 2
203 640 m 0
 203 667 229 704 267 704 c 256
 290 704 308 688 308 665 c 0
 308 637 279 601 244 601 c 256
 220 601 203 619 203 640 c 0
EndSplineSet
EndChar

StartChar: j
Encoding: 106 106 75
Width: 235
VWidth: 1507
Flags: MW
HStem: -214 50<-77.9424 29.4517> 500 20G<236.5 250.745> 601 103<221.301 289.125>
VStem: 203 105<620.199 685.582>
LayerCount: 2
Fore
SplineSet
-50 -214 m 0
 -84 -214 -91 -195 -91 -182 c 0
 -91 -173 -87 -164 -80 -155 c 1
 -70 -161 -56 -164 -39 -164 c 0
 29 -164 65 -117 74 -77 c 2
 188 466 l 2
 195 502 218 520 255 520 c 1
 128 -77 l 2
 113 -146 49 -214 -50 -214 c 0
203 640 m 0
 203 667 229 704 267 704 c 256
 290 704 308 688 308 665 c 0
 308 637 279 601 244 601 c 256
 220 601 203 619 203 640 c 0
EndSplineSet
EndChar

StartChar: k
Encoding: 107 107 76
Width: 572
VWidth: 1507
Flags: W
HStem: -9 21G<91.2647 105.5 444.2 458> 314 49<362 438.75> 499 20G<538.412 575.5> 705 20G<279.5 293.756>
VStem: 482 55<174.516 203 203 206.523 204.762 271.806>
LayerCount: 2
Fore
SplineSet
485 215 m 0
 485 255 453 314 360 314 c 0
 279 314 200 259 184 191 c 2
 154 45 l 2
 146 9 124 -9 87 -9 c 1
 232 671 l 2
 239 707 261 725 298 725 c 1
 211 315 l 1
 574 519 l 1
 577 511 578 503 578 495 c 0
 578 473 565 456 540 443 c 2
 404 368 l 1
 385 368 l 2
 371 368 365 364 362 363 c 1
 371 363 l 2
 469 363 540 303 540 222 c 0
 540 212 539 202 537 191 c 2
 506 45 l 2
 498 9 476 -9 440 -9 c 1
 482 191 l 2
 484 199 485 207 485 215 c 0
EndSplineSet
EndChar

StartChar: l
Encoding: 108 108 77
Width: 289
VWidth: 1507
Flags: MW
HStem: -9 50<184.79 277.93> 705 20G<279.5 293.779>
VStem: 115 55<56.6981 114.988 112.477 117.5 117.5 144.583>
LayerCount: 2
Fore
SplineSet
296 38 m 0
 296 19 277 -9 237 -9 c 0
 136 -9 115 56 115 97 c 0
 115 107 116 117 118 128 c 2
 232 671 l 2
 239 707 261 725 298 725 c 1
 172 128 l 2
 170 121 170 114 170 107 c 0
 170 84 178 41 247 41 c 0
 264 41 280 44 294 50 c 1
 295 46 296 42 296 38 c 0
EndSplineSet
EndChar

StartChar: m
Encoding: 109 109 78
Width: 786
VWidth: 1507
Flags: W
HStem: -9 21G<91.2526 105.5 367.235 381.5 643.235 657> 470 50<275.429 422.809 552.61 697.87>
VStem: 722 54<366.47 391.023 391.023 396.023 393.523 445.221>
LayerCount: 2
Fore
SplineSet
724 399 m 0
 724 427 700 470 630 470 c 256
 562 470 510 427 500 383 c 2
 430 45 l 2
 422 9 400 -9 363 -9 c 1
 446 383 l 2
 447 389 448 394 448 399 c 0
 448 427 424 470 354 470 c 256
 289 470 234 431 225 383 c 2
 154 45 l 2
 146 9 124 -9 87 -9 c 1
 188 466 l 2
 195 502 218 520 255 520 c 1
 249 493 l 1
 240 488 227 477 222 472 c 1
 226 470 l 1
 259 498 308 520 365 520 c 0
 414 520 462 502 487 464 c 1
 478 457 471 443 470 440 c 1
 470 436 l 1
 502 481 565 520 641 520 c 0
 730 520 779 466 779 409 c 0
 779 401 778 392 776 383 c 2
 705 45 l 2
 697 9 675 -9 639 -9 c 1
 722 383 l 2
 723 389 724 394 724 399 c 0
EndSplineSet
EndChar

StartChar: n
Encoding: 110 110 79
Width: 587
VWidth: 1507
Flags: W
HStem: -9 21G<91.2526 105.5 444.314 458> 470 50<304.159 473.223>
VStem: 519 56<331.773 348 348 358.023 358.023 360.331 359.177 426.851>
LayerCount: 2
Fore
SplineSet
519 368 m 0
 519 409 488 470 393 470 c 256
 302 470 229 407 219 348 c 2
 154 45 l 2
 146 9 124 -9 87 -9 c 1
 188 466 l 2
 195 502 218 520 255 520 c 1
 244 472 l 1
 233 466 233 461 220 451 c 1
 220 446 l 1
 262 488 326 520 404 520 c 0
 521 520 575 441 575 379 c 0
 575 369 573 359 571 348 c 2
 506 45 l 2
 498 9 476 -9 440 -9 c 1
 517 348 l 2
 518 355 519 362 519 368 c 0
EndSplineSet
EndChar

StartChar: o
Encoding: 111 111 80
Width: 649
VWidth: 1507
Flags: W
HStem: -9 50<246.579 429.641> 470 50<329.912 510.63>
VStem: 107 55<125.42 302.3> 593 55<208.047 388.366>
LayerCount: 2
Fore
SplineSet
107 198 m 0
 107 358 262 520 434 520 c 256
 562 520 648 426 648 311 c 0
 648 151 494 -9 321 -9 c 256
 190 -9 107 85 107 198 c 0
424 470 m 256
 292 470 162 348 162 210 c 0
 162 127 218 41 332 41 c 256
 465 41 593 163 593 302 c 0
 593 403 521 470 424 470 c 256
EndSplineSet
EndChar

StartChar: p
Encoding: 112 112 81
Width: 572
VWidth: 1507
Flags: W
HStem: -214 21G<48.2353 62> -9 50<234.692 391.101> 470 50<304.159 473.223>
VStem: 517 54<332.037 348 348 358.023 358.023 360.331 359.177 426.851>
LayerCount: 2
Fore
SplineSet
519 368 m 0
 519 409 488 470 393 470 c 256
 302 470 229 407 219 348 c 2
 178 161 l 2
 176 153 175 146 175 139 c 0
 175 92 216 41 301 41 c 0
 395 41 466 103 476 161 c 2
 517 348 l 2
 518 355 519 362 519 368 c 0
291 -9 m 0
 271 -9 181 -7 140 65 c 1
 137 60 l 1
 141 52 146 45 152 39 c 1
 110 -160 l 2
 102 -196 80 -214 44 -214 c 1
 188 466 l 2
 195 502 218 520 255 520 c 1
 244 472 l 1
 233 466 233 461 220 451 c 1
 220 446 l 1
 262 488 326 520 404 520 c 0
 521 520 575 441 575 379 c 0
 575 369 573 359 571 348 c 2
 531 161 l 2
 509 63 400 -9 291 -9 c 0
EndSplineSet
EndChar

StartChar: q
Encoding: 113 113 82
Width: 572
VWidth: 1507
Flags: W
HStem: -214 21G<385.348 399.5> -9 50<204.689 377.625> 470 50<289.636 445.001>
VStem: 105 55<84.1665 149.945 149.914 149.977 149.977 161 161 177.363>
LayerCount: 2
Fore
SplineSet
160 139 m 0
 160 92 201 41 286 41 c 0
 380 41 451 103 461 161 c 2
 502 348 l 2
 503 354 504 361 504 367 c 0
 504 429 453 470 378 470 c 256
 289 470 216 409 203 348 c 2
 163 161 l 2
 161 153 160 146 160 139 c 0
389 520 m 0
 409 520 499 518 540 446 c 1
 543 451 l 1
 539 459 534 466 528 472 c 1
 541 519 576 520 592 520 c 1
 448 -160 l 2
 440 -196 418 -214 381 -214 c 1
 436 39 l 1
 447 45 447 50 460 60 c 1
 460 65 l 1
 418 23 354 -9 276 -9 c 0
 181 -9 105 46 105 128 c 0
 105 139 106 150 109 161 c 2
 149 348 l 2
 169 436 269 520 389 520 c 0
EndSplineSet
EndChar

StartChar: r
Encoding: 114 114 83
Width: 378
VWidth: 1507
Flags: MW
HStem: 470 50<363.79 431.155>
LayerCount: 2
Fore
SplineSet
219 439 m 1
 294 520 388 520 404 520 c 0
 423 520 442 518 457 514 c 1
 447 482 430 470 393 470 c 0
 302 470 229 407 219 348 c 2
 154 45 l 2
 146 9 124 -9 87 -9 c 1
 188 466 l 2
 195 502 218 520 255 520 c 1
 244 469 l 1
 234 460 226 451 219 443 c 1
 219 439 l 1
EndSplineSet
EndChar

StartChar: s
Encoding: 115 115 84
Width: 495
VWidth: 1507
Flags: W
HStem: -9 50<177.218 345.828> 470 50<263.067 413.193>
VStem: 74 54<87.4169 168.763> 142 55<320.335 411.54> 430 55<113.344 197.93> 453 53<341.949 431.857>
LayerCount: 2
Fore
SplineSet
506 387 m 0xf4
 506 334 471 322 449 322 c 0
 446 322 443 323 440 323 c 1
 448 340 453 356 453 372 c 0xf4
 453 431 405 470 347 470 c 256
 267 470 197 416 197 360 c 0
 197 254 485 317 485 178 c 0
 485 75 356 -9 244 -9 c 0
 147 -9 74 46 74 128 c 0
 74 165 97 187 130 187 c 0
 139 187 l 1
 132 171 128 156 128 142 c 0
 128 84 188 41 255 41 c 0
 355 41 430 113 430 164 c 0xf8
 430 238 256 225 172 278 c 0
 152 290 142 311 142 342 c 0
 142 448 251 520 357 520 c 0
 480 520 506 442 506 387 c 0xf4
EndSplineSet
EndChar

StartChar: t
Encoding: 116 116 85
Width: 301
VWidth: 1507
Flags: W
HStem: -9 50<199.073 290.621> 461 50<124.15 200 265 347.496 113 360 173 173> 705 20G<292.5 306.701>
VStem: 127 55<58.2315 114.988 112.477 117.5 117.5 144.415>
LayerCount: 2
Fore
SplineSet
309 37 m 0
 309 19 289 -9 249 -9 c 0
 148 -9 127 56 127 97 c 0
 127 107 128 117 130 128 c 2
 200 461 l 1
 113 461 l 1
 119 494 139 511 173 511 c 2
 211 511 l 1
 244 671 l 2
 251 707 274 725 311 725 c 1
 265 511 l 1
 360 511 l 1
 352 478 332 461 300 461 c 2
 255 461 l 1
 184 128 l 2
 182 121 182 114 182 107 c 0
 182 83 193 41 259 41 c 0
 276 41 292 44 306 50 c 1
 308 46 309 41 309 37 c 0
EndSplineSet
EndChar

StartChar: u
Encoding: 117 117 86
Width: 587
VWidth: 1507
Flags: W
HStem: -9 50<222.016 390.709> 500 20G<236.5 250.686 588.5 602.747>
VStem: 120 56<83.3151 152.207 151.914 152.5 152.5 163 163 179.227>
LayerCount: 2
Fore
SplineSet
176 142 m 0
 176 81 230 41 301 41 c 256
 393 41 466 104 476 163 c 2
 541 466 l 2
 548 502 570 520 607 520 c 1
 506 45 l 2
 498 9 476 -9 440 -9 c 1
 451 39 l 1
 462 45 462 50 475 60 c 1
 475 65 l 1
 433 23 369 -9 291 -9 c 0
 194 -9 120 48 120 130 c 0
 120 141 121 152 124 163 c 2
 188 466 l 2
 195 502 218 520 255 520 c 1
 178 163 l 2
 176 156 176 149 176 142 c 0
EndSplineSet
EndChar

StartChar: v
Encoding: 118 118 87
Width: 506
VWidth: 1507
Flags: W
HStem: -9 21G<243.5 256> 500 20G<151.5 158.5 566 574.5>
VStem: 131 461<515 515 515 515> 131 59<458.791 514.535>
LayerCount: 2
Fore
SplineSet
250 -9 m 0xe0
 237 -9 231 -3 231 8 c 1
 131 515 l 1xe0
 140 519 148 520 155 520 c 0
 162 520 186 518 190 488 c 2xd0
 267 83 l 1
 252 53 l 1
 252 48 l 1
 522 488 l 2
 538 515 561 520 571 520 c 0
 578 520 585 519 592 515 c 1
 279 8 l 2
 272 -3 262 -9 250 -9 c 0xe0
EndSplineSet
EndChar

StartChar: w
Encoding: 119 119 88
Width: 729
VWidth: 1507
Flags: W
HStem: -9 21G<224.5 247.773 484.789 499> 499 20G<150.5 164 784.5 797.5>
LayerCount: 2
Fore
SplineSet
439 366 m 1
 237 -9 l 1
 212 -9 197 5 194 32 c 2
 131 515 l 1
 140 518 147 519 154 519 c 0
 174 519 185 507 188 484 c 2
 238 92 l 1
 226 63 l 1
 228 59 l 1
 433 446 l 2
 441 459 451 466 463 466 c 256
 475 466 482 459 484 446 c 2
 522 92 l 1
 509 63 l 1
 511 59 l 1
 746 484 l 2
 759 508 775 519 794 519 c 0
 801 519 808 518 815 515 c 1
 547 32 l 2
 528 1 511 -9 487 -9 c 1
 442 398 l 1
 439 393 l 1
 439 366 l 1
EndSplineSet
EndChar

StartChar: x
Encoding: 120 120 89
Width: 509
VWidth: 1507
Flags: W
HStem: -9 21G<48 59.5 445.5 457> 500 20G<183 195 534 546>
LayerCount: 2
Fore
SplineSet
487 5 m 1
 474 -4 462 -9 452 -9 c 0
 439 -9 428 -1 419 14 c 2
 303 231 l 1
 93 14 l 2
 79 -1 66 -9 53 -9 c 0
 43 -9 33 -4 23 5 c 1
 280 273 l 1
 154 508 l 1
 167 516 178 520 188 520 c 0
 202 520 214 512 223 497 c 2
 321 315 l 1
 497 497 l 2
 512 513 527 521 541 521 c 0
 551 521 560 516 570 508 c 1
 344 273 l 1
 487 5 l 1
EndSplineSet
EndChar

StartChar: y
Encoding: 121 121 90
Width: 506
VWidth: 1507
Flags: W
HStem: -214 44<-12.1094 78.5313> 500 20G<151.5 158.5 566 574.5>
VStem: 131 59<457.689 514.535>
LayerCount: 2
Fore
SplineSet
152 -159 m 0
 103 -198 44 -214 17 -214 c 0
 -4 -213 -14 -200 -14 -177 c 2
 -14 -170 l 1
 39 -170 91 -146 120 -125 c 0
 145 -106 170 -77 194 -39 c 2
 229 15 l 1
 131 515 l 1
 140 519 148 520 155 520 c 0
 162 520 186 518 190 488 c 2
 267 83 l 1
 252 53 l 1
 252 48 l 1
 522 488 l 2
 538 515 561 520 571 520 c 0
 578 520 585 519 592 515 c 1
 240 -54 l 2
 211 -99 182 -134 152 -159 c 0
EndSplineSet
EndChar

StartChar: z
Encoding: 122 122 91
Width: 455
VWidth: 1507
Flags: W
HStem: 0 50<112 432.113> 461 50<131 452>
LayerCount: 2
Fore
SplineSet
50 0 m 2
 36 0 27 10 27 24 c 0
 27 31 30 39 38 45 c 2
 479 482 l 1
 473 481 l 1
 452 461 l 1
 169 461 l 2
 141 461 129 473 129 496 c 0
 129 501 130 506 131 511 c 1
 514 511 l 2
 532 511 537 497 537 488 c 0
 537 480 533 473 525 466 c 2
 84 29 l 1
 89 30 l 1
 112 50 l 1
 393 50 l 2
 421 50 434 38 434 14 c 0
 434 10 434 5 433 0 c 1
 50 0 l 2
EndSplineSet
EndChar

StartChar: braceleft
Encoding: 123 123 92
Width: 287
VWidth: 1507
Flags: MW
HStem: -128 48<198.423 267> 288 39<100.587 160.566> 695 48<361.57 441.607>
VStem: 118 59<-76.4374 -12.2117> 168 61<199.317 271.714>
LayerCount: 2
Fore
SplineSet
100 300 m 0
 100 308 105 327 124 327 c 0
 174 327 199 359 213 421 c 2
 253 612 l 2
 281 737 355 743 381 743 c 2
 452 743 l 1
 446 711 426 695 393 695 c 0
 366 695 334 696 317 626 c 2
 274 431 l 2
 261 367 237 324 175 307 c 1
 230 292 229 247 229 234 c 0
 229 220 226 203 222 184 c 2
 181 -11 l 2
 179 -23 177 -32 177 -41 c 0
 177 -83 214 -80 229 -80 c 0
 255 -80 269 -91 269 -112 c 0
 269 -117 268 -122 267 -128 c 1
 196 -128 l 2
 134 -128 118 -84 118 -45 c 0
 118 -31 120 -15 124 3 c 2
 164 194 l 2
 167 208 168 221 168 232 c 0
 168 269 155 288 115 288 c 0
 105 288 100 292 100 300 c 0
EndSplineSet
EndChar

StartChar: bar
Encoding: 124 124 93
Width: 232
VWidth: 1507
Flags: W
HStem: -157 951
LayerCount: 2
Fore
SplineSet
247 743 m 2
 255 777 276 794 311 794 c 1
 119 -106 l 2
 111 -140 90 -157 56 -157 c 1
 247 743 l 2
EndSplineSet
EndChar

StartChar: asciitilde
Encoding: 126 126 95
Width: 652
VWidth: 1507
Flags: W
HStem: 235 53<429.661 600.75> 307 55<153.076 337.513>
LayerCount: 2
Fore
SplineSet
243 307 m 0
 192 307 149 288 121 265 c 1
 116 276 113 285 113 294 c 0
 113 345 200 362 255 362 c 0
 364 362 429 288 517 288 c 0
 566 288 615 310 662 353 c 1
 671 343 675 333 675 323 c 0
 675 285 598 235 506 235 c 0
 405 235 337 307 243 307 c 0
EndSplineSet
EndChar

StartChar: quotedbl
Encoding: 34 34 97
Width: 349
VWidth: 1507
Flags: W
HStem: 508 217<191 433 301 301>
VStem: 191 67<527.611 607.928> 323 66<526.489 603.832>
LayerCount: 2
Fore
SplineSet
214 653 m 2
 225 720 279 725 301 725 c 1
 258 565 l 2
 253 545 231 508 191 508 c 1
 214 653 l 2
345 653 m 2
 356 720 411 725 433 725 c 1
 389 565 l 2
 385 546 363 508 323 508 c 1
 345 653 l 2
EndSplineSet
EndChar

StartChar: exclam
Encoding: 33 33 98
Width: 221
VWidth: 1507
Flags: W
HStem: -9 113<82.663 157.736> 705 20G<268.5 306.029>
VStem: 62 116<11.75 83.4041> 205 106<642 742.56>
LayerCount: 2
Fore
SplineSet
205 642 m 2
 209 662 226 725 311 725 c 1
 181 202 l 2
 171 164 149 145 115 145 c 1
 205 642 l 2
62 36 m 0
 62 67 91 104 131 104 c 256
 158 104 178 87 178 61 c 0
 178 23 146 -9 107 -9 c 256
 79 -9 62 9 62 36 c 0
EndSplineSet
EndChar

StartChar: exclamdown
Encoding: 161 161 100
Width: 221
VWidth: 1507
Flags: MW
HStem: -214 21G<24.9331 50> 407 113<172.141 247.732>
VStem: 149 67<251.443 361.293> 153 115<427.125 500.205>
LayerCount: 2
Fore
SplineSet
125 -131 m 2
 116 -181 80 -214 20 -214 c 1
 149 309 l 2
 158 347 181 366 216 366 c 1
 125 -131 l 2
268 475 m 0
 268 438 234 407 199 407 c 256
 171 407 153 426 153 451 c 0
 153 491 187 520 223 520 c 256
 251 520 268 502 268 475 c 0
EndSplineSet
EndChar

StartChar: cent
Encoding: 162 162 101
Width: 518
VWidth: 1507
Flags: W
HStem: -8 50<204.3 250 312 377.712> 469 50<286.289 353 415 460.01>
VStem: 105 56<82.3996 159.805> 504 52<361.951 427.911>
LayerCount: 2
Fore
SplineSet
250 -8 m 1
 172 3 105 53 105 128 c 0
 105 139 106 150 109 161 c 2
 149 348 l 2
 161 416 236 503 363 519 c 1
 368 544 l 2
 375 578 395 595 430 595 c 1
 415 519 l 1
 528 504 556 425 556 402 c 0
 556 370 520 348 502 348 c 1
 504 355 504 362 504 369 c 0
 504 420 464 460 404 469 c 1
 312 42 l 1
 385 52 448 101 461 163 c 1
 478 163 497 145 497 126 c 0
 497 92 421 4 301 -8 c 1
 297 -33 l 2
 290 -67 269 -84 235 -84 c 1
 250 -8 l 1
353 469 m 1
 262 456 214 396 203 348 c 2
 163 161 l 2
 162 154 161 147 161 140 c 0
 161 90 200 51 261 42 c 1
 353 469 l 1
EndSplineSet
EndChar

StartChar: sterling
Encoding: 163 163 102
Width: 575
VWidth: 1507
Flags: W
HStem: 0 54<184 528.389> 332 54<145.203 265 326 487.094> 672 53<462.031 608.343>
LayerCount: 2
Fore
SplineSet
531 725 m 0
 592 725 647 703 647 672 c 0
 647 668 645 648 627 635 c 1
 605 660 567 672 514 672 c 0
 371 672 343 549 326 386 c 1
 502 386 l 1
 494 350 472 332 436 332 c 2
 320 332 l 1
 311 225 302 125 184 54 c 1
 485 54 l 2
 515 54 531 42 531 17 c 0
 531 12 530 6 529 0 c 1
 77 0 l 1
 89 64 127 50 193 119 c 0
 242 171 252 213 259 276 c 2
 265 332 l 1
 131 332 l 1
 138 368 160 386 197 386 c 2
 270 386 l 1
 281 509 292 596 376 668 c 0
 434 718 500 725 531 725 c 0
EndSplineSet
EndChar

StartChar: currency
Encoding: 164 164 103
Width: 743
VWidth: 1507
Flags: W
HStem: 78 53<309.161 464.537> 586 55<400.36 582.36>
VStem: 159 61<219.997 404.06> 672 64<348.15 479.14>
LayerCount: 2
Fore
SplineSet
387 78 m 256
 316 78 264 102 228 143 c 1
 152 78 l 1
 116 124 l 1
 190 187 l 1
 170 221 159 259 159 300 c 0
 159 348 177 454 264 534 c 1
 216 595 l 1
 271 642 l 1
 320 579 l 1
 382 622 455 641 506 641 c 0
 571 641 626 620 669 579 c 1
 748 642 l 1
 781 595 l 1
 707 534 l 1
 730 499 736 459 736 426 c 0
 736 405 736 290 633 187 c 1
 681 124 l 1
 627 78 l 1
 577 143 l 1
 502 85 425 78 387 78 c 256
494 586 m 256
 348 586 220 445 220 308 c 0
 220 202 298 131 398 131 c 256
 544 131 672 273 672 409 c 0
 672 501 608 586 494 586 c 256
EndSplineSet
EndChar

StartChar: yen
Encoding: 165 165 104
Width: 602
VWidth: 1507
Flags: W
HStem: -9 21G<272.322 288.5> 264 54<154.15 327 398 570.146> 399 55<182.887 301 491 598.463> 707 20G<194.5 204 701.5 716>
LayerCount: 2
Fore
SplineSet
169 399 m 1
 176 436 197 454 234 454 c 2
 301 454 l 1
 166 716 l 1
 178 723 189 727 200 727 c 0
 208 727 230 723 241 701 c 2
 389 415 l 1
 657 701 l 2
 672 717 692 727 711 727 c 0
 721 727 731 723 739 716 c 1
 491 454 l 1
 613 454 l 1
 605 417 584 399 549 399 c 2
 442 399 l 1
 408 365 l 1
 398 318 l 1
 585 318 l 1
 577 282 555 264 520 264 c 2
 387 264 l 1
 342 51 l 2
 333 11 309 -9 268 -9 c 1
 327 264 l 1
 140 264 l 1
 147 300 169 318 205 318 c 2
 338 318 l 1
 348 365 l 1
 330 399 l 1
 169 399 l 1
EndSplineSet
EndChar

StartChar: brokenbar
Encoding: 166 166 105
Width: 232
VWidth: 1507
Flags: MW
LayerCount: 2
Fore
SplineSet
247 743 m 2
 255 777 276 794 311 794 c 1
 231 424 l 2
 225 389 204 372 169 372 c 1
 247 743 l 2
136 214 m 2
 142 248 162 265 197 265 c 1
 119 -106 l 2
 111 -140 90 -157 56 -157 c 1
 136 214 l 2
EndSplineSet
EndChar

StartChar: section
Encoding: 167 167 106
Width: 592
VWidth: 1507
Flags: W
HStem: -9 51<208.366 389.634> 678 47<359.783 526.263>
VStem: 172 59<347.215 441.594> 249 61<540.784 632.639> 448 58<93.0796 199.333> 514 63<313.048 400.292>
LayerCount: 2
Fore
SplineSet
577 370 m 0
 577 296 519 247 488 223 c 1
 497 211 506 188 506 165 c 0
 506 78 422 -9 276 -9 c 0
 238 -9 144 -1 144 49 c 0
 144 60 150 73 161 87 c 1
 186 56 230 42 289 42 c 0
 384 42 448 86 448 152 c 0
 448 265 172 241 172 370 c 0
 172 427 199 469 265 512 c 1
 254 525 249 539 249 560 c 0
 249 659 350 725 467 725 c 0
 502 725 590 715 590 677 c 0
 590 669 587 652 574 639 c 1
 552 655 509 678 449 678 c 0
 376 678 310 640 310 582 c 0
 310 484 577 510 577 370 c 0
455 252 m 1
 504 294 514 334 514 354 c 0
 514 431 387 440 303 488 c 1
 254 454 231 416 231 395 c 0
 231 310 369 306 455 252 c 1
EndSplineSet
EndChar

StartChar: dieresis
Encoding: 168 168 107
Width: 324
VWidth: 1507
Flags: W
HStem: 606 102<166.316 237.684 363.994 435.006>
VStem: 150 104<622.304 691.696> 347 105<623.489 690.511>
LayerCount: 2
Fore
SplineSet
150 645 m 0
 150 677 177 708 213 708 c 256
 236 708 254 692 254 669 c 0
 254 637 227 606 191 606 c 256
 168 606 150 622 150 645 c 0
347 647 m 0
 347 676 377 708 410 708 c 256
 435 708 452 690 452 667 c 0
 452 638 422 606 389 606 c 256
 364 606 347 624 347 647 c 0
EndSplineSet
EndChar

StartChar: copyright
Encoding: 169 169 108
Width: 824
VWidth: 1507
Flags: W
HStem: -9 48<312.553 532.141> 142 45<386.911 532.344> 531 43<450.081 594.731> 677 48<440.546 661.984>
VStem: 112 55<184.017 400.691> 303 54<215.242 281.649> 628 53<434.34 498.977> 808 56<311.39 530.512>
LayerCount: 2
Fore
SplineSet
112 277 m 0
 112 503 324 725 565 725 c 256
 735 725 864 610 864 436 c 0
 864 211 650 -9 408 -9 c 256
 220 -9 112 128 112 277 c 0
555 677 m 256
 357 677 167 492 167 287 c 0
 167 152 264 39 419 39 c 256
 611 39 808 215 808 425 c 0
 808 563 713 677 555 677 c 256
628 448 m 0
 628 483 595 531 528 531 c 256
 458 531 401 483 392 436 c 2
 359 282 l 2
 358 276 357 271 357 265 c 0
 357 232 386 187 455 187 c 0
 530 187 586 243 595 288 c 1
 598 288 601 289 604 289 c 0
 624 289 638 279 638 263 c 0
 638 217 550 142 445 142 c 0
 353 142 303 203 303 255 c 0
 303 264 304 273 306 282 c 2
 339 436 l 2
 354 513 449 574 537 574 c 0
 613 574 681 533 681 471 c 0
 681 438 654 429 635 429 c 0
 632 429 629 430 626 430 c 1
 627 436 628 442 628 448 c 0
EndSplineSet
EndChar

StartChar: ordfeminine
Encoding: 170 170 109
Width: 409
VWidth: 1507
Flags: W
HStem: 311 45<183.011 327.822> 534 45<212.63 354.22> 675 45<248.272 384.411>
VStem: 106 52<379.984 482.128> 409 51<588.328 651.045>
LayerCount: 2
Fore
SplineSet
158 427 m 0
 158 399 181 356 250 356 c 0
 328 356 379 411 379 459 c 0
 379 489 357 534 288 534 c 0
 212 534 158 477 158 427 c 0
297 579 m 0
 367 579 401 543 413 525 c 1
 416 529 l 1
 410 538 404 545 399 550 c 1
 407 588 l 2
 408 594 409 599 409 604 c 0
 409 633 385 675 318 675 c 0
 264 675 211 633 185 600 c 1
 175 608 169 618 169 631 c 0
 169 666 241 720 327 720 c 0
 400 720 460 676 460 611 c 0
 460 604 460 596 458 588 c 2
 410 356 l 2
 404 326 383 311 348 311 c 1
 354 339 l 1
 363 345 372 352 380 360 c 1
 380 365 l 1
 340 327 286 311 240 311 c 0
 156 311 106 359 106 416 c 0
 106 494 186 579 297 579 c 0
EndSplineSet
EndChar

StartChar: logicalnot
Encoding: 172 172 111
Width: 602
VWidth: 1507
Flags: W
HStem: 182 233<583 593.766> 363 52<134.234 583>
LayerCount: 2
Fore
SplineSet
645 415 m 1x40
 606 234 l 2
 600 199 579 182 544 182 c 1x80
 583 363 l 1
 122 363 l 1
 128 398 149 415 184 415 c 2
 645 415 l 1x40
EndSplineSet
EndChar

StartChar: registered
Encoding: 174 174 112
Width: 822
VWidth: 1507
Flags: W
HStem: -9 48<312.553 532.141> 335 45<383 588.474> 522 43<413 622.218> 677 48<440.546 661.984>
VStem: 112 55<184.017 400.691> 596 52<248.444 274.546 274.546 277.023 275.785 328.118> 634 50<411.729 499.321> 808 56<311.39 530.512>
LayerCount: 2
Fore
SplineSet
634 467 m 0xfb
 634 482 624 522 586 522 c 2
 413 522 l 1
 383 380 l 1
 556 380 l 2
 596 380 634 428 634 467 c 0xfb
596 285 m 0xfd
 596 325 567 335 547 335 c 2
 374 335 l 1
 341 184 l 2
 336 157 316 143 282 143 c 1
 366 543 l 2
 370 555 380 565 396 565 c 2
 595 565 l 2
 667 565 684 509 684 479 c 0xfb
 684 430 653 383 613 357 c 1
 636 342 648 320 648 290 c 0
 648 282 647 273 645 264 c 2
 627 184 l 2
 622 157 603 143 568 143 c 1
 594 264 l 2
 596 272 596 279 596 285 c 0xfd
112 277 m 0
 112 503 324 725 565 725 c 256
 735 725 864 610 864 436 c 0
 864 211 650 -9 408 -9 c 256
 220 -9 112 128 112 277 c 0
555 677 m 256
 357 677 167 492 167 287 c 0
 167 152 264 39 419 39 c 256
 611 39 808 215 808 425 c 0
 808 563 713 677 555 677 c 256
EndSplineSet
EndChar

StartChar: macron
Encoding: 175 175 113
Width: 325
VWidth: 1507
Flags: W
HStem: 636 48<187 416 176 427 187 187>
LayerCount: 2
Fore
SplineSet
176 636 m 1
 187 684 l 1
 427 684 l 1
 416 636 l 1
 176 636 l 1
EndSplineSet
EndChar

StartChar: degree
Encoding: 176 176 114
Width: 325
VWidth: 1507
Flags: W
HStem: 451 48<216.56 325.994> 677 48<245.177 353.456>
VStem: 143 57<515.364 631.023> 370 57<544.745 661.02>
LayerCount: 2
Fore
SplineSet
143 558 m 0
 143 643 224 725 315 725 c 256
 389 725 427 670 427 616 c 0
 427 534 350 451 256 451 c 0
 185 451 143 502 143 558 c 0
304 677 m 256
 248 677 200 624 200 567 c 0
 200 529 225 499 267 499 c 256
 322 499 370 552 370 608 c 0
 370 650 344 677 304 677 c 256
EndSplineSet
EndChar

StartChar: plusminus
Encoding: 177 177 115
Width: 602
VWidth: 1507
Flags: W
HStem: -2 55<60.1673 552.968> 273 51<115.262 332 396 614.092>
LayerCount: 2
Fore
SplineSet
332 273 m 1
 102 273 l 1
 111 307 131 324 164 324 c 2
 342 324 l 1
 371 457 l 2
 378 493 400 511 437 511 c 1
 396 324 l 1
 626 324 l 1
 619 290 599 273 564 273 c 2
 386 273 l 1
 357 140 l 2
 349 104 327 86 292 86 c 1
 332 273 l 1
568 53 m 1
 563 20 539 -2 503 -2 c 2
 45 -2 l 1
 51 30 73 53 110 53 c 2
 568 53 l 1
EndSplineSet
EndChar

StartChar: twosuperior
Encoding: 178 178 116
Width: 419
VWidth: 1507
Flags: W
HStem: 314 45<188 425> 677 43<282.289 415.351>
VStem: 189 43<576.035 590.535 590.535 632.25> 438 48<561.802 654.176>
LayerCount: 2
Fore
SplineSet
362 720 m 0
 430 720 486 680 486 619 c 0
 486 565 452 520 370 484 c 2
 311 460 l 2
 226 428 197 378 188 359 c 1
 395 359 l 2
 416 359 427 349 427 329 c 0
 427 325 426 320 425 314 c 1
 151 314 l 2
 141 314 130 319 130 329 c 0
 130 333 141 440 300 502 c 0
 402 543 438 564 438 609 c 0
 438 634 416 677 353 677 c 0
 296 677 243 636 234 595 c 1
 234 588 232 590 232 571 c 1
 206 571 189 591 189 604 c 0
 189 628 257 720 362 720 c 0
EndSplineSet
EndChar

StartChar: threesuperior
Encoding: 179 179 117
Width: 419
VWidth: 1507
Flags: W
HStem: 309 44<216.41 354.716> 509 44<312.704 380.721> 677 43<288.105 407.691>
VStem: 148 49<373.296 440.608> 214 46<595.063 629.413 608.954 649.559> 401 51<394.514 488.695> 419 51<595.878 663.791>
LayerCount: 2
Fore
SplineSet
214 618 m 0xfa
 214 646 265 720 362 720 c 0
 429 720 470 679 470 636 c 0xfa
 470 613 460 566 404 534 c 1
 427 520 452 495 452 456 c 0
 452 382 378 309 274 309 c 256
 184 309 148 365 148 405 c 0
 148 431 161 455 206 455 c 1
 200 440 197 423 197 416 c 0
 197 378 235 353 283 353 c 0
 348 353 401 398 401 446 c 0xfc
 401 482 364 509 317 509 c 0
 302 509 295 515 295 527 c 0
 295 542 313 553 327 553 c 0
 372 553 419 583 419 627 c 0
 419 657 388 677 353 677 c 0
 307 677 269 649 261 615 c 1
 261 610 260 606 260 603 c 0
 260 600 260 597 261 594 c 1
 257 594 254 593 251 593 c 0
 233 593 214 601 214 618 c 0xfa
EndSplineSet
EndChar

StartChar: acute
Encoding: 180 180 118
Width: 319
VWidth: 1507
Flags: W
HStem: 562 157
LayerCount: 2
Fore
SplineSet
295 692 m 2
 312 710 337 719 372 719 c 2
 407 719 l 1
 250 579 l 2
 230 564 210 562 184 562 c 1
 295 692 l 2
EndSplineSet
EndChar

StartChar: mu
Encoding: 181 181 119
Width: 587
VWidth: 1507
Flags: W
HStem: -214 21G<48.2353 62> -9 50<236.375 390.709> 500 20G<236.5 250.686 588.5 602.747>
LayerCount: 2
Fore
SplineSet
475 65 m 1
 433 23 369 -9 291 -9 c 256
 271 -9 181 -7 140 65 c 1
 137 60 l 1
 141 52 146 45 152 39 c 1
 110 -160 l 2
 102 -196 80 -214 44 -214 c 1
 188 466 l 2
 195 502 218 520 255 520 c 1
 178 163 l 2
 164 94 219 41 301 41 c 256
 393 41 466 104 476 163 c 2
 541 466 l 2
 548 502 570 520 607 520 c 1
 506 45 l 2
 498 9 476 -9 440 -9 c 1
 451 39 l 1
 462 45 462 50 475 60 c 1
 475 65 l 1
EndSplineSet
EndChar

StartChar: paragraph
Encoding: 182 182 120
Width: 559
VWidth: 1507
Flags: MW
HStem: 677 48<482.428 554.092>
LayerCount: 2
Fore
SplineSet
133 439 m 0
 133 512 182 725 497 725 c 0
 509 725 572 726 621 717 c 1
 451 -84 l 2
 442 -121 418 -139 381 -139 c 1
 555 677 l 1
 482 677 l 1
 321 -84 l 2
 312 -121 289 -139 252 -139 c 1
 339 271 l 1
 202 271 133 354 133 439 c 0
EndSplineSet
EndChar

StartChar: periodcentered
Encoding: 183 183 121
Width: 346
VWidth: 1507
Flags: W
HStem: 200 196<191.225 281.092>
VStem: 136 201<255.981 342.094>
LayerCount: 2
Fore
SplineSet
136 276 m 0
 136 342 195 396 256 396 c 256
 306 396 337 360 337 317 c 0
 337 257 277 200 216 200 c 256
 167 200 136 234 136 276 c 0
EndSplineSet
EndChar

StartChar: cedilla
Encoding: 184 184 122
Width: 263
VWidth: 1507
Flags: W
HStem: -211 41<31.3281 116.088>
VStem: 144 57<-156.389 -90.9304>
LayerCount: 2
Fore
SplineSet
201 -106 m 0
 201 -169 130 -211 69 -211 c 0
 39 -211 -0 -198 -0 -171 c 0
 -0 -163 3 -155 11 -146 c 1
 28 -162 50 -170 77 -170 c 0
 97 -170 144 -160 144 -119 c 0
 144 -89 100 -80 66 -80 c 0
 61 -80 56 -81 50 -81 c 1
 130 11 l 1
 175 11 l 1
 121 -48 l 1
 166 -48 201 -73 201 -106 c 0
EndSplineSet
EndChar

StartChar: onesuperior
Encoding: 185 185 123
Width: 419
VWidth: 1507
Flags: MW
HStem: 671 45<298.968 351>
LayerCount: 2
Fore
SplineSet
335 671 m 2
 311 671 297 683 297 706 c 0
 297 709 298 713 298 716 c 1
 383 716 l 2
 396 716 408 708 408 696 c 0
 408 694 408 692 407 690 c 1
 336 360 l 2
 330 326 309 309 274 309 c 1
 351 671 l 1
 335 671 l 2
EndSplineSet
EndChar

StartChar: ordmasculine
Encoding: 186 186 124
Width: 443
VWidth: 1507
Flags: W
HStem: 311 45<208.525 362.068> 675 45<267.09 423.618>
VStem: 104 51<410.35 556.855> 474 53<466.444 624.392>
LayerCount: 2
Fore
SplineSet
104 471 m 0
 104 594 225 720 357 720 c 0
 453 720 527 654 527 556 c 0
 527 435 404 311 270 311 c 0
 167 311 104 388 104 471 c 0
348 675 m 0
 247 675 155 573 155 478 c 0
 155 416 202 356 280 356 c 0
 385 356 474 450 474 554 c 0
 474 614 434 675 348 675 c 0
EndSplineSet
EndChar

StartChar: onequarter
Encoding: 188 188 126
Width: 854
VWidth: 1507
Flags: W
HStem: -5 21G<693.158 706> 96 46<567 710 770 826.476> 671 45<304.968 357>
LayerCount: 2
Fore
SplineSet
341 671 m 2
 317 671 303 683 303 706 c 0
 303 709 304 713 304 716 c 1
 389 716 l 2
 402 716 414 708 414 696 c 0
 414 694 414 692 413 690 c 1
 342 360 l 2
 336 326 315 309 280 309 c 1
 357 671 l 1
 341 671 l 2
801 406 m 0
 807 406 822 403 822 388 c 0
 822 387 821 385 821 383 c 1
 770 142 l 1
 835 142 l 1
 829 111 813 96 788 96 c 2
 761 96 l 1
 749 36 l 2
 743 9 723 -5 689 -5 c 1
 710 96 l 1
 511 96 l 2
 501 96 490 100 490 114 c 0
 490 121 493 127 499 134 c 2
 781 398 l 2
 788 403 795 406 801 406 c 0
719 142 m 1
 758 320 l 1
 567 142 l 1
 719 142 l 1
733 722 m 2
 748 743 765 754 783 754 c 0
 792 754 801 751 811 746 c 1
 273 -6 l 2
 257 -28 241 -39 223 -39 c 0
 215 -39 205 -36 196 -30 c 1
 733 722 l 2
EndSplineSet
LCarets2: 2 0 0 
Ligature2: "'frac' Diagonal Fractions in Latin lookup 0 subtable" one fraction four
Ligature2: "'frac' Diagonal Fractions in Latin lookup 0 subtable" one slash four
EndChar

StartChar: onehalf
Encoding: 189 189 127
Width: 854
VWidth: 1507
Flags: W
HStem: 0 45<552 788> 363 44<644.596 778.944> 671 45<304.968 357>
VStem: 553 42<262.803 277.224 277.224 320.094> 801 49<250.186 341.435>
LayerCount: 2
Fore
SplineSet
341 671 m 2
 317 671 303 683 303 706 c 0
 303 709 304 713 304 716 c 1
 389 716 l 2
 402 716 414 708 414 696 c 0
 414 694 414 692 413 690 c 1
 342 360 l 2
 336 326 315 309 280 309 c 1
 357 671 l 1
 341 671 l 2
850 307 m 0
 850 151 604 175 552 45 c 1
 758 45 l 2
 779 45 790 35 790 15 c 0
 790 11 789 6 788 0 c 1
 514 0 l 2
 503 0 493 7 493 17 c 0
 493 22 508 130 663 188 c 0
 763 228 801 251 801 296 c 0
 801 321 779 363 716 363 c 0
 659 363 606 324 597 282 c 1
 597 275 595 277 595 258 c 1
 570 258 553 277 553 290 c 0
 553 318 625 407 725 407 c 0
 780 407 850 375 850 307 c 0
733 722 m 2
 748 743 765 754 783 754 c 0
 792 754 801 751 811 746 c 1
 273 -6 l 2
 257 -28 241 -39 223 -39 c 0
 215 -39 205 -36 196 -30 c 1
 733 722 l 2
EndSplineSet
LCarets2: 2 0 0 
Ligature2: "'frac' Diagonal Fractions in Latin lookup 0 subtable" one fraction two
Ligature2: "'frac' Diagonal Fractions in Latin lookup 0 subtable" one slash two
EndChar

StartChar: threequarters
Encoding: 190 190 128
Width: 854
VWidth: 1507
Flags: W
HStem: -5 21G<693.158 706> 96 46<567 710 770 826.476> 309 44<222.41 360.716> 509 44<318.704 386.721> 677 43<294.105 413.691>
VStem: 154 49<373.296 429.619> 220 46<595.063 629.413 608.954 649.559> 407 51<394.514 488.695> 425 51<595.878 663.791>
LayerCount: 2
Fore
SplineSet
801 406 m 0xfe
 807 406 822 403 822 388 c 0
 822 387 821 385 821 383 c 1
 770 142 l 1
 835 142 l 1
 829 111 813 96 788 96 c 2
 761 96 l 1
 749 36 l 2
 743 9 723 -5 689 -5 c 1
 710 96 l 1
 511 96 l 2
 501 96 490 100 490 114 c 0
 490 121 493 127 499 134 c 2
 781 398 l 2
 788 403 795 406 801 406 c 0xfe
719 142 m 1
 758 320 l 1
 567 142 l 1
 719 142 l 1
220 618 m 0
 220 646 271 720 368 720 c 0
 435 720 476 679 476 636 c 0xfe80
 476 613 466 566 410 534 c 1
 433 520 458 495 458 456 c 0
 458 382 384 309 280 309 c 256
 190 309 154 365 154 405 c 0
 154 425 162 455 213 455 c 1
 210 448 203 431 203 416 c 0
 203 378 241 353 289 353 c 0
 354 353 407 398 407 446 c 0xff
 407 482 370 509 323 509 c 0
 308 509 301 515 301 527 c 0
 301 542 319 553 333 553 c 0
 378 553 425 583 425 627 c 0xfe80
 425 657 394 677 359 677 c 0
 313 677 275 649 267 615 c 1
 267 610 266 606 266 603 c 0
 266 600 266 597 267 594 c 1
 263 594 260 593 257 593 c 0
 239 593 220 601 220 618 c 0
733 722 m 2
 748 743 765 754 783 754 c 0
 792 754 801 751 811 746 c 1
 273 -6 l 2
 257 -28 241 -39 223 -39 c 0
 215 -39 205 -36 196 -30 c 1
 733 722 l 2
EndSplineSet
LCarets2: 2 0 0 
Ligature2: "'frac' Diagonal Fractions in Latin lookup 0 subtable" three fraction four
Ligature2: "'frac' Diagonal Fractions in Latin lookup 0 subtable" three slash four
EndChar

StartChar: questiondown
Encoding: 191 191 129
Width: 503
VWidth: 1507
Flags: W
HStem: -214 51<143.488 309.732> 407 113<316.569 392.91>
VStem: 38 57<-116.032 28.5687> 297 115<426.569 499.611> 411 49<-59.9925 7.09301>
LayerCount: 2
Fore
SplineSet
211 -214 m 0xe8
 118 -214 38 -163 38 -60 c 0
 38 139 261 161 288 277 c 2
 294 309 l 2
 303 347 326 366 363 366 c 1
 345 277 l 2
 310 126 95 113 95 -48 c 0
 95 -109 137 -163 223 -163 c 0
 347 -163 411 -52 411 14 c 1
 437 14 460 -2 460 -27 c 0
 460 -66 383 -214 211 -214 c 0xe8
412 477 m 0xf0
 412 439 382 407 344 407 c 256
 315 407 297 428 297 453 c 0
 297 491 332 520 368 520 c 256
 395 520 412 503 412 477 c 0xf0
EndSplineSet
EndChar

StartChar: AE
Encoding: 198 198 135
Width: 908
VWidth: 1507
Flags: W
HStem: 0 54<601 889.463> 234 54<298 556> 332 54<633 915.094> 662 54<660 1018.03>
LayerCount: 2
Fore
SplineSet
613 716 m 1
 975 716 l 2
 1005 716 1021 703 1021 678 c 0
 1021 673 1020 668 1019 662 c 1
 660 662 l 1
 633 386 l 1
 930 386 l 1
 922 350 900 332 864 332 c 2
 629 332 l 1
 601 54 l 1
 904 54 l 1
 896 18 875 0 840 0 c 2
 532 0 l 1
 556 234 l 1
 250 234 l 1
 36 -9 l 1
 24 -3 17 7 17 21 c 0
 17 40 29 58 39 69 c 2
 613 716 l 1
298 288 m 1
 562 288 l 1
 600 657 l 1
 597 653 l 1
 591 623 l 1
 298 288 l 1
EndSplineSet
EndChar

StartChar: Eth
Encoding: 208 208 145
Width: 729
VWidth: 1507
Flags: W
HStem: 0 54<161 488.793> 333 51<81.899 160 232 389.142> 662 54<291 609.39>
VStem: 701 61<465.689 482 482 496.023 496.023 497.368 496.695 582.753>
LayerCount: 2
Fore
SplineSet
121 0 m 2
 101 0 95 14 95 23 c 0
 95 25 95 28 96 30 c 1
 160 333 l 1
 69 333 l 1
 77 367 98 384 133 384 c 2
 172 384 l 1
 235 686 l 2
 240 706 252 716 271 716 c 2
 523 716 l 2
 643 716 762 644 762 527 c 0
 762 513 760 498 757 482 c 2
 704 235 l 2
 671 89 506 0 372 0 c 2
 121 0 l 2
701 510 m 0
 701 601 615 662 512 662 c 2
 291 662 l 1
 232 384 l 1
 402 384 l 1
 394 350 373 333 339 333 c 2
 220 333 l 1
 161 54 l 1
 383 54 l 2
 497 54 625 133 645 235 c 2
 698 482 l 2
 700 492 701 501 701 510 c 0
EndSplineSet
EndChar

StartChar: multiply
Encoding: 215 215 152
Width: 602
VWidth: 1507
Flags: W
HStem: 96 404<504 591 591 591>
LayerCount: 2
Back
SplineSet
544 113 m 1
 514.667 89.6667 490.667 89.6667 472 113 c 2
 182 482 l 1
 211.333 505.333 235.667 505.333 255 482 c 2
 544 113 l 1
552 482 m 2
 580 505.333 604 505.333 624 482 c 1
 175 113 l 2
 147 89.6667 122.667 89.6667 102 113 c 1
 552 482 l 2
EndSplineSet
Fore
SplineSet
552 482 m 2
 566 494 579 500 591 500 c 0
 603 500 614 494 624 482 c 1
 400 298 l 1
 544 113 l 1
 529 101 516 96 504 96 c 0
 492 96 481 101 472 113 c 2
 355 261 l 1
 175 113 l 2
 161 101 148 96 136 96 c 0
 124 96 112 101 102 113 c 1
 327 298 l 1
 182 482 l 1
 197 494 210 500 222 500 c 0
 234 500 245 494 255 482 c 2
 371 334 l 1
 552 482 l 2
EndSplineSet
EndChar

StartChar: Thorn
Encoding: 222 222 159
Width: 595
VWidth: 1507
Flags: W
HStem: -9 21G<91.273 109> 175 51<218.171 422.921> 549 49<320.006 506.547> 704 20G<281.5 298.588>
VStem: 568 61<352.793 496.823>
LayerCount: 2
Fore
SplineSet
402 598 m 0
 592 598 629 505 629 442 c 0
 629 330 523 175 285 175 c 0
 217 175 206 177 187 181 c 1
 160 50 l 2
 151 19 131 -9 87 -9 c 1
 231 665 l 2
 237 694 260 724 303 724 c 1
 273 588 l 1
 310 596 349 598 402 598 c 0
298 226 m 0
 511 226 568 350 568 433 c 0
 568 480 543 549 392 549 c 0
 347 549 293 544 262 535 c 1
 199 235 l 1
 231 228 262 226 298 226 c 0
EndSplineSet
EndChar

StartChar: uni00DF
Encoding: 223 223 160
Width: 559
VWidth: 1507
Flags: W
HStem: -9 48<269.247 389.427> 360 48<329 414.73> 677 48<331.961 472.409>
VStem: 472 60<148.113 315.053> 498 62<523.118 651.166>
LayerCount: 2
Fore
SplineSet
498 586 m 0xe8
 498 659 453 677 401 677 c 0
 313 677 275 597 262 538 c 2
 131 -78 l 2
 123 -119 99 -139 60 -139 c 1
 203 534 l 2
 210 567 247 725 422 725 c 0
 506 725 560 670 560 589 c 0xe8
 560 540 540 448 431 393 c 1
 511 366 532 309 532 254 c 0
 532 188 487 -9 309 -9 c 0
 277 -9 240 -3 240 24 c 0
 240 34 245 45 255 59 c 1
 272 49 297 39 324 39 c 0
 442 39 472 193 472 248 c 0xf0
 472 315 431 360 318 360 c 1
 329 408 l 1
 457 414 483 493 494 547 c 0
 497 561 498 574 498 586 c 0xe8
EndSplineSet
EndChar

StartChar: ae
Encoding: 230 230 167
Width: 895
VWidth: 1507
Flags: W
HStem: -9 50<187.106 361.146 543.322 711.572> 267 50<227.983 469 534 832> 470 50<279.469 444.872 627.131 796.651>
VStem: 88 56<80.7181 193.996> 842 55<334.438 357.5 357.5 363 360.25 428.354>
LayerCount: 2
Fore
SplineSet
88 123 m 0
 88 229 203 317 330 317 c 2
 479 317 l 1
 487 350 l 2
 488 357 489 364 489 371 c 0
 489 418 449 470 363 470 c 0
 289 470 223 418 188 372 c 1
 185 374 172 387 172 409 c 0
 172 451 269 520 374 520 c 0
 448 520 507 484 534 434 c 1
 575 481 643 520 727 520 c 0
 825 520 897 459 897 378 c 0
 897 368 896 358 894 348 c 2
 882 294 l 2
 877 274 859 267 849 267 c 2
 523 267 l 1
 500 161 l 2
 498 154 498 146 498 139 c 0
 498 100 530 41 624 41 c 0
 715 41 786 102 799 163 c 1
 817 163 835 143 835 126 c 0
 835 94 750 -9 613 -9 c 0
 523 -9 476 37 457 77 c 1
 406 19 325 -9 261 -9 c 0
 152 -9 88 52 88 123 c 0
144 132 m 0
 144 96 175 41 271 41 c 0
 365 41 436 103 446 161 c 2
 469 267 l 1
 319 267 l 2
 218 267 144 202 144 132 c 0
842 367 m 0
 842 429 791 470 716 470 c 256
 625 470 554 409 541 348 c 2
 534 317 l 1
 832 317 l 1
 840 348 l 2
 841 354 842 361 842 367 c 0
EndSplineSet
EndChar

StartChar: eth
Encoding: 240 240 177
Width: 630
VWidth: 1507
Flags: W
HStem: -9 48<233.439 415.96> 472 48<319.859 476.851>
VStem: 104 57<112.999 294.409> 573 64<228.729 429.476>
LayerCount: 2
Fore
SplineSet
425 520 m 0
 499 520 563 485 600 427 c 1
 601 431 l 1
 596 443 587 456 574 469 c 1
 546 533 506 586 455 629 c 1
 276 553 l 1
 274 559 274 565 274 571 c 0
 274 593 287 610 314 621 c 2
 410 662 l 1
 394 673 377 682 360 692 c 2
 307 717 l 1
 339 764 l 1
 387 743 435 718 475 689 c 1
 629 754 l 1
 630 748 631 743 631 737 c 0
 631 714 617 697 589 686 c 2
 515 654 l 1
 575 597 637 499 637 368 c 0
 637 157 497 -9 307 -9 c 0
 174 -9 104 78 104 184 c 0
 104 357 259 520 425 520 c 0
317 39 m 0
 486 39 573 200 573 328 c 0
 573 362 564 392 550 413 c 1
 491 472 441 472 415 472 c 0
 257 472 161 312 161 197 c 0
 161 104 224 39 317 39 c 0
EndSplineSet
EndChar

StartChar: divide
Encoding: 247 247 184
Width: 602
VWidth: 1507
Flags: W
HStem: 66 112<290.875 363.732> 271 55<117.461 608.968> 419 112<365.822 437.939>
VStem: 269 115<86.6795 155.955> 344 115<439.943 509.518>
CounterMasks: 1 e0
LayerCount: 2
Fore
SplineSet
102 271 m 1xe0
 108 303 131 326 167 326 c 2
 624 326 l 1
 619 293 595 271 559 271 c 2
 102 271 l 1xe0
344 465 m 0xe8
 344 494 376 531 413 531 c 256
 443 531 459 508 459 488 c 0
 459 457 430 419 390 419 c 256
 363 419 344 439 344 465 c 0xe8
269 108 m 0xf0
 269 144 304 178 339 178 c 256
 367 178 384 157 384 133 c 0
 384 102 353 66 315 66 c 256
 288 66 269 85 269 108 c 0xf0
EndSplineSet
EndChar

StartChar: oslash
Encoding: 248 248 185
Width: 649
VWidth: 1507
Flags: W
HStem: -9 50<286.572 429.641> 470 50<329.912 468.957>
VStem: 107 55<123.313 302.3> 593 55<208.047 389.023>
LayerCount: 2
Back
SplineSet
535 517 m 2
 558.333 549 584.333 557 613 541 c 1
 222 -6 l 2
 197.333 -38 171 -46 143 -30 c 1
 535 517 l 2
113 255 m 256
 121 291 135.333 325 156 357 c 128
 176.667 389 201.5 417.167 230.5 441.5 c 128
 259.5 465.833 291.667 485 327 499 c 128
 362.333 513 398 520 434 520 c 256
 470 520 502.667 513 532 499 c 128
 561.333 485 585.5 465.833 604.5 441.5 c 128
 623.5 417.167 636.5 389 643.5 357 c 128
 650.5 325 650 291 642 255 c 256
 634 218.333 619.667 184 599 152 c 128
 578.333 120 553.5 92 524.5 68 c 128
 495.5 44 463.333 25.1667 428 11.5 c 128
 392.667 -2.16667 357 -9 321 -9 c 256
 285 -9 252.333 -2.16667 223 11.5 c 128
 193.667 25.1667 169.5 44 150.5 68 c 128
 131.5 92 118.5 120 111.5 152 c 128
 104.5 184 105 218.333 113 255 c 256
167 255 m 256
 161 225 160.833 197.167 166.5 171.5 c 128
 172.167 145.833 182.333 123.167 197 103.5 c 128
 211.667 83.8333 230.5 68.5 253.5 57.5 c 128
 276.5 46.5 302.667 41 332 41 c 256
 360.667 41 389.167 46.5 417.5 57.5 c 128
 445.833 68.5 471.5 83.8333 494.5 103.5 c 128
 517.5 123.167 537.333 145.833 554 171.5 c 128
 570.667 197.167 582 225 588 255 c 256
 594 285 594.5 313 589.5 339 c 128
 584.5 365 574.5 387.833 559.5 407.5 c 128
 544.5 427.167 525.333 442.5 502 453.5 c 128
 478.667 464.5 452.667 470 424 470 c 256
 394.667 470 366.167 464.5 338.5 453.5 c 128
 310.833 442.5 285.167 427.167 261.5 407.5 c 128
 237.833 387.833 217.667 365 201 339 c 128
 184.333 313 173 285 167 255 c 256
EndSplineSet
Fore
SplineSet
424 470 m 0
 292 470 162 348 162 210 c 0
 162 161 181 111 221 78 c 1
 492 458 l 1
 472 466 449 470 424 470 c 0
107 198 m 0
 107 358 262 520 434 520 c 0
 467 520 498 514 524 502 c 1
 535 517 l 2
 551 538 567 549 585 549 c 0
 594 549 603 546 613 541 c 1
 568 477 l 1
 618 439 648 379 648 311 c 0
 648 151 494 -9 321 -9 c 0
 288 -9 258 -3 232 8 c 1
 222 -6 l 2
 206 -27 188 -38 170 -38 c 0
 161 -38 152 -35 143 -30 c 1
 188 32 l 1
 136 70 107 131 107 198 c 0
535 432 m 1
 264 53 l 1
 284 45 306 41 332 41 c 0
 465 41 593 163 593 302 c 0
 593 358 571 403 535 432 c 1
EndSplineSet
EndChar

StartChar: thorn
Encoding: 254 254 191
Width: 587
VWidth: 1507
Flags: W
HStem: -214 21G<48.2486 62.5> -9 50<235.533 391.202> 470 50<303.577 473.597> 705 20G<279.5 293.731>
VStem: 517 54<334.037 350 350 361.023 361.023 362.331 361.677 428.411>
LayerCount: 2
Fore
SplineSet
520 372 m 0
 520 411 487 470 393 470 c 0
 307 470 229 412 219 350 c 2
 178 163 l 2
 176 156 176 149 176 142 c 0
 176 81 230 41 301 41 c 256
 393 41 466 104 476 163 c 2
 517 350 l 2
 519 358 520 365 520 372 c 0
291 -9 m 0
 271 -9 181 -7 140 65 c 1
 137 60 l 1
 141 52 146 45 152 39 c 1
 109 -166 l 2
 102 -198 81 -214 44 -214 c 1
 232 671 l 2
 239 707 261 725 298 725 c 1
 244 472 l 1
 233 466 233 461 220 451 c 1
 220 446 l 1
 262 488 326 520 404 520 c 0
 513 520 575 450 575 381 c 0
 575 371 573 361 571 350 c 2
 531 163 l 2
 510 67 402 -9 291 -9 c 0
EndSplineSet
EndChar

StartChar: Lslash
Encoding: 321 321 193
Width: 624
VWidth: 1507
Flags: W
HStem: 0 54<161 593.389> 705 20G<284 299.728>
LayerCount: 2
Fore
SplineSet
121 0 m 2
 101 0 95 14 95 23 c 0
 95 25 95 28 96 30 c 1
 154 301 l 1
 63 250 l 1
 60 258 58 265 58 272 c 0
 58 290 70 306 93 320 c 2
 167 362 l 1
 231 665 l 2
 240 705 264 725 304 725 c 1
 235 402 l 1
 430 514 l 1
 434 506 435 498 435 491 c 0
 435 473 423 458 401 445 c 2
 223 341 l 1
 161 54 l 1
 550 54 l 2
 580 54 596 42 596 17 c 0
 596 12 595 6 594 0 c 1
 121 0 l 2
EndSplineSet
EndChar

StartChar: lslash
Encoding: 322 322 194
Width: 241
VWidth: 1507
Flags: MW
HStem: -9 21G<91.3226 107.5> 705 20G<284 299.741>
LayerCount: 2
Fore
SplineSet
235 401 m 1
 326 454 l 1
 330 446 331 438 331 430 c 0
 331 412 320 397 298 384 c 2
 223 341 l 1
 161 51 l 2
 152 11 128 -9 87 -9 c 1
 154 301 l 1
 63 250 l 1
 60 258 58 265 58 272 c 0
 58 290 70 306 93 320 c 2
 167 362 l 1
 231 665 l 2
 240 705 264 725 304 725 c 1
 235 401 l 1
EndSplineSet
EndChar

StartChar: OE
Encoding: 338 338 195
Width: 1204
VWidth: 1507
Flags: W
HStem: -9 54<268.215 474.147 773.348 943.008> 332 54<722 1005.09> 671 54<392.094 598.994 897.057 1104.72>
VStem: 117 62<125.093 211.305 210.632 211.977 211.977 226 226 241.991> 1192 62<488.543 592.254>
LayerCount: 2
Fore
SplineSet
1192 522 m 0
 1192 612 1107 671 1004 671 c 256
 898 671 766 603 745 491 c 2
 722 386 l 1
 1020 386 l 1
 1012 350 990 332 954 332 c 2
 710 332 l 1
 687 226 l 2
 685 216 684 207 684 198 c 0
 684 123 749 45 871 45 c 256
 995 45 1117 127 1136 242 c 2
 1138 256 l 1
 1160 256 1187 243 1187 217 c 0
 1187 174 1122 48 955 4 c 0
 922 -5 890 -9 859 -9 c 0
 767 -9 669 33 635 118 c 1
 575 44 461 -9 354 -9 c 0
 230 -9 117 67 117 181 c 0
 117 195 119 210 122 226 c 2
 179 491 l 2
 208 634 376 725 511 725 c 0
 564 725 692 710 737 597 c 1
 796 670 913 725 1016 725 c 0
 1151 725 1252 652 1254 535 c 0
 1254 468 1197 461 1182 461 c 1
 1184 466 1185 470 1186 472 c 1
 1189 491 l 2
 1191 502 1192 512 1192 522 c 0
179 198 m 0
 179 112 257 45 366 45 c 256
 505 45 611 142 627 226 c 2
 684 491 l 2
 686 502 687 512 687 522 c 0
 687 612 602 671 499 671 c 256
 393 671 261 603 240 491 c 2
 182 226 l 2
 180 216 179 207 179 198 c 0
EndSplineSet
EndChar

StartChar: oe
Encoding: 339 339 196
Width: 910
VWidth: 1507
Flags: W
HStem: -9 50<204.689 376.185 557.958 728.811> 267 50<549 847> 470 50<289.636 459.72 641.886 811.651>
VStem: 105 55<84.1665 149.945 149.914 149.977 149.977 161 161 177.363> 857 55<334.438 357.5 357.5 363 360.25 428.354>
LayerCount: 2
Fore
SplineSet
742 520 m 0
 840 520 912 459 912 378 c 0
 912 368 911 358 909 348 c 2
 897 294 l 2
 892 274 874 267 864 267 c 2
 538 267 l 1
 515 161 l 2
 513 154 513 146 513 139 c 0
 513 100 545 41 639 41 c 0
 731 41 801 102 814 163 c 1
 831 163 850 145 850 126 c 0
 850 92 762 -9 629 -9 c 0
 537 -9 488 36 469 77 c 1
 427 30 359 -9 276 -9 c 0
 181 -9 105 46 105 128 c 0
 105 139 106 150 109 161 c 2
 149 348 l 2
 169 436 269 520 389 520 c 0
 480 520 528 475 547 434 c 1
 589 481 658 520 742 520 c 0
504 367 m 0
 504 429 453 470 378 470 c 256
 289 470 216 409 203 348 c 2
 163 161 l 2
 161 153 160 146 160 139 c 0
 160 92 201 41 286 41 c 0
 373 41 451 99 461 161 c 2
 502 348 l 2
 503 354 504 361 504 367 c 0
857 367 m 0
 857 429 806 470 731 470 c 256
 640 470 569 409 556 348 c 2
 549 317 l 1
 847 317 l 1
 855 348 l 2
 856 354 857 361 857 367 c 0
EndSplineSet
EndChar

StartChar: florin
Encoding: 402 402 202
Width: 575
VWidth: 1507
Flags: W
HStem: -86 48<30.6 149.189> 387 49<220.604 321 395 539.133> 677 50<521.042 647.966>
LayerCount: 2
Fore
SplineSet
610 727 m 0
 663 727 680 704 680 689 c 0
 680 679 675 669 666 657 c 1
 648 668 618 677 592 677 c 0
 520 677 448 615 411 487 c 2
 395 436 l 1
 552 436 l 1
 546 408 525 387 493 387 c 2
 380 387 l 1
 294 126 281 58 214 -20 c 0
 177 -64 128 -86 69 -86 c 0
 20 -86 8 -65 8 -51 c 0
 8 -43 12 -33 20 -21 c 1
 36 -32 50 -38 86 -38 c 0
 148 -38 199 13 240 133 c 2
 321 387 l 1
 208 387 l 1
 214 415 234 436 267 436 c 2
 338 436 l 1
 343 457 349 467 354 488 c 0
 391 599 466 727 610 727 c 0
EndSplineSet
EndChar

StartChar: circumflex
Encoding: 710 710 203
Width: 461
VWidth: 1507
Flags: W
HStem: 565 155
VStem: 206 293<577 577 577 577>
LayerCount: 2
Fore
SplineSet
383 720 m 0
 391 720 396 718 399 713 c 2
 499 577 l 1
 487 569 474 565 462 565 c 0
 448 565 438 569 431 577 c 2
 371 660 l 1
 274 577 l 2
 264 569 252 565 240 565 c 0
 226 565 215 569 206 577 c 1
 363 713 l 2
 370 718 377 720 383 720 c 0
EndSplineSet
EndChar

StartChar: breve
Encoding: 728 728 205
Width: 452
VWidth: 1507
Flags: W
HStem: 562 51<290.647 427.953> 705 20G<257.5 266 486 504.5>
VStem: 206 58<640.157 713.492>
LayerCount: 2
Fore
SplineSet
535 694 m 0
 535 648 451 562 345 562 c 0
 281 562 206 603 206 670 c 0
 206 716 248 725 267 725 c 1
 265 715 264 705 264 696 c 0
 264 665 282 613 356 613 c 256
 424 613 479 663 493 725 c 1
 516 725 535 713 535 694 c 0
EndSplineSet
EndChar

StartChar: dotaccent
Encoding: 729 729 206
Width: 238
VWidth: 1507
Flags: W
HStem: 642 109<230.479 303.389>
VStem: 211 111<660.642 732.25>
LayerCount: 2
Fore
SplineSet
211 684 m 0
 211 714 238 751 277 751 c 256
 313 751 322 720 322 708 c 0
 322 677 295 642 255 642 c 256
 224 642 211 663 211 684 c 0
EndSplineSet
EndChar

StartChar: ring
Encoding: 730 730 207
Width: 419
VWidth: 1507
Flags: W
HStem: 595 37<299.994 396.637> 757 36<316.409 410.979>
VStem: 253 38<641.266 731.618> 420 37<655.91 736.845>
LayerCount: 2
Fore
SplineSet
253 675 m 0
 253 729 304 793 377 793 c 0
 442 793 457 740 457 715 c 0
 457 662 411 595 335 595 c 0
 283 595 253 630 253 675 c 0
369 757 m 0
 320 757 291 711 291 684 c 0
 291 655 311 632 344 632 c 256
 389 632 420 670 420 707 c 0
 420 723 410 757 369 757 c 0
EndSplineSet
EndChar

StartChar: tilde
Encoding: 732 732 209
Width: 351
VWidth: 1507
Flags: W
HStem: 597 47<343.207 417.554> 668 46<209.331 284.988>
VStem: 154 43<607.04 656.835> 430 44<655.408 703.33>
LayerCount: 2
Fore
SplineSet
154 625 m 0
 154 645 184 714 252 714 c 256
 326 714 337 644 384 644 c 256
 402 644 430 669 430 698 c 0
 430 702 429 707 428 711 c 1
 435 713 442 714 447 714 c 0
 468 714 474 696 474 687 c 0
 474 668 444 597 375 597 c 0
 298 597 293 668 243 668 c 256
 225 668 197 644 197 614 c 0
 197 609 198 605 199 600 c 1
 191 597 185 596 179 596 c 0
 159 596 154 617 154 625 c 0
EndSplineSet
EndChar

StartChar: uni0E01
Encoding: 3585 3585 212
Width: 630
VWidth: 1507
Flags: W
HStem: -9 21G<157.5 176.3 483.3 496.5> 555 51<322.238 503.951>
VStem: 568 58<388.836 405 405 416.5 416.5 417.988 417.244 493.843>
LayerCount: 2
Fore
SplineSet
172 -9 m 1
 143 -9 126 12 126 38 c 0
 126 43 127 48 128 54 c 2
 152 167 l 2
 167 242 177 279 179 291 c 1
 176 294 144 398 144 398 c 1
 144 400 145 403 146 405 c 1
 170 527 315 606 428 606 c 0
 524 606 630 550 630 443 c 0
 630 431 629 418 626 405 c 2
 550 54 l 2
 543 21 514 -9 479 -9 c 1
 568 405 l 2
 570 413 570 420 570 428 c 0
 570 481 524 555 418 555 c 0
 329 555 228 497 205 413 c 1
 207 403 230 332 237 312 c 0
 238 309 238 304 238 298 c 1
 172 -9 l 1
EndSplineSet
EndChar

StartChar: uni0E02
Encoding: 3586 3586 213
Width: 604
VWidth: 1507
Flags: W
HStem: -9 51<298.851 432.43> 312 45<179.098 261.024> 454 39<190.855 272.679> 555 51<245.963 375.941>
VStem: 122 54<368.108 463.416> 218 59<64.0086 126.002 125.977 126.027 126.027 137 137 153.917> 276 46<371.235 449.744> 408 59<395.544 524.11>
LayerCount: 2
Fore
SplineSet
277 115 m 0xfd
 277 71 312 42 360 42 c 256
 415 42 473 77 485 137 c 2
 571 541 l 2
 578 573 607 604 642 604 c 1
 543 137 l 2
 522 50 437 -9 350 -9 c 256
 262 -9 218 49 218 105 c 0xfd
 218 115 219 126 222 137 c 2
 228 166 l 2
 237 208 253 256 354 357 c 0
 388 390 408 425 408 463 c 0
 408 509 375 555 320 555 c 0
 263 555 219 521 194 484 c 1
 181 474 172 464 166 454 c 1
 167 449 l 1
 182 476 217 493 244 493 c 0
 291 493 322 463 322 423 c 0xfb
 322 369 268 312 205 312 c 0
 138 312 122 369 122 406 c 0
 122 504 221 606 330 606 c 256
 408 606 467 552 467 472 c 0
 467 346 323 313 285 166 c 2
 279 137 l 2
 277 129 277 122 277 115 c 0xfd
235 454 m 256
 196 454 176 419 176 392 c 0
 176 378 184 357 216 357 c 256
 251 357 276 386 276 418 c 0xfb
 276 439 259 454 235 454 c 256
EndSplineSet
EndChar

StartChar: uni0E03
Encoding: 3587 3587 214
Width: 604
VWidth: 1507
Flags: W
HStem: -9 51<298.851 432.43> 312 45<179.098 261.024> 454 39<190.855 272.679> 586 20G<239.5 295 370 403 624.5 637.76>
VStem: 122 54<368.108 464.453> 218 59<64.0086 135.782> 276 46<371.235 449.744> 410 58<399.887 530.598>
LayerCount: 2
Fore
SplineSet
235 454 m 256xfb
 196 454 176 419 176 392 c 0
 176 378 184 357 216 357 c 256
 251 357 276 386 276 418 c 0
 276 439 259 454 235 454 c 256xfb
167 449 m 1
 182 476 217 493 244 493 c 0
 291 493 322 463 322 423 c 0xfb
 322 369 268 312 205 312 c 0
 138 312 122 369 122 406 c 0
 122 480 194 606 285 606 c 0
 305 606 313 586 326 571 c 1
 352 589 359 606 381 606 c 0
 425 606 468 569 468 490 c 0
 468 372 403 359 324 250 c 0
 306 225 293 197 285 166 c 2
 279 137 l 2
 277 129 277 122 277 115 c 0
 277 71 312 42 360 42 c 256
 415 42 473 77 485 137 c 2
 571 541 l 2
 578 573 607 604 642 604 c 1
 543 137 l 2
 522 50 437 -9 350 -9 c 256
 262 -9 218 49 218 105 c 0xfd
 218 115 219 126 222 137 c 2
 228 166 l 2
 237 208 253 256 354 357 c 0
 393 395 410 430 410 474 c 0
 410 507 403 546 381 556 c 1
 334 523 332 512 312 512 c 0
 305 512 300 511 264 556 c 1
 247 550 217 530 193 482 c 1
 181 473 172 464 166 454 c 1
 167 449 l 1
EndSplineSet
EndChar

StartChar: uni0E04
Encoding: 3588 3588 215
Width: 660
VWidth: 1507
Flags: W
HStem: -9 21G<130.5 156.812 513.299 527> 262 45<359.843 439.459> 404 45<368.529 451.417> 555 51<350.152 534.747>
VStem: 455 46<321.875 391.191> 598 58<388.836 405 405 416.5 416.5 419.512 418.006 493.09>
LayerCount: 2
Fore
SplineSet
145 -9 m 1
 116 -9 99 12 99 38 c 0
 99 43 100 48 101 54 c 2
 176 405 l 2
 199 521 338 606 458 606 c 0
 565 606 660 540 660 441 c 0
 660 430 658 418 656 405 c 2
 580 54 l 2
 573 20 545 -9 509 -9 c 1
 598 405 l 2
 600 413 600 420 600 428 c 0
 600 479 557 555 448 555 c 256
 334 555 248 472 234 405 c 2
 179 151 l 1
 157 110 l 1
 157 106 l 1
 327 392 l 2
 345 426 383 449 425 449 c 0
 472 449 501 415 501 374 c 0
 501 315 441 262 384 262 c 0
 344 262 323 281 320 320 c 1
 317 315 l 1
 317 297 318 293 321 289 c 1
 145 -9 l 1
415 404 m 256
 382 404 356 380 356 345 c 0
 356 322 372 307 395 307 c 256
 430 307 455 338 455 365 c 0
 455 381 447 404 415 404 c 256
EndSplineSet
EndChar

StartChar: uni0E05
Encoding: 3589 3589 216
Width: 660
VWidth: 1507
Flags: W
HStem: -9 21G<130.5 157.14 513.289 527> 249 45<356.088 436.616> 390 46<367.899 448.953> 586 20G<341.5 377 540 574.5>
VStem: 452 46<308.218 378.195> 607 59<417.78 434 434 447.546 447.546 447.547 447.546 524.295>
LayerCount: 2
Fore
SplineSet
413 390 m 256
 377 390 353 359 353 331 c 0
 353 316 361 294 392 294 c 256
 428 294 452 325 452 353 c 0
 452 368 444 390 413 390 c 256
546 606 m 0
 603 606 666 551 666 473 c 0
 666 461 665 448 662 434 c 2
 580 54 l 2
 573 20 545 -9 509 -9 c 1
 604 434 l 2
 606 444 607 453 607 461 c 0
 607 506 581 544 544 553 c 1
 525 542 451 484 432 484 c 0
 414 484 360 546 351 553 c 1
 307 543 249 495 240 434 c 2
 179 151 l 1
 157 110 l 1
 157 106 l 1
 324 378 l 2
 346 412 383 436 422 436 c 0
 470 436 498 402 498 361 c 0
 498 301 442 249 383 249 c 0
 343 249 321 269 317 306 c 1
 314 301 l 1
 314 284 315 280 318 276 c 1
 145 -9 l 1
 116 -9 99 12 99 38 c 0
 99 43 100 48 101 54 c 2
 182 434 l 2
 207 549 312 606 371 606 c 0
 383 606 445 544 445 544 c 1
 445 544 534 606 546 606 c 0
EndSplineSet
EndChar

StartChar: uni0E06
Encoding: 3590 3590 217
Width: 691
VWidth: 1507
Flags: W
HStem: -9 45<125.586 208.169> 139 45<138.789 215.118> 312 45<179.098 261.024> 454 39<190.855 272.679> 586 20G<239.5 295 370 403 712 725.709>
VStem: 74 47<41.046 121.137> 122 54<368.108 464.453> 276 46<371.235 449.744> 410 58<401.441 530.598>
LayerCount: 2
Fore
SplineSet
193 184 m 0
 200 184 220 181 229 175 c 1
 268 322 410 355 410 474 c 0
 410 507 403 546 381 556 c 1
 330 520 333 512 311 512 c 0
 304 512 298 513 264 556 c 1
 247 550 217 530 193 482 c 1
 181 473 172 464 166 454 c 1
 167 449 l 1
 182 476 217 493 244 493 c 0
 291 493 322 463 322 423 c 0
 322 369 268 312 205 312 c 0
 138 312 122 369 122 406 c 0
 122 480 194 606 285 606 c 0
 305 606 313 586 326 571 c 1
 352 589 359 606 381 606 c 0
 425 606 468 569 468 490 c 0
 468 373 404 358 324 252 c 0
 287 204 283 158 283 155 c 1
 555 51 l 1
 659 541 l 2
 667 574 694 604 730 604 c 1
 612 54 l 2
 605 21 576 -9 541 -9 c 1
 271 95 l 1
 264 37 207 -9 152 -9 c 0
 105 -9 74 24 74 65 c 0
 74 128 129 184 193 184 c 0
235 454 m 256
 196 454 176 419 176 392 c 0
 176 378 184 357 216 357 c 256
 251 357 276 386 276 418 c 0
 276 439 259 454 235 454 c 256
184 139 m 256
 151 139 121 108 121 77 c 0
 121 54 138 36 163 36 c 256
 193 36 226 64 226 98 c 0
 226 120 209 139 184 139 c 256
EndSplineSet
EndChar

StartChar: uni0E07
Encoding: 3591 3591 218
Width: 545
VWidth: 1507
Flags: W
HStem: -9 21G<381.253 412.5> 421 43<424.845 504.973> 561 45<436.163 516.048>
VStem: 375 46<467.655 546.362> 515 51<495.479 548.98>
LayerCount: 2
Fore
SplineSet
375 491 m 0
 375 555 430 606 490 606 c 256
 539 606 566 571 566 531 c 0
 566 525 565 519 564 512 c 2
 466 54 l 2
 459 21 430 -9 395 -9 c 1
 140 362 l 2
 134 370 130 379 130 390 c 0
 130 410 141 427 157 440 c 1
 425 51 l 1
 427 56 l 1
 413 77 l 1
 431 163 453 270 458 291 c 2
 487 421 l 1
 499 427 508 435 515 445 c 1
 515 449 l 1
 499 430 478 421 451 421 c 0
 405 421 375 450 375 491 c 0
421 502 m 0
 421 483 435 464 460 464 c 0
 493 464 520 494 520 523 c 0
 520 538 512 561 481 561 c 0
 445 561 421 529 421 502 c 0
EndSplineSet
EndChar

StartChar: uni0E08
Encoding: 3592 3592 219
Width: 587
VWidth: 1507
Flags: W
HStem: -9 21G<434.347 455> 264 45<300.047 367.764> 405 46<311.941 392.756> 555 51<288.969 467.319>
VStem: 124 48<383.328 447.743> 251 46<321.104 390.617> 526 57<388.821 405 405 417.988 417.988 418.5 418.244 497.26>
LayerCount: 2
Fore
SplineSet
357 405 m 256
 321 405 297 374 297 346 c 0
 297 331 305 309 336 309 c 256
 372 309 396 340 396 368 c 0
 396 383 388 405 357 405 c 256
393 606 m 0
 507 606 587 535 587 443 c 0
 587 431 586 418 583 405 c 2
 508 54 l 2
 501 25 473 -9 437 -9 c 1
 398 285 l 1
 405 292 410 300 415 311 c 1
 415 315 l 1
 390 269 347 264 327 264 c 0
 279 264 251 297 251 339 c 0
 251 396 305 451 366 451 c 0
 414 451 438 418 442 384 c 2
 476 101 l 1
 478 106 l 1
 473 160 l 1
 526 405 l 2
 528 414 529 423 529 432 c 0
 529 506 464 555 383 555 c 256
 268 555 172 463 172 377 c 1
 147 377 124 393 124 417 c 0
 124 462 219 606 393 606 c 0
EndSplineSet
EndChar

StartChar: uni0E09
Encoding: 3593 3593 220
Width: 625
VWidth: 1507
Flags: W
HStem: -9 45<454.562 536.832> 185 46<165.854 247.515> 327 45<178.384 258.953> 555 51<295.258 476.353>
VStem: 117 46<243.205 312.782> 258 50<262.164 315.373> 402 48<40.4316 76.5453> 543 60<409.029 492.78> 554 47<52.9417 134.22>
LayerCount: 2
Fore
SplineSet
244 -9 m 1xfe80
 216 -9 198 14 198 39 c 0
 198 44 199 49 200 54 c 2
 229 185 l 1
 242 192 252 201 258 210 c 1
 258 214 l 1
 242 195 221 185 193 185 c 0
 144 185 117 221 117 260 c 0
 117 320 173 372 232 372 c 256
 280 372 308 339 308 299 c 0
 308 293 307 286 306 279 c 2
 258 54 l 1
 446 157 l 2
 483 178 497 205 500 219 c 2
 541 405 l 2
 543 413 543 420 543 428 c 0
 543 479 499 555 390 555 c 256
 273 555 189 468 176 405 c 1
 173 405 l 0
 148 405 133 417 133 441 c 0
 133 486 249 606 401 606 c 0
 514 606 603 534 603 444 c 0
 603 431 601 419 598 405 c 2
 558 219 l 2
 555 204 550 192 543 181 c 1xff
 583 170 601 138 601 109 c 0
 601 49 543 -9 481 -9 c 0
 431 -9 402 26 402 69 c 2
 402 77 l 1
 244 -9 l 1xfe80
223 327 m 256
 187 327 163 296 163 268 c 0
 163 253 171 231 202 231 c 256
 238 231 262 262 262 290 c 0
 262 305 254 327 223 327 c 256
512 139 m 256
 478 139 450 108 450 75 c 0
 450 52 468 36 491 36 c 256
 522 36 554 64 554 99 c 0xfe80
 554 122 538 139 512 139 c 256
EndSplineSet
EndChar

StartChar: uni0E0A
Encoding: 3594 3594 221
Width: 604
VWidth: 1507
Flags: W
HStem: -9 51<298.851 432.43> 312 45<179.098 261.024> 454 39<190.855 272.679> 555 51<245.963 375.941>
VStem: 122 54<368.108 463.416> 218 59<64.0086 126.002 125.977 126.027 126.027 137 137 153.917> 276 46<371.235 449.744> 408 59<395.544 524.11> 533 56<344.202 430.001> 616 47<572.536 617.698>
LayerCount: 2
Fore
SplineSet
350 -9 m 256xfdc0
 262 -9 218 49 218 105 c 0xfdc0
 218 115 219 126 222 137 c 2
 228 166 l 2
 237 208 253 256 354 357 c 0
 388 390 408 425 408 463 c 0
 408 509 375 555 320 555 c 0
 263 555 219 521 194 484 c 1
 181 474 172 464 166 454 c 1
 167 449 l 1
 182 476 217 493 244 493 c 0
 291 493 322 463 322 423 c 0xfbc0
 322 369 268 312 205 312 c 0
 138 312 122 369 122 406 c 0
 122 504 221 606 330 606 c 256
 408 606 467 552 467 472 c 0
 467 346 323 313 285 166 c 2
 279 137 l 2
 277 129 277 122 277 115 c 0
 277 71 312 42 360 42 c 256
 415 42 473 77 485 137 c 2
 526 327 l 2
 531 350 533 369 533 383 c 0
 533 444 486 429 486 451 c 0
 486 488 523 461 576 524 c 0
 610 567 616 606 616 614 c 0
 616 617 615 620 615 624 c 1
 640 624 663 608 663 584 c 0
 663 555 615 478 562 457 c 1
 583 441 589 418 589 386 c 0
 589 368 587 349 583 327 c 2
 543 137 l 2
 522 50 437 -9 350 -9 c 256xfdc0
235 454 m 256
 196 454 176 419 176 392 c 0
 176 378 184 357 216 357 c 256
 251 357 276 386 276 418 c 0xfbc0
 276 439 259 454 235 454 c 256
EndSplineSet
EndChar

StartChar: uni0E0B
Encoding: 3595 3595 222
Width: 604
VWidth: 1507
Flags: W
HStem: -9 51<298.851 432.43> 312 45<179.098 261.024> 454 39<190.855 272.679> 586 20G<239.5 295 370 403>
VStem: 122 54<368.108 464.453> 218 59<64.0086 126.002 125.977 126.027 126.027 137 137 153.917> 276 46<371.235 449.744> 410 58<399.887 530.598> 533 56<344.202 430.001> 616 47<572.536 617.698>
LayerCount: 2
Fore
SplineSet
350 -9 m 256xfdc0
 262 -9 218 49 218 105 c 0xfdc0
 218 115 219 126 222 137 c 2
 228 166 l 2
 237 208 253 256 354 357 c 0
 393 395 410 430 410 474 c 0
 410 507 403 546 381 556 c 1
 330 520 333 512 311 512 c 0
 304 512 298 513 264 556 c 1
 247 550 217 530 193 482 c 1
 181 473 172 464 166 454 c 1
 167 449 l 1
 182 476 217 493 244 493 c 0
 291 493 322 463 322 423 c 0xfbc0
 322 369 268 312 205 312 c 0
 138 312 122 369 122 406 c 0
 122 480 194 606 285 606 c 0
 305 606 313 586 326 571 c 1
 352 589 359 606 381 606 c 0
 425 606 468 569 468 490 c 0
 468 372 403 359 324 250 c 0
 306 225 293 197 285 166 c 2
 279 137 l 2
 277 129 277 122 277 115 c 0
 277 71 312 42 360 42 c 256
 415 42 473 77 485 137 c 2
 526 327 l 2
 531 350 533 369 533 383 c 0
 533 444 486 429 486 451 c 0
 486 488 523 461 576 524 c 0
 610 567 616 606 616 614 c 0
 616 617 615 620 615 624 c 1
 640 624 663 608 663 584 c 0
 663 555 615 478 562 457 c 1
 583 441 589 418 589 386 c 0
 589 368 587 349 583 327 c 2
 543 137 l 2
 522 50 437 -9 350 -9 c 256xfdc0
235 454 m 256
 196 454 176 419 176 392 c 0
 176 378 184 357 216 357 c 256
 251 357 276 386 276 418 c 0xfbc0
 276 439 259 454 235 454 c 256
EndSplineSet
EndChar

StartChar: uni0E0C
Encoding: 3596 3596 223
Width: 908
VWidth: 1507
Flags: W
HStem: -9 45<181.41 264.209 417.333 499.448> 133 45<191.878 273.259 427.916 503.818> 555 51<322.238 503.951>
VStem: 132 46<49.0148 101.086> 277 47<48.2737 120.411> 367 47<39.8433 119.045> 570 60<406.406 493.843>
LayerCount: 2
Fore
SplineSet
520 169 m 1
 520 181 l 1
 568 405 l 2
 570 413 570 420 570 428 c 0
 570 481 524 555 418 555 c 0
 329 555 228 497 205 413 c 1
 207 403 230 332 237 312 c 0
 238 309 238 304 238 298 c 1
 213 178 l 1
 202 172 191 164 182 154 c 1
 184 149 l 1
 196 164 210 178 249 178 c 0
 294 178 324 148 324 107 c 0
 324 41 267 -9 208 -9 c 256
 160 -9 132 24 132 66 c 0
 132 72 133 78 134 84 c 2
 179 291 l 1
 176 294 144 398 144 398 c 1
 144 400 145 403 146 405 c 1
 170 527 315 606 428 606 c 0
 524 606 630 550 630 443 c 0
 630 431 629 418 626 405 c 2
 570 145 l 1
 772 50 l 1
 876 541 l 2
 884 574 911 604 947 604 c 1
 829 54 l 2
 822 21 793 -9 758 -9 c 1
 556 84 l 1
 546 31 495 -9 443 -9 c 256
 394 -9 367 26 367 65 c 0
 367 126 425 178 484 178 c 0
 491 178 496 178 520 169 c 1
473 133 m 256
 438 133 414 105 414 73 c 0
 414 51 430 36 454 36 c 256
 487 36 512 61 512 95 c 0
 512 110 504 133 473 133 c 256
277 95 m 0
 277 110 269 133 238 133 c 256
 203 133 178 103 178 75 c 0
 178 59 186 36 219 36 c 256
 252 36 277 61 277 95 c 0
EndSplineSet
EndChar

StartChar: uni0E0D
Encoding: 3597 3597 224
Width: 878
VWidth: 1507
Flags: W
HStem: -268 56<504.355 588.537 526.052 635.678> -210 37<503.36 556.765> -86 42<492.486 567.572> -9 57<561.152 708.419> -9 45<181.41 264.209> 133 45<191.878 273.259> 555 51<313.697 481.104>
VStem: 132 46<49.0148 101.086> 277 47<48.2737 120.411> 436 44<-160.96 -98.6893> 479 59<70.7899 125.238 122.477 128 128 153.172> 542 59<388.828 405 405 418.5 418.5 418.547 418.523 498.162> 570 42<-161.376 -88.9552> 705 49<-134.266 -50.0369>
LayerCount: 2
Fore
SplineSet
277 95 m 0xef84
 277 110 269 133 238 133 c 256
 203 133 178 103 178 75 c 0
 178 59 186 36 219 36 c 256
 252 36 277 61 277 95 c 0xef84
184 149 m 1
 196 164 210 178 249 178 c 0
 294 178 324 148 324 107 c 0
 324 41 267 -9 208 -9 c 256xefb4
 160 -9 132 24 132 66 c 0
 132 72 133 78 134 84 c 2
 179 291 l 1
 176 294 144 398 144 398 c 1
 144 400 145 403 146 405 c 1
 169 516 280 606 413 606 c 256
 546 606 601 520 601 444 c 0
 601 432 600 419 597 405 c 2
 540 137 l 2
 539 131 538 125 538 119 c 0
 538 91 558 48 630 48 c 0
 695 48 750 86 760 137 c 2
 846 541 l 2
 853 573 881 604 916 604 c 1
 817 137 l 2
 795 47 701 -9 618 -9 c 0
 542 -9 479 38 479 108 c 0
 479 117 480 127 482 137 c 2
 540 405 l 2
 542 414 542 423 542 432 c 0xf7b4
 542 506 478 555 402 555 c 0
 333 555 238 511 205 413 c 1
 207 403 230 332 237 312 c 0
 238 309 238 304 238 298 c 1
 213 178 l 1
 202 172 191 164 182 154 c 1
 184 149 l 1
534 -86 m 256
 506 -86 480 -112 480 -138 c 0
 480 -150 487 -173 515 -173 c 256
 547 -173 570 -146 570 -119 c 0xe7cc
 570 -99 554 -86 534 -86 c 256
612 -111 m 0
 612 -168 558 -210 509 -210 c 2
 508 -210 l 1
 503 -211 l 1
 509 -212 514 -212 519 -212 c 0
 526 -212 532 -212 538 -210 c 1xe7ac
 548 -215 559 -217 571 -217 c 0
 645 -217 705 -130 705 -55 c 2
 705 -45 l 1
 734 -45 754 -58 754 -84 c 0
 754 -135 686 -268 561 -268 c 0
 495 -268 436 -223 436 -156 c 0
 436 -87 491 -44 543 -44 c 0
 586 -44 612 -78 612 -111 c 0
EndSplineSet
Substitution2: "Single Substitution lookup 22 subtable" uni0E0D.alt1
Substitution2: "Single Substitution lookup 22 subtable" uni0E0D.alt1
EndChar

StartChar: uni0E0E
Encoding: 3598 3598 225
AltUni2: 00f71b.ffffffff.0
Width: 658
VWidth: 1507
Flags: W
HStem: -271 45<163.232 243.509> -142 46<190.641 293.206> -9 45<110.138 190.772> 133 45<121.035 202.509> 555 51<380.162 531.982>
VStem: 60 46<48.9137 118.567> 108 54<-216.714 -155.689> 595 58<388.556 405 405 417 417 417.988 417.494 494.295>
LayerCount: 2
Fore
SplineSet
162 -198 m 0
 162 -209 169 -226 203 -226 c 0
 223 -226 250 -221 300 -169 c 1
 281 -153 258 -142 230 -142 c 0
 210 -142 162 -151 162 -198 c 0
166 133 m 256
 131 133 106 103 106 75 c 0
 106 59 114 36 146 36 c 256
 180 36 205 63 205 97 c 0
 205 112 197 133 166 133 c 256
60 63 m 0
 60 123 115 178 176 178 c 0
 203 178 221 168 229 149 c 1
 231 154 l 1
 228 164 222 172 213 178 c 1
 235 288 l 1
 227 298 223 311 202 342 c 2
 175 387 l 1
 174 392 173 397 173 401 c 0
 173 435 220 545 366 592 c 0
 396 601 426 606 455 606 c 0
 551 606 657 550 657 443 c 0
 657 431 656 418 653 405 c 2
 543 -113 l 2
 539 -128 531 -144 520 -152 c 2
 384 -265 l 2
 379 -270 374 -272 368 -272 c 0
 336 -272 356 -243 327 -199 c 1
 279 -247 232 -271 187 -271 c 0
 144 -271 108 -249 108 -206 c 0
 108 -150 158 -96 236 -96 c 0
 289 -96 324 -126 332 -131 c 1
 344 -114 365 -82 381 -56 c 1
 399 -63 402 -79 402 -88 c 0
 402 -113 380 -132 362 -160 c 1
 376 -180 384 -197 389 -214 c 1
 479 -140 l 1
 595 405 l 2
 597 413 598 421 598 429 c 0
 598 500 534 555 445 555 c 0
 339 555 250 480 232 413 c 1
 238 402 250 380 264 359 c 2
 291 315 l 2
 293 311 294 306 294 301 c 2
 294 297 l 1
 249 84 l 2
 238 33 190 -9 136 -9 c 256
 87 -9 60 25 60 63 c 0
EndSplineSet
Substitution2: "Single Substitution lookup 22 subtable" uni0E0E.alt1
Substitution2: "Single Substitution lookup 22 subtable" uni0E0E.alt1
EndChar

StartChar: uni0E0F
Encoding: 3599 3599 226
AltUni2: 00f71c.ffffffff.0
Width: 657
VWidth: 1507
Flags: W
HStem: -271 45<64.9946 145.509> -142 46<92.4213 195.206> -9 45<110.138 190.772> 133 45<121.035 202.509> 555 51<347.919 531.982>
VStem: 10 54<-217.089 -156.091> 60 46<48.9137 118.567> 595 58<388.57 405 405 417 417 417.988 417.494 494.295>
LayerCount: 2
Fore
SplineSet
60 63 m 0xfb
 60 123 115 178 176 178 c 0
 203 178 221 168 229 149 c 1
 231 154 l 1
 228 164 222 172 213 178 c 1
 235 288 l 1
 227 298 223 311 202 342 c 2
 175 387 l 1
 174 392 173 397 173 401 c 0
 173 469 290 606 455 606 c 0
 551 606 657 550 657 443 c 0
 657 431 656 418 653 405 c 2
 532 -163 l 1
 521 -188 517 -192 511 -196 c 2
 427 -265 l 2
 422 -270 416 -273 409 -273 c 0
 402 -273 398 -270 395 -265 c 2
 353 -211 l 1
 286 -265 l 2
 281 -270 276 -272 270 -272 c 0
 237 -272 261 -244 229 -199 c 1
 181 -247 134 -271 89 -271 c 0
 44 -271 10 -249 10 -204 c 0xfd
 10 -149 61 -96 138 -96 c 0
 191 -96 226 -126 234 -131 c 1
 281 -66 275 -67 283 -56 c 1
 301 -63 304 -79 304 -88 c 0
 304 -113 282 -132 264 -160 c 1
 278 -180 288 -197 294 -217 c 1
 350 -170 l 2
 357 -165 363 -162 368 -162 c 0
 373 -162 378 -165 381 -170 c 1
 422 -220 l 1
 470 -182 l 1
 595 405 l 2
 597 413 598 421 598 429 c 0
 598 500 534 555 445 555 c 0
 339 555 250 480 232 413 c 1
 238 402 250 380 264 359 c 2
 291 315 l 2
 293 311 294 306 294 301 c 2
 294 297 l 1
 249 84 l 2
 238 33 190 -9 136 -9 c 256
 87 -9 60 25 60 63 c 0xfb
64 -196 m 0
 64 -208 69 -226 105 -226 c 0
 125 -226 152 -221 202 -169 c 1
 183 -153 160 -142 132 -142 c 0
 110 -142 64 -153 64 -196 c 0
166 133 m 256
 131 133 106 103 106 75 c 0xfb
 106 59 114 36 146 36 c 256
 180 36 205 63 205 97 c 0
 205 112 197 133 166 133 c 256
EndSplineSet
Substitution2: "Single Substitution lookup 22 subtable" uni0E0F.alt1
Substitution2: "Single Substitution lookup 22 subtable" uni0E0F.alt1
EndChar

StartChar: uni0E10
Encoding: 3600 3600 227
Width: 580
VWidth: 1507
Flags: W
HStem: -301 37<55.8767 137.714> -193 38<61.5882 149.498 326.073 385.34> -77 42<332.404 400.498> -9 21G<408.614 432.5> 119 45<249.381 314.811> 261 45<258.943 341.161> 555 51<300.053 464.44>
VStem: 16 39<-263.489 -200.33> 198 47<176.61 246.865> 281 44<-144.084 -84.9722> 404 41<-129.315 -84.9084> 570 70<496 563>
LayerCount: 2
Fore
SplineSet
250 -142 m 0
 250 -168 221 -202 216 -208 c 1
 226 -220 234 -236 241 -255 c 1
 283 -217 l 2
 287 -213 292 -211 298 -211 c 0
 302 -211 306 -213 311 -217 c 1
 339 -258 l 1
 375 -226 l 1
 381 -194 l 1
 390 -190 398 -185 404 -178 c 1
 404 -173 l 1
 389 -188 374 -194 347 -194 c 0
 308 -194 281 -167 281 -132 c 0
 281 -87 324 -35 381 -35 c 256
 430 -35 445 -71 445 -95 c 0
 445 -101 445 -108 443 -115 c 2
 424 -208 l 2
 421 -226 413 -233 394 -249 c 2
 342 -295 l 2
 337 -299 332 -301 327 -301 c 256
 322 -301 318 -299 315 -295 c 2
 283 -252 l 1
 234 -295 l 2
 229 -299 223 -301 217 -301 c 0
 196 -301 207 -272 187 -241 c 1
 166 -271 119 -301 74 -301 c 256
 37 -301 16 -274 16 -245 c 0
 16 -204 54 -155 110 -155 c 0
 146 -155 172 -164 193 -182 c 1
 211 -157 222 -136 232 -115 c 1
 240 -119 250 -126 250 -142 c 0
55 -237 m 0
 55 -253 66 -264 83 -264 c 0
 109 -264 137 -248 166 -216 c 1
 147 -198 132 -193 101 -193 c 0
 85 -193 55 -206 55 -237 c 0
372 -77 m 256
 348 -77 325 -96 325 -123 c 0
 325 -135 331 -152 356 -152 c 256
 380 -152 402 -133 402 -106 c 0
 402 -93 396 -77 372 -77 c 256
304 261 m 256
 274 261 245 237 245 204 c 0
 245 188 253 164 285 164 c 256
 322 164 344 194 344 226 c 0
 344 240 336 261 304 261 c 256
399 606 m 0
 495 606 554 550 568 491 c 1
 570 496 l 1
 570 504 567 514 561 525 c 1
 616 597 l 1
 630 590 640 579 640 563 c 0
 640 551 635 539 626 526 c 2
 571 451 l 2
 562 439 552 432 543 432 c 0
 527 432 524 447 523 451 c 0
 513 509 460 555 389 555 c 0
 306 555 245 506 217 448 c 1
 508 374 l 2
 526 369 542 352 542 328 c 0
 542 323 542 318 540 312 c 2
 485 54 l 2
 478 21 450 -9 415 -9 c 1
 362 157 l 1
 367 163 371 171 374 181 c 1
 374 185 l 1
 346 129 299 119 274 119 c 0
 229 119 198 149 198 195 c 0
 198 247 251 306 315 306 c 0
 378 306 388 254 399 220 c 2
 446 68 l 1
 449 72 l 1
 439 106 l 1
 485 323 l 1
 169 405 l 2
 162 407 151 414 151 428 c 0
 151 468 244 606 399 606 c 0
EndSplineSet
Substitution2: "Single Substitution lookup 22 subtable" uni0E10.alt1
Substitution2: "Single Substitution lookup 22 subtable" uni0E10.alt1
EndChar

StartChar: uni0E11
Encoding: 3601 3601 228
Width: 734
VWidth: 1507
Flags: W
HStem: -9 21G<244 276.588 587.272 600.5> 312 45<179.098 261.024> 454 39<190.855 272.679> 586 20G<239.5 295 370 403 665.5 704.5>
VStem: 122 54<368.108 464.453> 276 46<371.235 449.744> 410 58<401.767 530.598> 693 58<489.691 513.023 513.023 518.546 515.785 547.298>
LayerCount: 2
Fore
SplineSet
262 -9 m 1
 226 -9 217 21 217 37 c 0
 217 42 218 48 219 54 c 2
 243 166 l 2
 283 351 410 353 410 474 c 0
 410 507 403 546 381 556 c 1
 330 520 333 512 311 512 c 0
 304 512 298 513 264 556 c 1
 247 550 217 530 193 482 c 1
 181 473 172 464 166 454 c 1
 167 449 l 1
 182 476 217 493 244 493 c 0
 291 493 322 463 322 423 c 0
 322 369 268 312 205 312 c 0
 138 312 122 369 122 406 c 0
 122 480 194 606 285 606 c 0
 305 606 313 586 326 571 c 1
 352 589 359 606 381 606 c 0
 425 606 468 569 468 490 c 0
 468 329 344 357 300 166 c 2
 288 112 l 1
 261 72 l 1
 261 68 l 1
 644 591 l 2
 650 601 659 606 672 606 c 0
 737 606 754 563 754 531 c 0
 754 524 753 515 751 506 c 2
 654 54 l 2
 647 21 618 -9 583 -9 c 1
 693 506 l 2
 694 511 695 516 695 520 c 0
 695 537 686 546 669 549 c 1
 262 -9 l 1
235 454 m 256
 196 454 176 419 176 392 c 0
 176 378 184 357 216 357 c 256
 251 357 276 386 276 418 c 0
 276 439 259 454 235 454 c 256
EndSplineSet
EndChar

StartChar: uni0E12
Encoding: 3602 3602 229
Width: 937
VWidth: 1507
Flags: W
HStem: -9 45<443.779 526.573> 139 45<456.847 533.092> 250 44<357.454 383> 390 46<367.719 448.759> 586 20G<341.5 377 540 574.5 957.5 970.745>
VStem: 307 46<305.942 375.071> 392 47<41.046 122.024> 452 46<308.043 377.757> 607 59<435.541 524.295>
LayerCount: 2
Fore
SplineSet
413 390 m 256
 377 390 353 359 353 331 c 0
 353 316 361 294 392 294 c 256
 428 294 452 325 452 353 c 0
 452 368 444 390 413 390 c 256
502 139 m 256
 469 139 439 108 439 77 c 0
 439 54 456 36 481 36 c 256
 511 36 544 64 544 98 c 0
 544 120 527 139 502 139 c 256
392 65 m 0
 392 132 453 184 511 184 c 0
 525 184 538 181 549 175 c 1
 604 434 l 2
 606 444 607 453 607 461 c 0
 607 506 581 544 544 553 c 1
 525 542 451 484 432 484 c 0
 414 484 360 546 351 553 c 1
 307 543 249 495 240 434 c 2
 164 78 l 1
 137 53 l 1
 137 48 l 1
 356 249 l 1
 365 246 371 246 383 246 c 1
 383 250 l 1
 338 250 307 279 307 322 c 0
 307 380 360 436 422 436 c 0
 469 436 498 401 498 360 c 0
 498 332 482 302 460 282 c 2
 145 -9 l 1
 116 -9 99 12 99 38 c 0
 99 43 100 48 101 54 c 2
 182 434 l 2
 207 549 312 606 371 606 c 0
 383 606 445 544 445 544 c 1
 445 544 534 606 546 606 c 0
 603 606 666 551 666 473 c 0
 666 461 665 448 662 434 c 2
 601 149 l 1
 799 48 l 1
 904 541 l 2
 911 573 940 604 975 604 c 1
 858 54 l 2
 851 21 822 -9 787 -9 c 1
 588 90 l 1
 576 33 525 -9 470 -9 c 0
 424 -9 392 24 392 65 c 0
EndSplineSet
EndChar

StartChar: uni0E13
Encoding: 3603 3603 230
Width: 904
VWidth: 1507
Flags: W
HStem: -9 45<181.41 264.209 733.423 816.222> 133 45<191.878 273.259> 555 51<312.444 485.544>
VStem: 132 46<49.0148 101.086> 277 47<48.2737 120.411> 544 58<388.62 405 405 418.66 418.66 421.023 419.841 501.639> 682 47<40.3589 79.695> 833 47<52.428 133.889>
LayerCount: 2
Fore
SplineSet
238 133 m 256
 203 133 178 103 178 75 c 0
 178 59 186 36 219 36 c 256
 252 36 277 61 277 95 c 0
 277 110 269 133 238 133 c 256
791 139 m 256
 757 139 729 108 729 75 c 0
 729 52 747 36 770 36 c 256
 802 36 833 64 833 99 c 0
 833 123 814 139 791 139 c 256
184 149 m 1
 196 164 210 178 249 178 c 0
 294 178 324 148 324 107 c 0
 324 41 267 -9 208 -9 c 256
 160 -9 132 24 132 66 c 0
 132 72 133 78 134 84 c 2
 179 291 l 1
 176 294 144 398 144 398 c 1
 144 400 145 403 146 405 c 1
 169 515 279 606 415 606 c 256
 543 606 602 525 602 445 c 0
 602 432 601 419 598 405 c 2
 523 53 l 1
 727 158 l 2
 753 172 775 189 781 220 c 2
 849 541 l 2
 856 573 884 604 919 604 c 1
 838 220 l 1
 832 199 l 2
 829 192 826 186 823 181 c 1
 854 173 880 147 880 109 c 0
 880 49 823 -9 760 -9 c 256
 709 -9 682 26 682 65 c 0
 682 70 682 75 683 80 c 1
 509 -9 l 1
 483 -9 464 9 464 37 c 0
 464 43 465 48 466 54 c 2
 541 405 l 2
 543 416 544 427 544 437 c 0
 544 524 459 555 404 555 c 256
 350 555 239 524 205 413 c 1
 207 403 230 332 237 312 c 0
 238 309 238 304 238 298 c 1
 213 178 l 1
 202 172 191 164 182 154 c 1
 184 149 l 1
EndSplineSet
EndChar

StartChar: uni0E14
Encoding: 3604 3604 231
Width: 660
VWidth: 1507
Flags: W
HStem: -9 21G<130.5 165.912 513.299 527> 265 44<359.534 387> 405 46<370.719 451.953> 555 51<350.693 534.96>
VStem: 310 46<321.135 390.071> 455 46<323.382 393.195> 598 58<388.836 416.5 416.5 422.023 419.262 492.449>
LayerCount: 2
Fore
SplineSet
416 405 m 256
 380 405 356 374 356 346 c 0
 356 331 364 309 395 309 c 256
 431 309 455 340 455 368 c 0
 455 383 447 405 416 405 c 256
600 428 m 0
 600 479 557 555 448 555 c 256
 334 555 248 472 234 405 c 2
 164 81 l 1
 137 54 l 1
 139 50 l 1
 360 264 l 1
 369 261 375 261 387 261 c 1
 387 265 l 1
 342 265 310 295 310 337 c 0
 310 395 363 451 425 451 c 0
 473 451 501 417 501 376 c 0
 501 348 487 320 466 298 c 2
 145 -9 l 1
 116 -9 99 12 99 38 c 0
 99 43 100 48 101 54 c 2
 176 405 l 2
 198 516 328 606 458 606 c 0
 556 606 659 551 659 439 c 0
 659 428 658 417 656 405 c 2
 580 54 l 2
 573 20 545 -9 509 -9 c 1
 598 405 l 2
 600 413 600 420 600 428 c 0
EndSplineSet
EndChar

StartChar: uni0E15
Encoding: 3605 3605 232
Width: 660
VWidth: 1507
Flags: W
HStem: -9 21G<130.5 166.649 513.289 527> 250 44<357.454 383> 390 46<367.719 448.759> 586 20G<341.5 377 540 574.5>
VStem: 307 46<305.942 375.071> 452 46<308.043 377.757> 607 59<417.78 434 434 447.546 447.546 447.547 447.546 524.295>
LayerCount: 2
Fore
SplineSet
413 390 m 256
 377 390 353 359 353 331 c 0
 353 316 361 294 392 294 c 256
 428 294 452 325 452 353 c 0
 452 368 444 390 413 390 c 256
546 606 m 0
 603 606 666 551 666 473 c 0
 666 461 665 448 662 434 c 2
 580 54 l 2
 573 20 545 -9 509 -9 c 1
 604 434 l 2
 606 444 607 453 607 461 c 0
 607 506 581 544 544 553 c 1
 525 542 451 484 432 484 c 0
 414 484 360 546 351 553 c 1
 307 543 249 495 240 434 c 2
 164 78 l 1
 137 53 l 1
 137 48 l 1
 356 249 l 1
 365 246 371 246 383 246 c 1
 383 250 l 1
 338 250 307 279 307 322 c 0
 307 380 360 436 422 436 c 0
 469 436 498 401 498 360 c 0
 498 332 482 302 460 282 c 2
 145 -9 l 1
 116 -9 99 12 99 38 c 0
 99 43 100 48 101 54 c 2
 182 434 l 2
 207 549 312 606 371 606 c 0
 383 606 445 544 445 544 c 1
 445 544 534 606 546 606 c 0
EndSplineSet
EndChar

StartChar: uni0E16
Encoding: 3606 3606 233
Width: 630
VWidth: 1507
Flags: W
HStem: -9 45<181.41 264.209> 133 45<191.878 273.259> 555 51<322.238 503.951>
VStem: 132 46<49.0148 101.086> 277 47<48.2737 120.411> 568 58<388.836 405 405 416.5 416.5 417.988 417.244 493.843>
LayerCount: 2
Fore
SplineSet
238 133 m 256
 203 133 178 103 178 75 c 0
 178 59 186 36 219 36 c 256
 252 36 277 61 277 95 c 0
 277 110 269 133 238 133 c 256
184 149 m 1
 196 164 210 178 249 178 c 0
 294 178 324 148 324 107 c 0
 324 41 267 -9 208 -9 c 256
 160 -9 132 24 132 66 c 0
 132 72 133 78 134 84 c 2
 179 291 l 1
 176 294 144 398 144 398 c 1
 144 400 145 403 146 405 c 1
 170 527 315 606 428 606 c 0
 524 606 630 550 630 443 c 0
 630 431 629 418 626 405 c 2
 550 54 l 2
 543 21 514 -9 479 -9 c 1
 568 405 l 2
 570 413 570 420 570 428 c 0
 570 481 524 555 418 555 c 0
 329 555 228 497 205 413 c 1
 207 403 230 332 237 312 c 0
 238 309 238 304 238 298 c 1
 213 178 l 1
 202 172 191 164 182 154 c 1
 184 149 l 1
EndSplineSet
EndChar

StartChar: uni0E17
Encoding: 3607 3607 234
Width: 700
VWidth: 1507
Flags: W
HStem: -9 21G<214.5 241.151 554.289 567.5> 419 45<200 282.563> 561 45<212.789 294.293>
VStem: 152 45<467.469 545.812> 292 51<495.24 550.546> 645 57<417.679 434 434 447.547 447.547 448.085 447.816 528.737>
LayerCount: 2
Fore
SplineSet
229 -9 m 1
 200 -9 183 12 183 38 c 0
 183 43 184 48 185 54 c 2
 264 419 l 1
 277 426 286 434 292 443 c 1
 292 448 l 1
 276 429 255 419 228 419 c 0
 167 419 152 467 152 490 c 0
 152 560 212 606 267 606 c 256
 316 606 343 571 343 531 c 0
 343 525 342 519 341 512 c 2
 262 148 l 1
 234 96 l 1
 234 92 l 1
 521 564 l 2
 534 585 541 606 567 606 c 0
 634 606 707 582 707 485 c 0
 707 469 706 452 702 434 c 2
 621 54 l 2
 614 21 585 -9 550 -9 c 1
 645 434 l 2
 648 448 649 461 649 473 c 0
 649 520 622 546 568 549 c 1
 229 -9 l 1
258 561 m 256
 222 561 197 531 197 500 c 0
 197 478 213 464 237 464 c 256
 271 464 297 492 297 525 c 0
 297 540 289 561 258 561 c 256
EndSplineSet
EndChar

StartChar: uni0E18
Encoding: 3608 3608 235
Width: 580
VWidth: 1507
Flags: W
HStem: -9 51<222.016 382.916> 555 51<300.053 464.44>
VStem: 124 59<81.0701 167.904 158.797 177.012 177.012 190 190 206> 570 70<496 563>
LayerCount: 2
Fore
SplineSet
616 597 m 1
 630 590 640 579 640 563 c 0
 640 551 635 539 626 526 c 2
 571 451 l 2
 562 439 552 432 543 432 c 0
 527 432 524 447 523 451 c 0
 513 509 460 555 389 555 c 0
 306 555 245 506 217 448 c 1
 523 369 l 2
 548 363 556 338 556 321 c 0
 556 316 556 312 555 307 c 2
 529 190 l 2
 508 91 432 -9 286 -9 c 0
 153 -9 124 79 124 140 c 0
 124 156 126 172 130 190 c 2
 151 286 l 2
 159 319 186 350 222 350 c 1
 187 190 l 2
 184 177 183 164 183 152 c 0
 183 83 224 42 297 42 c 0
 386 42 453 102 472 190 c 2
 499 318 l 1
 169 405 l 2
 162 407 151 414 151 428 c 0
 151 468 244 606 399 606 c 0
 495 606 554 550 568 491 c 1
 570 496 l 1
 570 504 567 514 561 525 c 1
 616 597 l 1
EndSplineSet
EndChar

StartChar: uni0E19
Encoding: 3609 3609 236
Width: 709
VWidth: 1507
Flags: W
HStem: -9 45<538.779 621.983> 419 45<200 282.563> 561 45<212.789 294.293>
VStem: 152 45<467.469 545.812> 292 51<495.24 550.546> 487 47<40.7053 91.4959> 639 46<53.5799 133.477>
LayerCount: 2
Fore
SplineSet
229 -9 m 1
 200 -9 183 12 183 38 c 0
 183 43 184 48 185 54 c 2
 264 419 l 1
 277 426 286 434 292 443 c 1
 292 448 l 1
 276 429 255 419 228 419 c 0
 167 419 152 467 152 490 c 0
 152 560 212 606 267 606 c 256
 316 606 343 571 343 531 c 0
 343 525 342 519 341 512 c 2
 243 50 l 1
 528 161 l 2
 571 180 584 214 586 225 c 2
 654 541 l 2
 661 573 690 604 725 604 c 1
 644 225 l 2
 638 202 629 190 624 182 c 1
 658 175 685 147 685 107 c 0
 685 48 625 -9 565 -9 c 0
 519 -9 487 23 487 68 c 0
 487 75 488 83 490 92 c 1
 229 -9 l 1
258 561 m 256
 222 561 197 531 197 500 c 0
 197 478 213 464 237 464 c 256
 271 464 297 492 297 525 c 0
 297 540 289 561 258 561 c 256
597 139 m 256
 564 139 534 108 534 77 c 0
 534 54 551 36 576 36 c 256
 606 36 639 64 639 98 c 0
 639 120 622 139 597 139 c 256
EndSplineSet
EndChar

StartChar: uni0E1A
Encoding: 3610 3610 237
Width: 685
VWidth: 1507
Flags: W
HStem: -9 51<314.519 477.324> 419 45<200 282.563> 561 45<212.789 294.293>
VStem: 152 45<467.469 545.812> 209 59<87.3315 175.422 174.5 176.344 176.344 191 191 206.96> 292 51<495.24 549.707>
LayerCount: 2
Fore
SplineSet
258 561 m 256
 222 561 197 531 197 500 c 0
 197 478 213 464 237 464 c 256
 271 464 297 492 297 525 c 0
 297 540 289 561 258 561 c 256
381 -9 m 0
 288 -9 209 44 209 148 c 0
 209 161 211 176 214 191 c 2
 264 419 l 1
 277 426 286 434 292 443 c 1
 292 448 l 1
 276 429 255 419 228 419 c 0
 167 419 152 467 152 490 c 0
 152 560 212 606 267 606 c 256
 316 606 343 571 343 531 c 0
 343 525 342 519 341 512 c 2
 271 191 l 2
 269 180 268 169 268 158 c 0
 268 113 293 42 392 42 c 0
 484 42 561 110 577 191 c 2
 653 541 l 2
 661 574 688 604 724 604 c 1
 635 191 l 2
 612 77 505 -9 381 -9 c 0
EndSplineSet
EndChar

StartChar: uni0E1B
Encoding: 3611 3611 238
Width: 700
VWidth: 1507
Flags: W
HStem: -9 51<316.96 490.273> 419 45<200 282.563> 561 45<212.789 294.293>
VStem: 152 45<467.469 545.812> 210 58<89.2088 176.502 176 177.004 177.004 191 191 206.96> 292 51<495.24 549.707>
LayerCount: 2
Fore
SplineSet
258 561 m 256
 222 561 197 531 197 500 c 0
 197 478 213 464 237 464 c 256
 271 464 297 492 297 525 c 0
 297 540 289 561 258 561 c 256
389 -9 m 0
 287 -9 210 55 210 150 c 0
 210 163 211 177 214 191 c 2
 264 419 l 1
 277 426 286 434 292 443 c 1
 292 448 l 1
 276 429 255 419 228 419 c 0
 167 419 152 467 152 490 c 0
 152 560 212 606 267 606 c 256
 316 606 343 571 343 531 c 0
 343 525 342 519 341 512 c 2
 271 191 l 2
 269 181 268 171 268 161 c 0
 268 95 310 42 399 42 c 0
 496 42 576 108 592 191 c 2
 719 787 l 2
 726 816 754 850 790 850 c 1
 650 191 l 2
 627 78 513 -9 389 -9 c 0
EndSplineSet
EndChar

StartChar: uni0E1C
Encoding: 3612 3612 239
Width: 633
VWidth: 1507
Flags: W
HStem: -9 21G<130.5 160.729 474.881 499.5> 419 45<246.138 326.569> 561 45<257.759 338.048>
VStem: 342 46<477.989 548.98>
LayerCount: 2
Fore
SplineSet
303 561 m 256
 267 561 243 529 243 501 c 0
 243 486 251 464 282 464 c 256
 315 464 342 492 342 523 c 0
 342 538 334 561 303 561 c 256
388 531 m 0
 388 470 332 419 273 419 c 0
 246 419 228 429 220 448 c 1
 217 443 l 1
 222 432 229 424 237 419 c 1
 169 106 l 1
 142 68 l 1
 142 63 l 1
 365 345 l 2
 374 357 387 359 392 359 c 0
 403 359 410 354 413 345 c 2
 515 63 l 1
 519 68 l 1
 506 106 l 1
 600 541 l 2
 607 573 636 604 671 604 c 1
 553 54 l 2
 546 21 517 -9 482 -9 c 1
 377 286 l 1
 145 -9 l 1
 116 -9 99 12 99 38 c 0
 99 43 100 48 101 54 c 2
 199 512 l 2
 208 566 260 606 312 606 c 256
 361 606 388 571 388 531 c 0
EndSplineSet
EndChar

StartChar: uni0E1D
Encoding: 3613 3613 240
Width: 633
VWidth: 1507
Flags: W
HStem: -9 21G<130.5 160.729 474.881 499.5> 419 45<246.138 326.569> 561 45<257.759 338.048>
VStem: 342 46<477.989 548.98>
LayerCount: 2
Fore
SplineSet
303 561 m 256
 267 561 243 529 243 501 c 0
 243 486 251 464 282 464 c 256
 315 464 342 492 342 523 c 0
 342 538 334 561 303 561 c 256
388 531 m 0
 388 470 332 419 273 419 c 0
 246 419 228 429 220 448 c 1
 217 443 l 1
 222 432 229 424 237 419 c 1
 169 106 l 1
 142 68 l 1
 142 63 l 1
 365 345 l 2
 374 357 387 359 392 359 c 0
 403 359 410 354 413 345 c 2
 515 63 l 1
 519 68 l 1
 506 106 l 1
 651 787 l 2
 658 816 686 850 722 850 c 1
 553 54 l 2
 546 21 517 -9 482 -9 c 1
 377 286 l 1
 145 -9 l 1
 116 -9 99 12 99 38 c 0
 99 43 100 48 101 54 c 2
 199 512 l 2
 208 566 260 606 312 606 c 256
 361 606 388 571 388 531 c 0
EndSplineSet
EndChar

StartChar: uni0E1E
Encoding: 3614 3614 241
Width: 714
VWidth: 1507
Flags: W
HStem: -9 21G<214.5 240.759 560.837 581.5> 419 45<200 282.563> 561 45<212.789 294.293>
VStem: 152 45<467.469 545.812> 292 51<495.24 549.707>
LayerCount: 2
Fore
SplineSet
258 561 m 256
 222 561 197 531 197 500 c 0
 197 478 213 464 237 464 c 256
 271 464 297 492 297 525 c 0
 297 540 289 561 258 561 c 256
229 -9 m 1
 200 -9 183 12 183 38 c 0
 183 43 184 48 185 54 c 2
 264 419 l 1
 277 426 286 434 292 443 c 1
 292 448 l 1
 276 429 255 419 228 419 c 0
 167 419 152 467 152 490 c 0
 152 560 212 606 267 606 c 256
 316 606 343 571 343 531 c 0
 343 525 342 519 341 512 c 2
 264 151 l 1
 237 101 l 1
 237 96 l 1
 481 517 l 2
 490 529 500 535 512 535 c 0
 525 535 533 529 535 517 c 2
 601 96 l 1
 604 101 l 1
 598 151 l 1
 681 541 l 2
 688 573 717 604 752 604 c 1
 635 54 l 2
 628 21 599 -9 564 -9 c 1
 493 440 l 1
 229 -9 l 1
EndSplineSet
EndChar

StartChar: uni0E1F
Encoding: 3615 3615 242
Width: 714
VWidth: 1507
Flags: W
HStem: -9 21G<214.5 240.759 560.837 581.5> 419 45<200 282.563> 561 45<212.789 294.293>
VStem: 152 45<467.469 545.812> 292 51<495.24 549.707>
LayerCount: 2
Fore
SplineSet
258 561 m 256
 222 561 197 531 197 500 c 0
 197 478 213 464 237 464 c 256
 271 464 297 492 297 525 c 0
 297 540 289 561 258 561 c 256
229 -9 m 1
 200 -9 183 12 183 38 c 0
 183 43 184 48 185 54 c 2
 264 419 l 1
 277 426 286 434 292 443 c 1
 292 448 l 1
 276 429 255 419 228 419 c 0
 167 419 152 467 152 490 c 0
 152 560 212 606 267 606 c 256
 316 606 343 571 343 531 c 0
 343 525 342 519 341 512 c 2
 264 151 l 1
 237 101 l 1
 237 96 l 1
 481 517 l 2
 490 529 500 535 512 535 c 0
 525 535 533 529 535 517 c 2
 601 96 l 1
 604 101 l 1
 598 151 l 1
 733 787 l 2
 738 807 761 850 803 850 c 1
 635 54 l 2
 628 21 599 -9 564 -9 c 1
 493 440 l 1
 229 -9 l 1
EndSplineSet
EndChar

StartChar: uni0E20
Encoding: 3616 3616 243
Width: 657
VWidth: 1507
Flags: W
HStem: -9 45<110.138 190.772> 133 45<121.035 202.509> 555 51<347.919 531.982>
VStem: 60 46<48.9137 118.567> 595 58<388.836 405 405 417 417 417.988 417.494 494.295>
LayerCount: 2
Fore
SplineSet
60 63 m 0
 60 123 115 178 176 178 c 0
 203 178 221 168 229 149 c 1
 231 154 l 1
 228 164 222 172 213 178 c 1
 235 288 l 1
 227 298 223 311 202 342 c 2
 175 387 l 1
 174 392 173 397 173 401 c 0
 173 469 290 606 455 606 c 0
 551 606 657 550 657 443 c 0
 657 431 656 418 653 405 c 2
 577 54 l 2
 570 20 542 -9 506 -9 c 1
 595 405 l 2
 597 413 598 421 598 429 c 0
 598 500 534 555 445 555 c 0
 339 555 250 480 232 413 c 1
 238 402 250 380 264 359 c 2
 291 315 l 2
 293 311 294 306 294 301 c 2
 294 297 l 1
 249 84 l 2
 238 33 190 -9 136 -9 c 256
 87 -9 60 25 60 63 c 0
166 133 m 256
 131 133 106 103 106 75 c 0
 106 59 114 36 146 36 c 256
 180 36 205 63 205 97 c 0
 205 112 197 133 166 133 c 256
EndSplineSet
EndChar

StartChar: uni0E21
Encoding: 3617 3617 244
Width: 679
VWidth: 1507
Flags: W
HStem: -9 45<111.977 194.431> 139 45<124.28 201.663> 419 45<206.351 288.394> 561 45<218.91 300.293>
VStem: 60 48<41.0076 122.591> 158 45<467.65 545.711> 298 51<495.401 550.546>
LayerCount: 2
Fore
SplineSet
60 65 m 0
 60 127 118 184 179 184 c 0
 193 184 206 181 217 175 c 1
 270 419 l 1
 283 426 292 434 298 443 c 1
 298 448 l 1
 282 429 261 419 234 419 c 0
 173 419 158 467 158 490 c 0
 158 560 218 606 273 606 c 256
 322 606 349 571 349 531 c 0
 349 525 348 519 347 512 c 2
 270 155 l 1
 541 48 l 1
 647 541 l 2
 654 573 682 604 717 604 c 1
 600 54 l 2
 593 21 564 -9 529 -9 c 1
 258 96 l 1
 240 16 179 -9 139 -9 c 0
 91 -9 60 25 60 65 c 0
203 501 m 0
 203 480 219 464 243 464 c 256
 276 464 303 493 303 525 c 0
 303 540 295 561 264 561 c 256
 226 561 203 527 203 501 c 0
170 139 m 256
 136 139 108 108 108 75 c 0
 108 52 126 36 149 36 c 256
 182 36 212 67 212 99 c 0
 212 123 193 139 170 139 c 256
EndSplineSet
EndChar

StartChar: uni0E22
Encoding: 3618 3618 245
Width: 616
VWidth: 1507
Flags: W
HStem: -9 51<212.308 402.003> 295 58<236.349 237 304 372.112> 421 43<252.154 329.233> 561 45<258.383 340.754>
VStem: 95 59<94.5326 225.611> 153 58<384.711 464.407 421.522 483.477> 213 31<467.307 484> 344 45<478.496 549.281>
LayerCount: 2
Fore
SplineSet
95 146 m 0xfb
 95 217 141 294 240 333 c 1
 237 335 l 1
 227 332 215 327 202 321 c 1
 154 353 153 406 153 422 c 0
 153 529 251 606 314 606 c 0
 371 606 389 563 389 533 c 0
 389 468 333 421 274 421 c 0
 261 421 213 427 213 476 c 2
 213 484 l 1
 211 481 208 477 208 467 c 0
 208 460 210 453 213 446 c 1
 212 440 211 433 211 428 c 0xf7
 211 377 251 353 304 353 c 2
 353 353 l 2
 366 353 376 344 376 331 c 0
 376 317 362 295 341 295 c 0
 229 295 154 240 154 155 c 0
 154 96 207 42 301 42 c 0
 392 42 488 94 506 182 c 2
 583 541 l 2
 590 573 619 604 654 604 c 1
 564 182 l 2
 539 67 412 -9 291 -9 c 0
 171 -9 95 59 95 146 c 0xfb
304 561 m 256
 266 561 244 529 244 499 c 0
 244 478 260 464 283 464 c 256
 317 464 344 491 344 525 c 0
 344 540 336 561 304 561 c 256
EndSplineSet
EndChar

StartChar: uni0E23
Encoding: 3619 3619 246
Width: 580
VWidth: 1507
Flags: W
HStem: -9 45<352.638 433.521> 133 45<362.982 445.496> 555 51<300.053 464.44>
VStem: 302 47<48.771 120.308> 570 70<496 563>
LayerCount: 2
Fore
SplineSet
408 133 m 256
 374 133 349 106 349 75 c 0
 349 59 357 36 389 36 c 256
 423 36 448 63 448 97 c 0
 448 112 440 133 408 133 c 256
302 65 m 0
 302 120 356 178 419 178 c 0
 446 178 464 168 472 149 c 1
 473 154 l 1
 470 164 464 172 455 178 c 1
 485 323 l 1
 169 405 l 2
 162 407 151 414 151 428 c 0
 151 468 244 606 399 606 c 0
 495 606 554 550 568 491 c 1
 570 496 l 1
 570 504 567 514 561 525 c 1
 616 597 l 1
 630 590 640 579 640 563 c 0
 640 551 635 539 626 526 c 2
 571 451 l 2
 562 439 552 432 543 432 c 0
 527 432 524 447 523 451 c 0
 513 509 460 555 389 555 c 0
 306 555 245 506 217 448 c 1
 508 374 l 2
 526 369 542 352 542 328 c 0
 542 323 542 318 540 312 c 2
 491 84 l 2
 482 32 432 -9 378 -9 c 256
 329 -9 302 26 302 65 c 0
EndSplineSet
EndChar

StartChar: uni0E24
Encoding: 3620 3620 247
Width: 630
VWidth: 1507
Flags: W
HStem: -9 45<181.41 264.209> 133 45<191.878 273.259> 555 51<322.238 503.951>
VStem: 132 46<49.0148 101.086> 277 47<48.2737 120.411> 568 58<388.778 405 405 416.5 416.5 417.988 417.244 493.843>
LayerCount: 2
Fore
SplineSet
238 133 m 256
 203 133 178 103 178 75 c 0
 178 59 186 36 219 36 c 256
 252 36 277 61 277 95 c 0
 277 110 269 133 238 133 c 256
184 149 m 1
 196 164 210 178 249 178 c 0
 294 178 324 148 324 107 c 0
 324 41 267 -9 208 -9 c 256
 160 -9 132 24 132 66 c 0
 132 72 133 78 134 84 c 2
 179 291 l 1
 176 294 144 398 144 398 c 1
 144 400 145 403 146 405 c 1
 170 527 315 606 428 606 c 0
 524 606 630 550 630 443 c 0
 630 431 629 418 626 405 c 2
 500 -179 l 2
 491 -219 458 -243 430 -243 c 1
 568 405 l 2
 570 413 570 420 570 428 c 0
 570 481 524 555 418 555 c 0
 329 555 228 497 205 413 c 1
 207 403 230 332 237 312 c 0
 238 309 238 304 238 298 c 1
 213 178 l 1
 202 172 191 164 182 154 c 1
 184 149 l 1
EndSplineSet
EndChar

StartChar: uni0E25
Encoding: 3621 3621 248
Width: 627
VWidth: 1507
Flags: W
HStem: -9 45<151.389 233.307> 133 45<161.993 243.259> 338 51<282.858 456.899> 555 51<320.535 503.964>
VStem: 102 46<48.9732 101.062> 149 48<383.328 442.268> 247 47<49.4352 120.411> 568 59<406.875 494.798>
LayerCount: 2
Fore
SplineSet
380 389 m 0
 470 389 535 346 562 285 c 1
 564 289 l 1
 560 299 554 309 547 320 c 1
 565 405 l 2
 567 413 568 421 568 429 c 0
 568 488 518 555 416 555 c 256
 285 555 197 448 197 377 c 1
 172 377 149 393 149 417 c 0
 149 471 260 606 427 606 c 0
 549 606 627 526 627 440 c 0
 627 429 625 417 623 405 c 2
 547 54 l 2
 540 21 511 -9 476 -9 c 1
 519 190 l 2
 521 198 521 206 521 214 c 0
 521 275 467 338 369 338 c 0
 274 338 206 274 184 190 c 2
 182 178 l 1
 171 172 161 164 152 154 c 1
 154 149 l 1
 169 169 186 178 219 178 c 0
 264 178 294 148 294 107 c 0
 294 45 240 -9 178 -9 c 256
 130 -9 102 24 102 64 c 0
 102 70 103 77 104 84 c 2
 127 190 l 2
 149 298 252 389 380 389 c 0
208 133 m 256
 173 133 148 103 148 75 c 0
 148 59 156 36 188 36 c 256
 220 36 247 60 247 95 c 0
 247 110 239 133 208 133 c 256
EndSplineSet
EndChar

StartChar: uni0E26
Encoding: 3622 3622 249
Width: 657
VWidth: 1507
Flags: W
HStem: -9 45<110.138 190.772> 133 45<121.035 202.509> 555 51<347.919 531.982>
VStem: 60 46<48.9137 118.567> 595 58<388.648 405 405 417 417 417.988 417.494 494.295>
LayerCount: 2
Fore
SplineSet
60 63 m 0
 60 123 115 178 176 178 c 0
 203 178 221 168 229 149 c 1
 231 154 l 1
 228 164 222 172 213 178 c 1
 235 288 l 1
 227 298 223 311 202 342 c 2
 175 387 l 1
 174 392 173 397 173 401 c 0
 173 469 290 606 455 606 c 0
 551 606 657 550 657 443 c 0
 657 431 656 418 653 405 c 2
 528 -179 l 2
 519 -219 486 -243 457 -243 c 1
 595 405 l 2
 597 413 598 421 598 429 c 0
 598 500 534 555 445 555 c 0
 339 555 250 480 232 413 c 1
 238 402 250 380 264 359 c 2
 291 315 l 2
 293 311 294 306 294 301 c 2
 294 297 l 1
 249 84 l 2
 238 33 190 -9 136 -9 c 256
 87 -9 60 25 60 63 c 0
166 133 m 256
 131 133 106 103 106 75 c 0
 106 59 114 36 146 36 c 256
 180 36 205 63 205 97 c 0
 205 112 197 133 166 133 c 256
EndSplineSet
EndChar

StartChar: uni0E27
Encoding: 3623 3623 250
Width: 545
VWidth: 1507
Flags: W
HStem: -9 45<332.389 415.404> 133 45<344.035 424.731> 555 51<277.313 437.951>
VStem: 126 47<383.169 453.476> 283 46<48.9732 117.74> 488 58<388.717 405 405 418.34 418.34 420.64 419.49 507.57>
LayerCount: 2
Fore
SplineSet
389 133 m 256
 354 133 329 103 329 75 c 0
 329 59 337 36 369 36 c 256
 398 36 428 57 428 95 c 0
 428 110 420 133 389 133 c 256
283 64 m 0
 283 124 338 178 399 178 c 0
 426 178 444 168 452 149 c 1
 454 154 l 1
 451 164 445 172 436 178 c 1
 484 405 l 2
 486 417 488 428 488 438 c 0
 488 501 444 555 362 555 c 0
 260 555 173 467 173 377 c 1
 147 377 126 394 126 419 c 0
 126 475 226 606 372 606 c 0
 464 606 546 555 546 451 c 0
 546 437 544 421 541 405 c 2
 472 84 l 2
 461 33 413 -9 359 -9 c 256
 311 -9 283 24 283 64 c 0
EndSplineSet
EndChar

StartChar: uni0E28
Encoding: 3624 3624 251
Width: 660
VWidth: 1507
Flags: W
HStem: -9 21G<130.5 156.812 513.299 527> 262 45<359.843 439.555> 404 45<368.529 451.279> 555 51<350.152 533.729>
VStem: 455 45<322.096 386.264> 598 58<388.836 413.5 413.5 420.046 416.773 434.649 430.5 438.799> 672 47<573.512 617.698>
LayerCount: 2
Fore
SplineSet
145 -9 m 1
 116 -9 99 12 99 38 c 0
 99 43 100 48 101 54 c 2
 176 405 l 2
 199 521 338 606 458 606 c 0
 534 606 597 572 632 528 c 1
 670 571 672 610 672 614 c 0
 672 617 671 620 671 624 c 1
 696 624 719 608 719 584 c 0
 719 563 697 523 653 479 c 1
 655 470 659 451 659 435 c 0
 659 426 658 416 656 405 c 2
 580 54 l 2
 573 20 545 -9 509 -9 c 1
 598 405 l 2
 599 411 600 416 600 422 c 0
 600 428 599 433 598 439 c 1
 568 417 536 403 499 390 c 1
 500 385 500 379 500 374 c 0
 500 316 442 262 384 262 c 0
 344 262 323 281 320 320 c 1
 317 315 l 1
 317 297 318 293 321 289 c 1
 145 -9 l 1
585 485 m 1
 571 509 530 555 448 555 c 0
 334 555 248 472 234 405 c 2
 179 151 l 1
 157 110 l 1
 157 106 l 1
 327 392 l 2
 345 426 383 449 425 449 c 256
 445 449 462 443 475 430 c 1
 512 440 549 458 585 485 c 1
415 404 m 256
 382 404 356 380 356 345 c 0
 356 322 372 307 395 307 c 256
 430 307 455 338 455 365 c 0
 455 381 447 404 415 404 c 256
EndSplineSet
EndChar

StartChar: uni0E29
Encoding: 3625 3625 252
Width: 700
VWidth: 1507
Flags: W
HStem: -9 51<320.928 486.18> 187 56<399.892 480.625 423.55 528.206> 246 36<404 453.822> 369 42<387.958 463.928> 419 45<200 282.563> 561 45<212.789 294.293>
VStem: 152 45<467.469 545.812> 210 58<93.0919 176.479 175.954 177.004 177.004 191 191 206.96> 292 51<495.24 549.707> 332 44<284.356 356.437> 466 42<294.191 366.728>
LayerCount: 2
Fore
SplineSet
258 561 m 256xff20
 222 561 197 531 197 500 c 0
 197 478 213 464 237 464 c 256
 271 464 297 492 297 525 c 0
 297 540 289 561 258 561 c 256xff20
431 369 m 256
 406 369 376 347 376 317 c 0xff60
 376 296 390 282 411 282 c 256
 445 282 466 311 466 337 c 0
 466 355 452 369 431 369 c 256
268 161 m 0
 268 99 314 42 399 42 c 0
 495 42 578 117 592 191 c 2
 607 261 l 1
 618 274 626 288 633 303 c 1
 633 307 l 1
 621 282 563 187 457 187 c 0
 389 187 332 232 332 300 c 0xff60
 332 374 395 411 440 411 c 0
 482 411 508 380 508 344 c 0
 508 294 462 246 404 246 c 1
 399 244 l 1
 404 243 409 243 413 243 c 0
 421 243 428 244 434 246 c 1
 446 241 457 238 467 238 c 0
 543 238 601 327 601 400 c 2
 601 410 l 1
 632 410 647 398 650 375 c 1
 653 380 l 1
 649 393 647 397 639 405 c 1
 669 547 l 2
 679 589 713 604 739 604 c 1
 650 191 l 2
 627 78 515 -9 389 -9 c 0
 286 -9 210 55 210 150 c 0
 210 163 211 177 214 191 c 2
 264 419 l 1
 277 426 286 434 292 443 c 1
 292 448 l 1
 276 429 255 419 228 419 c 0
 167 419 152 467 152 490 c 0
 152 560 212 606 267 606 c 256
 316 606 343 571 343 531 c 0xffa0
 343 525 342 519 341 512 c 2
 271 191 l 2
 269 180 268 170 268 161 c 0
EndSplineSet
EndChar

StartChar: uni0E2A
Encoding: 3626 3626 253
Width: 627
VWidth: 1507
Flags: W
HStem: -9 45<151.389 233.307> 133 45<161.993 243.259> 338 51<282.516 375> 555 51<320.535 501.488>
VStem: 102 46<48.9732 101.062> 149 48<383.328 442.268> 247 47<49.4352 120.411> 566 61<413.91 445.86> 639 46<574.218 617.949>
LayerCount: 2
Fore
SplineSet
178 -9 m 256
 130 -9 102 24 102 64 c 0
 102 70 103 77 104 84 c 2
 127 190 l 2
 150 300 252 383 375 389 c 1
 450 417 512 455 552 485 c 1
 539 507 498 555 416 555 c 0
 285 555 197 448 197 377 c 1
 172 377 149 393 149 417 c 0
 149 471 260 606 427 606 c 0
 491 606 559 581 597 528 c 1
 629 564 639 596 639 614 c 0
 639 617 638 620 638 624 c 1
 664 624 685 607 685 583 c 0
 685 562 664 521 620 481 c 1
 625 467 627 453 627 439 c 0
 627 428 626 416 623 405 c 2
 547 54 l 2
 540 21 511 -9 476 -9 c 1
 519 190 l 2
 521 198 521 206 521 214 c 0
 521 275 467 338 369 338 c 0
 274 338 206 274 184 190 c 2
 182 178 l 1
 171 172 161 164 152 154 c 1
 154 149 l 1
 169 169 186 178 219 178 c 0
 264 178 294 148 294 107 c 0
 294 45 240 -9 178 -9 c 256
208 133 m 256
 173 133 148 103 148 75 c 0
 148 59 156 36 188 36 c 256
 220 36 247 60 247 95 c 0
 247 110 239 133 208 133 c 256
454 377 m 1
 498 362 541 332 562 285 c 1
 564 289 l 1
 560 299 554 309 547 320 c 1
 565 405 l 2
 566 411 566 416 566 422 c 0
 566 428 566 433 565 439 c 1
 544 424 512 404 454 377 c 1
EndSplineSet
EndChar

StartChar: uni0E2B
Encoding: 3627 3627 254
Width: 702
VWidth: 1507
Flags: W
HStem: -9 21G<214.5 244.573 556.252 567> 419 45<200 282.563 594.534 631.809> 561 45<212.789 294.293 607.688 689.293>
VStem: 152 45<467.469 545.812> 292 51<495.24 550.546> 546 46<479.819 545.43> 633 57<355.537 377.5 377.5 382.5 380 406.406> 692 46<477.965 549.707>
LayerCount: 2
Fore
SplineSet
229 -9 m 1
 200 -9 183 12 183 38 c 0
 183 43 184 48 185 54 c 2
 264 419 l 1
 277 426 286 434 292 443 c 1
 292 448 l 1
 276 429 255 419 228 419 c 0
 167 419 152 467 152 490 c 0
 152 560 212 606 267 606 c 256
 316 606 343 571 343 531 c 0
 343 525 342 519 341 512 c 2
 255 107 l 1
 226 69 l 1
 228 65 l 1
 493 405 l 2
 510 427 528 447 553 460 c 1
 548 469 546 479 546 489 c 0
 546 548 596 606 662 606 c 256
 711 606 738 571 738 531 c 0
 738 485 703 450 678 436 c 1
 688 423 693 409 693 393 c 0
 693 386 692 379 690 372 c 2
 623 54 l 2
 613 15 582 -9 552 -9 c 1
 633 372 l 2
 634 376 634 379 634 383 c 0
 634 402 627 421 600 421 c 0
 569 421 551 406 528 375 c 2
 229 -9 l 1
258 561 m 256
 222 561 197 531 197 500 c 0
 197 478 213 464 237 464 c 256
 271 464 297 492 297 525 c 0
 297 540 289 561 258 561 c 256
653 561 m 256
 617 561 592 531 592 499 c 0
 592 485 600 464 632 464 c 256
 666 464 692 492 692 525 c 0
 692 540 684 561 653 561 c 256
EndSplineSet
EndChar

StartChar: uni0E2C
Encoding: 3628 3628 255
AltUni2: 00f71d.ffffffff.0
Width: 717
VWidth: 1507
Flags: W
HStem: -9 21G<214.5 242.846 561.587 584.5> 419 45<200 282.563 595.906 658.389> 561 45<212.789 294.293 607.123 689.293>
VStem: 152 45<467.469 545.812> 292 51<495.24 549.707> 547 45<475.085 545.284> 692 46<495.717 549.707> 781 46<536.815 597.725>
LayerCount: 2
Fore
SplineSet
267 606 m 256
 316 606 343 571 343 531 c 0
 343 525 342 519 341 512 c 2
 258 122 l 1
 232 84 l 1
 234 80 l 1
 460 407 l 2
 466 418 475 424 488 424 c 0
 500 424 508 418 511 407 c 2
 601 80 l 1
 603 84 l 1
 595 122 l 1
 659 421 l 1
 651 420 645 419 641 419 c 2
 623 419 l 2
 574 419 547 453 547 491 c 0
 547 557 604 606 662 606 c 256
 711 606 738 571 738 531 c 0
 738 525 737 519 736 512 c 2
 728 479 l 1
 733 481 l 1
 735 488 736 489 736 494 c 0
 736 498 737 503 739 509 c 1
 749 520 774 545 781 604 c 1
 804 604 827 588 827 565 c 0
 827 539 790 471 719 437 c 1
 638 54 l 2
 631 21 602 -9 567 -9 c 1
 472 342 l 1
 229 -9 l 1
 200 -9 183 12 183 38 c 0
 183 43 184 48 185 54 c 2
 264 419 l 1
 277 426 286 434 292 443 c 1
 292 448 l 1
 276 429 255 419 228 419 c 0
 167 419 152 467 152 490 c 0
 152 560 212 606 267 606 c 256
258 561 m 256
 222 561 197 531 197 500 c 0
 197 478 213 464 237 464 c 256
 271 464 297 492 297 525 c 0
 297 540 289 561 258 561 c 256
653 561 m 256
 617 561 592 531 592 499 c 0
 592 485 600 464 632 464 c 256
 666 464 692 492 692 525 c 0
 692 540 684 561 653 561 c 256
EndSplineSet
Substitution2: "Single Substitution lookup 22 subtable" uni0E2C.alt1
Substitution2: "Single Substitution lookup 22 subtable" uni0E2C.alt1
EndChar

StartChar: uni0E2D
Encoding: 3629 3629 256
Width: 631
VWidth: 1507
Flags: W
HStem: -9 51<242.545 412.171> 213 42<253.218 335.45> 351 45<264.911 347.35> 555 51<322.71 506.156>
VStem: 126 57<97.2654 188.668> 152 48<383.328 442.268> 211 39<258.167 289> 350 45<269.301 347.702> 572 59<389.064 405 405 416.5 416.5 419.062 417.781 493.017>
LayerCount: 2
Fore
SplineSet
207 274 m 0xfb80
 207 272 208 268 210 264 c 1
 201 247 195 232 194 220 c 1
 187 191 l 2
 184 180 183 170 183 160 c 0xfb80
 183 98 240 42 323 42 c 0
 390 42 498 84 523 191 c 2
 570 405 l 2
 572 413 572 420 572 428 c 0
 572 479 528 555 419 555 c 256
 288 555 200 448 200 377 c 1
 175 377 152 393 152 417 c 0xf780
 152 469 259 606 430 606 c 0
 526 606 631 551 631 441 c 0
 631 429 629 417 627 405 c 2
 580 191 l 2
 556 70 431 -9 312 -9 c 0
 207 -9 126 55 126 151 c 0
 126 164 127 177 130 191 c 2
 137 220 l 2
 151 283 236 396 320 396 c 0
 365 396 395 365 395 324 c 0
 395 259 339 213 280 213 c 0
 236 213 211 242 211 280 c 0
 211 289 l 1
 209 280 207 280 207 274 c 0xfb80
311 351 m 256
 273 351 250 320 250 290 c 0
 250 269 266 255 289 255 c 256
 327 255 350 286 350 316 c 0
 350 337 334 351 311 351 c 256
EndSplineSet
EndChar

StartChar: uni0E2E
Encoding: 3630 3630 257
Width: 645
VWidth: 1507
Flags: W
HStem: -9 50<247.128 423.738> 167 43<244.218 326.624> 306 45<257.141 338.344> 386 48<235.684 445.749> 556 51<311.489 513.19>
VStem: 126 72<150.666 236.765> 126 58<99.0328 213.049> 173 59<441.474 504.34> 202 39<213.167 244> 341 45<224.348 294.676> 585 59<389.064 416.023 416.023 421.023 418.523 453.849> 656 46<564.598 598.121>
LayerCount: 2
Back
SplineSet
647 586 m 0
 653 598 656 610.667 656 624 c 1
 672.667 625.333 685.5 619.167 694.5 605.5 c 128
 703.5 591.833 704.667 577 698 561 c 0
 686.667 537.667 670.167 517.167 648.5 499.5 c 128
 626.833 481.833 603.333 466.5 578 453.5 c 128
 552.667 440.5 526.167 430 498.5 422 c 128
 470.833 414 446 407.333 424 402 c 0
 405.333 398 382.333 394 355 390 c 128
 327.667 386 300.833 384.833 274.5 386.5 c 128
 248.167 388.167 225.5 393.833 206.5 403.5 c 128
 187.5 413.167 176.333 429 173 451 c 0
 171 471.667 177.667 491.333 193 510 c 128
 208.333 528.667 228.5 545.333 253.5 560 c 128
 278.5 574.667 306.833 586.167 338.5 594.5 c 128
 370.167 602.833 402 607 434 607 c 0
 464 607 492.833 601.833 520.5 591.5 c 128
 548.167 581.167 571.833 567 591.5 549 c 128
 611.167 531 625.833 509.667 635.5 485 c 128
 645.167 460.333 647 433.667 641 405 c 2
 594 191 l 2
 588 163 576.5 136.667 559.5 112 c 128
 542.5 87.3333 521.667 66 497 48 c 128
 472.333 30 444.667 16 414 6 c 128
 383.333 -4 352 -9 320 -9 c 0
 286.667 -9 257.167 -4 231.5 6 c 128
 205.833 16 184.5 30 167.5 48 c 128
 150.5 66 138.5 87.1667 131.5 111.5 c 128
 124.5 135.833 124 162 130 190 c 0
 134 209.333 142 228.667 154 248 c 128
 166 267.333 180.333 284.667 197 300 c 128
 213.667 315.333 231.667 327.667 251 337 c 128
 270.333 346.333 290.333 351 311 351 c 0
 337 351 357 342 371 324 c 128
 385 306 389.333 284 384 258 c 256
 379.333 232 366 210.333 344 193 c 128
 322 175.667 297.667 167 271 167 c 0
 248.333 167 230.667 174.333 218 189 c 128
 205.333 203.667 200 222 202 244 c 1
 199 240 l 1
 197.667 232 197.667 225 199 219 c 1
 195.667 213 193.333 207.833 192 203.5 c 128
 190.667 199.167 189 195 187 191 c 1
 183 171 183.5 151.833 188.5 133.5 c 128
 193.5 115.167 202.5 99.1667 215.5 85.5 c 128
 228.5 71.8333 244.833 61 264.5 53 c 128
 284.167 45 306 41 330 41 c 256
 354 41 377.667 45 401 53 c 128
 424.333 61 445.167 71.8333 463.5 85.5 c 128
 481.833 99.1667 497.667 115.167 511 133.5 c 128
 524.333 151.833 533 171 537 191 c 2
 583 405 l 2
 587 425.667 585.5 445.167 578.5 463.5 c 128
 571.5 481.833 560.5 497.833 545.5 511.5 c 128
 530.5 525.167 512.5 536 491.5 544 c 128
 470.5 552 448 556 424 556 c 0
 401.333 556 378.5 553.5 355.5 548.5 c 128
 332.5 543.5 312 537 294 529 c 128
 276 521 261.167 511.667 249.5 501 c 128
 237.833 490.333 232 479.667 232 469 c 0
 232 455 239.833 445.667 255.5 441 c 128
 271.167 436.333 289 434 309 434 c 128
 329 434 349.833 435.5 371.5 438.5 c 128
 393.167 441.5 410 444.667 422 448 c 0
 442 452 463.333 458 486 466 c 128
 508.667 474 530.333 483.667 551 495 c 128
 571.667 506.333 590.5 519.667 607.5 535 c 128
 624.5 550.333 637.667 567.333 647 586 c 0
243 258 m 256
 239.667 244 241.5 232.5 248.5 223.5 c 128
 255.5 214.5 266 210 280 210 c 256
 294 210 306.667 214.5 318 223.5 c 128
 329.333 232.5 336.333 244 339 258 c 256
 342.333 272 340.5 283.5 333.5 292.5 c 128
 326.5 301.5 315.667 306 301 306 c 256
 287 306 274.5 301.5 263.5 292.5 c 128
 252.5 283.5 245.667 272 243 258 c 256
EndSplineSet
Fore
SplineSet
301 306 m 0xf8f0
 265 306 241 276 241 245 c 0
 241 224 257 210 280 210 c 0
 315 210 341 239 341 271 c 0
 341 285 333 306 301 306 c 0xf8f0
581 455 m 1
 502 414 365 386 298 386 c 0
 190 386 173 430 173 459 c 0xf970
 173 529 298 607 434 607 c 0
 506 607 568 577 606 534 c 1
 637 561 656 592 656 624 c 1
 698 624 702 589 702 581 c 0
 702 559 679 522 634 488 c 1
 641 472 644 455 644 437 c 0
 644 427 643 416 641 405 c 2
 594 191 l 2
 570 81 456 -9 320 -9 c 0
 190 -9 126 71 126 152 c 0
 126 257 227 351 311 351 c 0
 356 351 386 320 386 279 c 0
 386 214 331 167 271 167 c 0
 227 167 202 197 202 235 c 0
 202 244 l 1
 200 242 198 241 198 229 c 0xfcf0
 198 225 198 222 199 219 c 1
 183 190 184 168 184 165 c 0xfa70
 184 91 249 41 330 41 c 0
 425 41 521 109 537 191 c 2
 583 405 l 2
 584 413 585 420 585 427 c 0
 585 436 584 446 581 455 c 1
557 499 m 1
 529 533 480 556 424 556 c 0
 337 556 232 514 232 469 c 0
 232 448 250 434 309 434 c 0
 393 434 488 459 557 499 c 1
EndSplineSet
EndChar

StartChar: uni0E2F
Encoding: 3631 3631 258
Width: 574
VWidth: 1507
Flags: W
HStem: -9 21G<428.203 441.5> 363 52<275.784 432.171> 430 34<243 281.384> 561 45<212.663 293.865>
VStem: 151 46<467.849 546.516> 297 43<478.305 549.211> 424 70<10.4694 433.459>
LayerCount: 2
Fore
SplineSet
258 561 m 256
 222 561 197 531 197 500 c 0
 197 478 213 464 237 464 c 256
 271 464 297 492 297 525 c 0
 297 540 289 561 258 561 c 256
555 606 m 1
 584 606 600 583 600 559 c 0
 600 554 599 548 598 543 c 2
 494 54 l 2
 487 21 459 -9 424 -9 c 1
 515 424 l 1
 531 434 532 440 549 457 c 1
 549 461 l 1
 504 413 419 363 335 363 c 0
 243 363 151 417 151 488 c 0
 151 559 212 606 267 606 c 0
 325 606 340 560 340 532 c 0
 340 483 293 431 243 430 c 1
 247 427 l 1
 257 427 263 428 271 430 c 1
 292 420 317 415 345 415 c 0
 413 415 523 457 555 606 c 1
EndSplineSet
EndChar

StartChar: uni0E30
Encoding: 3632 3632 259
Width: 506
VWidth: 1507
Flags: W
HStem: 24 52<177.196 279.068 204.931 345.205> 80 35<176.33 223.576> 211 45<151.82 234.259> 341 51<245.364 345.773 271.481 412.91> 396 35<228.548 289.73> 528 45<220.268 300.778>
VStem: 91 47<127.6 197.662> 158 47<443.274 512.837> 237 43<128.223 199.548> 304 43<445.754 524.422> 443 46<180.137 250.358> 509 48<497.137 566.49>
LayerCount: 2
Fore
SplineSet
265 528 m 256
 229 528 205 496 205 468 c 0
 205 453 213 431 244 431 c 256
 280 431 304 462 304 490 c 0
 304 513 288 528 265 528 c 256
347 501 m 0
 347 438 293 396 257 396 c 0
 250 396 246 397 244 398 c 1
 244 393 l 1
 248 392 251 392 255 392 c 0
 265 392 275 394 286 398 c 1
 299 394 316 392 332 392 c 0
 411 392 495 450 509 573 c 1
 536 573 557 555 557 529 c 0
 557 485 480 341 321 341 c 0
 246 341 158 382 158 455 c 0
 158 522 215 573 274 573 c 0
 323 573 347 537 347 501 c 0
197 211 m 256
 167 211 138 187 138 154 c 0
 138 138 146 115 178 115 c 256
 213 115 237 143 237 176 c 0
 237 190 229 211 197 211 c 256
280 186 m 0
 280 126 232 80 190 80 c 0
 184 80 179 80 176 81 c 1
 176 77 l 1
 180 76 184 76 188 76 c 0
 198 76 208 78 219 81 c 1
 237 77 250 75 264 75 c 0
 344 75 429 133 443 256 c 1
 471 256 489 237 489 213 c 0
 489 166 411 24 253 24 c 0
 169 24 91 74 91 140 c 0
 91 204 149 256 208 256 c 0
 251 256 280 226 280 186 c 0
EndSplineSet
EndChar

StartChar: uni0E31
Encoding: 3633 3633 260
Width: 0
VWidth: 1507
Flags: W
HStem: 692 51<-76.9622 77.664> 889 46<-140.689 -59.2819>
VStem: -201 46<805.048 874.318> -56 43<807.474 877.348>
LayerCount: 2
Fore
SplineSet
-95 889 m 256
 -131 889 -155 858 -155 830 c 0
 -155 815 -147 793 -116 793 c 256
 -80 793 -56 824 -56 852 c 0
 -56 867 -64 889 -95 889 c 256
247 893 m 0
 247 838 152 692 -18 692 c 0
 -102 692 -201 740 -201 818 c 0
 -201 888 -139 935 -86 935 c 0
 -28 935 -13 889 -13 861 c 0
 -13 808 -58 761 -110 758 c 1
 -106 755 l 1
 -96 755 -96 756 -81 758 c 1
 -60 748 -36 743 -8 743 c 0
 75 743 172 799 200 935 c 1
 238 935 247 906 247 893 c 0
EndSplineSet
Substitution2: "Single Substitution lookup 22 subtable" uni0E31.alt1
Substitution2: "Single Substitution lookup 22 subtable" uni0E31.alt1
EndChar

StartChar: uni0E32
Encoding: 3634 3634 261
Width: 545
VWidth: 1507
Flags: W
HStem: -9 21G<399.3 412.5> 555 51<277.313 437.951>
VStem: 126 47<383.169 453.476> 488 58<388.719 405 405 418.34 418.34 420.64 419.49 507.57>
LayerCount: 2
Fore
SplineSet
372 606 m 0
 464 606 546 555 546 451 c 0
 546 437 544 421 541 405 c 2
 466 54 l 2
 459 21 430 -9 395 -9 c 1
 484 405 l 2
 486 417 488 428 488 438 c 0
 488 501 444 555 362 555 c 0
 260 555 173 467 173 377 c 1
 147 377 126 394 126 419 c 0
 126 475 226 606 372 606 c 0
EndSplineSet
EndChar

StartChar: uni0E34
Encoding: 3636 3636 263
Width: 0
VWidth: 1507
Flags: MW
HStem: 706 44<-306.839 -93.1852> 837 40<-236.957 -61.377>
VStem: 14 49<711 768.583>
LayerCount: 2
Fore
SplineSet
63 722 m 0
 63 677 43 670 30 670 c 0
 17 670 -68 706 -248 706 c 0
 -317 706 -373 701 -374 701 c 0
 -384 701 -393 708 -393 718 c 0
 -393 774 -275 877 -128 877 c 256
 2 877 63 784 63 722 c 0
-211 750 m 0
 -155 750 -70 743 14 711 c 1
 14 775 -65 837 -137 837 c 0
 -203 837 -298 803 -336 739 c 1
 -294 746 -253 750 -211 750 c 0
EndSplineSet
Substitution2: "Single Substitution lookup 22 subtable" uni0E34.alt1
Substitution2: "Single Substitution lookup 22 subtable" uni0E34.alt1
EndChar

StartChar: uni0E35
Encoding: 3637 3637 264
Width: 0
VWidth: 1507
Flags: MW
HStem: 706 44<-306.839 -93.1852> 837 40<-236.957 -60.3098>
VStem: 14 49<711 744.466> 42 65<809.389 933.074>
LayerCount: 2
Fore
SplineSet
63 710 m 2
 63 689 50 670 30 670 c 0
 17 670 -68 706 -248 706 c 0
 -317 706 -373 701 -374 701 c 0
 -384 701 -393 708 -393 718 c 0
 -393 774 -275 877 -128 877 c 0
 -35 877 13 828 27 811 c 1
 42 880 l 2
 48 912 70 935 107 935 c 1
 63 728 l 1
 63 710 l 2
-211 750 m 0
 -155 750 -70 743 14 711 c 1
 14 775 -65 837 -137 837 c 0
 -203 837 -298 803 -336 739 c 1
 -294 746 -253 750 -211 750 c 0
EndSplineSet
Substitution2: "Single Substitution lookup 22 subtable" uni0E35.alt1
Substitution2: "Single Substitution lookup 22 subtable" uni0E35.alt1
EndChar

StartChar: uni0E36
Encoding: 3638 3638 265
Width: 0
VWidth: 1507
Flags: MW
HStem: 706 44<-306.839 -93.1852> 837 40<-236.957 -76.1866> 894 41<13.165 80.3502>
VStem: 14 50<711.404 746.015> 82 44<823.486 885.76>
LayerCount: 2
Fore
SplineSet
64 721 m 0
 64 699 57 670 30 670 c 0
 17 670 -68 706 -248 706 c 0
 -317 706 -373 701 -374 701 c 0
 -384 701 -393 708 -393 718 c 0
 -393 774 -275 877 -128 877 c 0
 -95 877 -64 871 -35 858 c 1
 -25 897 17 935 60 935 c 256
 101 935 126 903 126 872 c 0
 126 824 83 787 50 778 c 1
 58 759 64 738 64 721 c 0
-211 750 m 0
 -155 750 -70 743 14 711 c 1
 14 775 -65 837 -137 837 c 0
 -203 837 -298 803 -336 739 c 1
 -294 746 -253 750 -211 750 c 0
53 894 m 256
 27 894 4 873 4 845 c 0
 4 823 21 817 36 817 c 0
 64 817 82 839 82 864 c 0
 82 876 76 894 53 894 c 256
EndSplineSet
Substitution2: "Single Substitution lookup 22 subtable" uni0E36.alt1
Substitution2: "Single Substitution lookup 22 subtable" uni0E36.alt1
EndChar

StartChar: uni0E37
Encoding: 3639 3639 266
Width: 0
VWidth: 1507
Flags: MW
HStem: 706 44<-306.839 -93.1852> 837 40<-236.957 -75.7239>
VStem: 14 49<711 744.466> 42 65<809.389 933.074>
LayerCount: 2
Fore
SplineSet
63 710 m 2
 63 689 50 670 30 670 c 0
 17 670 -68 706 -248 706 c 0
 -317 706 -373 701 -374 701 c 0
 -384 701 -393 708 -393 718 c 0
 -393 774 -275 877 -128 877 c 0
 -101 877 -75 873 -51 865 c 1
 -48 880 l 2
 -43 912 -19 935 15 935 c 1
 -3 840 l 1
 27 811 l 1
 42 880 l 2
 48 912 70 935 107 935 c 1
 63 728 l 1
 63 710 l 2
-211 750 m 0
 -155 750 -70 743 14 711 c 1
 14 775 -65 837 -137 837 c 0
 -203 837 -298 803 -336 739 c 1
 -294 746 -253 750 -211 750 c 0
EndSplineSet
Substitution2: "Single Substitution lookup 22 subtable" uni0E37.alt1
Substitution2: "Single Substitution lookup 22 subtable" uni0E37.alt1
EndChar

StartChar: uni0E38
Encoding: 3640 3640 267
Width: 0
VWidth: 1507
Flags: W
HStem: -232 42<-249.572 -173.913> -102 42<-239.355 -165.071>
VStem: -294 42<-187.045 -114.214> -162 43<-161.894 -113.087>
LayerCount: 2
Fore
SplineSet
-188 -60 m 256
 -145 -60 -119 -94 -119 -128 c 0
 -119 -133 -120 -140 -121 -146 c 2
 -148 -270 l 2
 -153 -303 -182 -330 -214 -330 c 1
 -193 -234 l 1
 -182 -229 -172 -221 -164 -211 c 1
 -166 -206 l 1
 -180 -223 -200 -232 -225 -232 c 0
 -268 -232 -294 -198 -294 -165 c 0
 -294 -111 -242 -60 -188 -60 c 256
-197 -102 m 256
 -229 -102 -252 -130 -252 -157 c 0
 -252 -177 -236 -190 -216 -190 c 256
 -188 -190 -162 -164 -162 -138 c 0
 -162 -125 -169 -102 -197 -102 c 256
EndSplineSet
Substitution2: "Single Substitution lookup 21 subtable" a
Substitution2: "Single Substitution lookup 22 subtable" uni0E38.alt1
Substitution2: "Single Substitution lookup 21 subtable" a
Substitution2: "Single Substitution lookup 22 subtable" uni0E38.alt1
EndChar

StartChar: uni0E39
Encoding: 3641 3641 268
Width: 0
VWidth: 1507
Flags: W
HStem: -330 48<-270.393 -203.247> -232 42<-377.999 -303.186> -102 42<-369.093 -294.251>
VStem: -424 43<-187.503 -113.986> -327 56<-273.5 -252 -256.5 -247.5 -247.5 -242 -242 -234> -291 43<-161.707 -105.309>
LayerCount: 2
Fore
SplineSet
-318 -60 m 256xf8
 -273 -60 -248 -96 -248 -129 c 0xf4
 -248 -134 -249 -140 -250 -146 c 2
 -271 -243 l 2
 -272 -246 -272 -249 -272 -252 c 0
 -272 -264 -266 -282 -241 -282 c 0
 -221 -282 -200 -266 -196 -243 c 2
 -170 -122 l 2
 -163 -90 -136 -62 -102 -62 c 1
 -142 -243 l 2
 -151 -288 -196 -330 -252 -330 c 0
 -281 -330 -328 -313 -328 -263 c 0
 -328 -259 -328 -254 -327 -250 c 2
 -323 -234 l 1
 -312 -229 -302 -221 -294 -211 c 1
 -295 -206 l 1
 -310 -223 -329 -232 -354 -232 c 0
 -399 -232 -424 -197 -424 -165 c 0
 -424 -111 -372 -60 -318 -60 c 256xf8
-327 -102 m 256xf8
 -354 -102 -381 -126 -381 -156 c 0
 -381 -176 -365 -190 -345 -190 c 256
 -315 -190 -291 -160 -291 -138 c 0xf4
 -291 -118 -306 -102 -327 -102 c 256xf8
EndSplineSet
Substitution2: "Single Substitution lookup 21 subtable" b
Substitution2: "Single Substitution lookup 22 subtable" uni0E39.alt1
Substitution2: "Single Substitution lookup 21 subtable" b
Substitution2: "Single Substitution lookup 22 subtable" uni0E39.alt1
EndChar

StartChar: uni0E3A
Encoding: 3642 3642 269
Width: 0
VWidth: 1507
Flags: W
HStem: -163 103<-177.006 -105.978>
VStem: -194 105<-145.792 -76.8915>
LayerCount: 2
Fore
SplineSet
-194 -122 m 0
 -194 -90 -164 -60 -131 -60 c 256
 -106 -60 -89 -79 -89 -101 c 0
 -89 -135 -122 -163 -152 -163 c 256
 -177 -163 -194 -145 -194 -122 c 0
EndSplineSet
Substitution2: "Single Substitution lookup 21 subtable" c
Substitution2: "Single Substitution lookup 22 subtable" uni0E3A.alt1
Substitution2: "Single Substitution lookup 21 subtable" c
Substitution2: "Single Substitution lookup 22 subtable" uni0E3A.alt1
EndChar

StartChar: uni0E3F
Encoding: 3647 3647 270
Width: 700
VWidth: 1507
Flags: W
HStem: 0 54<161 297 359 557.359> 332 54<232 366 430 560.15> 662 54<291 437 499 612.081>
VStem: 641 60<143.252 298.999> 649 60<479.804 624.75>
LayerCount: 2
Fore
SplineSet
709 564 m 0xe8
 709 470 639 399 592 377 c 1
 672 358 701 296 701 237 c 0xf0
 701 139 618 -0 475 0 c 2
 348 0 l 1
 341 -33 l 2
 333 -67 312 -84 279 -84 c 1
 297 0 l 1
 121 0 l 2
 106 0 95 12 95 24 c 0
 95 26 95 28 96 30 c 1
 235 686 l 2
 240 706 252 716 271 716 c 2
 448 716 l 1
 455 749 l 2
 463 783 484 800 517 800 c 1
 499 716 l 1
 565 716 l 2
 656 716 709 643 709 564 c 0xe8
641 234 m 0
 641 293 602 332 545 332 c 2
 418 332 l 1
 359 54 l 1
 485 54 l 2
 582 54 641 148 641 234 c 0
649 556 m 0xe8
 649 609 615 662 555 662 c 2
 488 662 l 1
 430 386 l 1
 496 386 l 2
 568 386 649 473 649 556 c 0xe8
161 54 m 1
 307 54 l 1
 366 332 l 1
 220 332 l 1
 161 54 l 1
232 386 m 1
 378 386 l 1
 437 662 l 1
 291 662 l 1
 232 386 l 1
EndSplineSet
EndChar

StartChar: uni0E40
Encoding: 3648 3648 271
Width: 322
VWidth: 1507
Flags: W
HStem: -9 45<154.389 236.307> 133 45<164.993 246.259> 586 20G<258 271.748>
VStem: 105 46<48.9732 101.062> 250 47<49.4352 120.411>
LayerCount: 2
Fore
SplineSet
181 -9 m 256
 133 -9 105 24 105 64 c 0
 105 70 106 77 107 84 c 2
 205 543 l 2
 212 572 240 606 276 606 c 1
 185 178 l 1
 174 172 164 164 155 154 c 1
 157 149 l 1
 172 169 189 178 222 178 c 0
 267 178 297 148 297 107 c 0
 297 45 243 -9 181 -9 c 256
211 133 m 256
 176 133 151 103 151 75 c 0
 151 59 159 36 191 36 c 256
 223 36 250 60 250 95 c 0
 250 110 242 133 211 133 c 256
EndSplineSet
EndChar

StartChar: uni0E42
Encoding: 3650 3650 273
Width: 426
VWidth: 1507
Flags: W
HStem: -9 45<258.389 340.307> 133 45<268.993 350.259> 942 51<288.539 441.174>
VStem: 209 46<48.9732 101.062> 354 47<49.4352 120.411 738.577 740 740 755> 525 56<900 951>
LayerCount: 2
Fore
SplineSet
315 133 m 256
 280 133 255 103 255 75 c 0
 255 59 263 36 295 36 c 256
 327 36 354 60 354 95 c 0
 354 110 346 133 315 133 c 256
380 993 m 0
 434 993 501 972 523 895 c 1
 525 900 l 1
 525 908 522 917 515 928 c 1
 558 984 l 1
 577 975 581 962 581 951 c 0
 581 939 576 926 567 913 c 2
 531 859 l 2
 521 847 511 841 502 841 c 0
 498 841 484 842 481 859 c 0
 472 898 442 942 368 942 c 256
 281 942 238 880 223 843 c 1
 375 805 l 2
 396 800 410 782 410 756 c 0
 410 751 409 746 408 740 c 2
 289 178 l 1
 278 172 268 164 259 154 c 1
 261 149 l 1
 276 169 293 178 326 178 c 0
 371 178 401 148 401 107 c 0
 401 45 347 -9 285 -9 c 256
 237 -9 209 24 209 64 c 0
 209 70 210 77 211 84 c 2
 354 755 l 1
 297 770 268 778 211 792 c 2
 178 800 l 2
 166 803 160 811 160 823 c 0
 160 861 234 993 380 993 c 0
EndSplineSet
EndChar

StartChar: uni0E43
Encoding: 3651 3651 274
Width: 426
VWidth: 1507
Flags: W
HStem: -9 45<258.389 340.307> 133 45<268.993 350.259> 699 46<262.937 344.229> 841 39<273.377 355.583> 942 51<329.454 460.518>
VStem: 209 46<48.9732 101.062 759.258 844.972> 354 47<49.4352 120.411 757.398 838.196> 492 58<780.986 910.325>
LayerCount: 2
Fore
SplineSet
315 133 m 256
 280 133 255 103 255 75 c 0
 255 59 263 36 295 36 c 256
 327 36 354 60 354 95 c 0
 354 110 346 133 315 133 c 256
320 841 m 256
 283 841 259 811 259 781 c 0
 259 767 269 745 300 745 c 256
 336 745 359 776 359 806 c 0
 359 827 343 841 320 841 c 256
261 149 m 1
 276 169 293 178 326 178 c 0
 371 178 401 148 401 107 c 0
 401 45 347 -9 285 -9 c 256
 237 -9 209 24 209 64 c 0
 209 70 210 77 211 84 c 2
 303 511 l 2
 345 709 492 740 492 847 c 0
 492 893 461 942 402 942 c 0
 345 942 302 906 277 871 c 2
 265 862 258 854 250 841 c 1
 250 837 l 1
 268 863 301 880 329 880 c 0
 385 880 404 842 404 813 c 0
 404 754 352 699 289 699 c 0
 222 699 205 757 205 789 c 0
 205 887 301 993 415 993 c 256
 489 993 550 939 550 859 c 0
 550 727 399 706 360 511 c 2
 289 178 l 1
 278 172 268 164 259 154 c 1
 261 149 l 1
EndSplineSet
EndChar

StartChar: uni0E44
Encoding: 3652 3652 275
Width: 425
VWidth: 1507
Flags: W
HStem: -9 45<258.389 340.307> 133 45<268.993 350.259>
VStem: 209 46<48.9732 101.062> 354 47<49.4352 120.411> 479 46<843.328 929.48>
LayerCount: 2
Fore
SplineSet
315 133 m 256
 280 133 255 103 255 75 c 0
 255 59 263 36 295 36 c 256
 327 36 354 60 354 95 c 0
 354 110 346 133 315 133 c 256
485 993 m 0
 501 993 525 953 525 905 c 0
 525 858 510 821 456 740 c 2
 431 702 l 2
 408 670 389 639 360 511 c 2
 289 178 l 1
 278 172 268 164 259 154 c 1
 261 149 l 1
 276 169 293 178 326 178 c 0
 371 178 401 148 401 107 c 0
 401 45 347 -9 285 -9 c 256
 237 -9 209 24 209 64 c 0
 209 70 210 77 211 84 c 2
 303 511 l 2
 314 561 339 655 395 725 c 2
 418 758 l 2
 476 840 479 870 479 897 c 0
 479 911 477 923 473 935 c 1
 332 764 l 2
 326 755 317 751 304 751 c 0
 294 751 287 755 283 764 c 2
 219 919 l 2
 216 925 215 931 215 937 c 0
 215 960 230 982 250 993 c 1
 323 812 l 1
 464 980 l 2
 466 982 472 993 485 993 c 0
EndSplineSet
EndChar

StartChar: uni0E45
Encoding: 3653 3653 276
Width: 545
VWidth: 1507
Flags: W
HStem: 555 51<277.313 437.951>
VStem: 126 47<383.169 453.476> 488 58<388.683 405 405 418.34 418.34 420.64 419.49 507.57>
LayerCount: 2
Fore
SplineSet
372 606 m 0
 464 606 546 555 546 451 c 0
 546 437 544 421 541 405 c 2
 416 -179 l 2
 407 -219 374 -243 345 -243 c 1
 484 405 l 2
 486 417 488 428 488 438 c 0
 488 501 444 555 362 555 c 0
 260 555 173 467 173 377 c 1
 147 377 126 394 126 419 c 0
 126 475 226 606 372 606 c 0
EndSplineSet
EndChar

StartChar: uni0E46
Encoding: 3654 3654 277
Width: 563
VWidth: 1507
Flags: MW
HStem: 277 46<187.132 267.182> 419 41<198.209 277.592> 586 20G<297.5 335.5 462.5 494.5>
VStem: 138 46<326.041 387.619> 281 47<337.13 406.346> 508 57<417.659 434 434 446.539 446.539 449.97 448.254 538.843>
LayerCount: 2
Fore
SplineSet
467 556 m 1
 395 499 383 488 370 488 c 0
 347 488 327 532 303 556 c 1
 264 543 230 502 213 458 c 1
 202 452 192 445 185 436 c 1
 185 431 l 1
 202 451 220 460 250 460 c 0
 295 460 328 432 328 389 c 0
 328 332 274 277 213 277 c 0
 168 277 138 309 138 353 c 0
 138 359 139 365 140 371 c 2
 154 434 l 2
 176 548 272 606 323 606 c 0
 348 606 349 577 383 547 c 1
 449 603 460 606 465 606 c 0
 524 606 570 546 570 479 c 0
 570 466 568 451 565 434 c 2
 434 -179 l 2
 427 -211 397 -243 363 -243 c 1
 508 434 l 2
 511 447 512 459 512 470 c 0
 512 508 498 544 467 556 c 1
281 380 m 0
 281 396 273 419 243 419 c 0
 216 419 184 395 184 360 c 0
 184 338 199 323 222 323 c 0
 255 323 281 350 281 380 c 0
EndSplineSet
EndChar

StartChar: uni0E47
Encoding: 3655 3655 278
Width: 0
VWidth: 1507
Flags: W
HStem: 687 35<-59.6551 -42> 834 43<-32.2314 34.5228> 916 49<-184.71 77.5>
VStem: -298 55<762.306 862.372> -208 28<734.74 752.014> -83 43<762.662 826.838> 36 44<766.312 824.951>
LayerCount: 2
Fore
SplineSet
3 965 m 2
 60 965 103 998 128 1034 c 1
 138 1025 143 1014 143 1000 c 0
 143 950 77 916 -6 916 c 2
 -109 916 l 2
 -171 916 -243 875 -243 801 c 0
 -243 786 -240 760 -208 734 c 1
 -208 797 -146 813 -138 813 c 0
 -127 813 -119 803 -119 793 c 0
 -119 791 -120 788 -120 782 c 0
 -120 741 -84 733 -68 731 c 1
 -62 725 -53 722 -42 722 c 1
 -36 724 l 1
 -78 728 -83 767 -83 783 c 0
 -83 824 -44 877 14 877 c 0
 52 877 80 852 80 816 c 0
 80 752 14 687 -56 687 c 256
 -143 687 -166 731 -167 763 c 1
 -179 754 -180 743 -180 738 c 0
 -180 720 -170 712 -170 706 c 0
 -170 698 -179 687 -197 687 c 0
 -253 687 -298 728 -298 793 c 0
 -298 902 -189 965 -98 965 c 2
 3 965 l 2
36 804 m 0
 36 814 30 834 5 834 c 0
 -20 834 -40 811 -40 788 c 0
 -40 770 -28 758 -11 758 c 0
 12 758 36 779 36 804 c 0
EndSplineSet
Substitution2: "Single Substitution lookup 22 subtable" uni0E47.alt1
Substitution2: "Single Substitution lookup 22 subtable" uni0E47.alt1
EndChar

StartChar: uni0E4D
Encoding: 3661 3661 284
Width: 0
VWidth: 1507
Flags: W
HStem: 686 38<-4.58887 81.7074> 841 38<11.5195 96.89>
VStem: -54 44<729.516 818.155> 103 45<745.476 824.809>
LayerCount: 2
Fore
SplineSet
-54 760 m 0
 -54 827 6 879 66 879 c 256
 116 879 148 844 148 802 c 0
 148 740 87 686 26 686 c 0
 -21 686 -54 719 -54 760 c 0
59 841 m 256
 18 841 -10 800 -10 767 c 0
 -10 745 5 724 35 724 c 256
 76 724 103 765 103 796 c 0
 103 812 95 841 59 841 c 256
EndSplineSet
Substitution2: "Single Substitution lookup 22 subtable" uni0E4D.alt1
Substitution2: "Single Substitution lookup 22 subtable" uni0E4D.alt1
EndChar

StartChar: uni0E4E
Encoding: 3662 3662 285
Width: 0
VWidth: 1507
Flags: W
HStem: 677 42<-95.0138 17.9196> 844 30<-2.33984 34.0279> 965 42<24.9133 127.012>
VStem: -148 49<724.629 796.991> -55 50<880.409 934.751> 130 34<922.531 925.646 924.089 959.24>
LayerCount: 2
Fore
SplineSet
-55 888 m 0
 -55 941 15 1007 95 1007 c 0
 134 1007 164 987 164 956 c 0
 164 928 142 921 135 921 c 1
 130 922 l 1
 130 924 131 927 131 929 c 0
 131 950 109 965 87 965 c 0
 36 965 -5 923 -5 897 c 0
 -5 888 1 874 26 874 c 0
 32 874 39 871 39 865 c 0
 39 862 35 844 20 844 c 0
 -40 840 -99 790 -99 753 c 0
 -99 733 -75 719 -54 719 c 0
 -7 719 31 745 54 770 c 1
 61 766 64 758 64 747 c 0
 64 712 5 677 -63 677 c 0
 -110 677 -148 702 -148 740 c 0
 -148 783 -107 836 -47 862 c 1
 -52 870 -55 878 -55 888 c 0
EndSplineSet
Substitution2: "Single Substitution lookup 22 subtable" uni0E4E.alt1
Substitution2: "Single Substitution lookup 22 subtable" uni0E4E.alt1
EndChar

StartChar: uni0E4F
Encoding: 3663 3663 286
Width: 688
VWidth: 1507
Flags: W
HStem: -9 51<266.661 448.845> 95 54<320.187 441.838> 342 53<352.19 473.966> 448 52<344.234 525.115>
VStem: 136 53<120.699 291.142> 243 54<172.153 287.51> 496 54<204.286 319.293> 603 54<200.332 371.254>
LayerCount: 2
Fore
SplineSet
377 149 m 256
 448 149 496 214 496 268 c 0
 496 308 465 342 418 342 c 256
 353 342 297 283 297 224 c 0
 297 182 329 149 377 149 c 256
550 278 m 0
 550 190 465 95 365 95 c 256
 286 95 243 154 243 213 c 0
 243 304 329 395 428 395 c 256
 507 395 550 337 550 278 c 0
353 42 m 0
 486 42 603 166 603 291 c 0
 603 370 549 448 440 448 c 0
 303 448 189 319 189 205 c 0
 189 107 258 42 353 42 c 0
657 301 m 0
 657 147 514 -9 342 -9 c 256
 206 -9 136 91 136 189 c 0
 136 349 284 500 451 500 c 0
 583 500 657 402 657 301 c 0
EndSplineSet
EndChar

StartChar: uni0E50
Encoding: 3664 3664 287
Width: 694
VWidth: 1507
Flags: W
HStem: -9 51<265.933 451.559> 405 52<337.736 521.687>
VStem: 132 59<112.566 270.443> 597 59<177.077 333.29>
LayerCount: 2
Fore
SplineSet
132 180 m 0
 132 320 278 457 443 457 c 256
 586 457 656 358 656 270 c 0
 656 122 499 -9 344 -9 c 256
 225 -9 132 70 132 180 c 0
433 405 m 256
 307 405 191 303 191 189 c 0
 191 93 272 42 354 42 c 256
 471 42 597 137 597 257 c 0
 597 354 518 405 433 405 c 256
EndSplineSet
EndChar

StartChar: uni0E51
Encoding: 3665 3665 288
Width: 694
VWidth: 1507
Flags: W
HStem: -65 41<377.859 434.903> 42 60<246.78 352.566> 200 46<296.603 379.021> 405 52<335.944 518.789>
VStem: 129 59<137.876 265.879> 235 47<105.64 185.618> 383 46<117.695 187.147> 591 58<135.612 326.783>
LayerCount: 2
Fore
SplineSet
129 170 m 0
 129 291 250 457 446 457 c 0
 575 457 649 361 649 244 c 0
 649 49 456 -65 414 -65 c 0
 397 -65 376 -54 372 -24 c 1
 462 -13 591 94 591 233 c 0
 591 299 560 405 436 405 c 0
 290 405 188 284 188 185 c 0
 188 162 194 118 238 99 c 1
 244 89 255 82 270 77 c 1
 276 78 l 1
 260 84 235 100 235 134 c 0
 235 191 289 246 351 246 c 256
 400 246 429 211 429 170 c 0
 429 93 340 42 264 42 c 0
 174 42 129 99 129 170 c 0
383 164 m 0
 383 178 373 200 342 200 c 256
 306 200 282 169 282 141 c 0
 282 118 297 102 321 102 c 256
 356 102 383 132 383 164 c 0
EndSplineSet
EndChar

StartChar: uni0E52
Encoding: 3666 3666 289
Width: 694
VWidth: 1507
Flags: W
HStem: -9 51<256.339 462.461> 131 45<293.653 374.463> 274 47<303.27 386.583>
VStem: 126 58<101.043 172.231 172 172.461 172.461 185 185 201.902> 177 59<403.693 506.581> 242 48<188.475 243.096> 390 47<190.759 270.104> 612 57<286.646 304 304 313.965 313.965 316.875 315.42 388.555>
LayerCount: 2
Fore
SplineSet
570 411 m 1xf7
 538 392 497 352 475 352 c 0
 457 352 408 411 408 411 c 1
 394 408 337 391 323 321 c 1
 317 318 312 315 308 310 c 1
 294 297 l 1
 295 292 l 1
 312 312 330 321 360 321 c 0
 406 321 437 288 437 248 c 0
 437 185 380 131 320 131 c 256
 258 131 242 182 242 207 c 0
 242 213 243 219 244 226 c 2
 261 304 l 2
 279 383 354 457 427 457 c 0
 437 457 445 447 487 405 c 1
 516 424 550 457 570 457 c 0
 620 457 673 410 673 341 c 0
 673 330 672 317 669 304 c 2
 645 185 l 2
 618 55 450 -9 345 -9 c 0
 241 -9 126 49 126 149 c 0xf7
 126 160 127 172 130 185 c 2
 170 383 l 2
 175 403 177 422 177 441 c 0
 177 489 165 517 133 540 c 1
 156 560 178 560 183 560 c 0
 197 560 207 555 214 544 c 0
 229 521 236 492 236 458 c 0xef
 236 435 234 410 228 383 c 2
 187 185 l 2
 185 176 184 168 184 159 c 0
 184 89 266 42 356 42 c 256
 446 42 567 92 588 185 c 2
 612 304 l 2
 615 314 616 324 616 333 c 0
 616 380 575 409 570 411 c 1xf7
390 237 m 0
 390 259 374 274 350 274 c 256
 319 274 290 250 290 216 c 0
 290 198 298 176 329 176 c 256
 360 176 390 201 390 237 c 0
EndSplineSet
EndChar

StartChar: uni0E53
Encoding: 3667 3667 290
Width: 694
VWidth: 1507
Flags: W
HStem: -9 45<156.426 237.075> 134 47<165.787 249.471> 405 52<262.228 373.257 482.842 601.87>
VStem: 91 61<40.2155 186.648> 253 47<52.2923 121.327> 616 58<315.508 339.5 339.5 345.023 342.262 388.616>
LayerCount: 2
Fore
SplineSet
433 407 m 1
 463 434 506 457 558 457 c 0
 630 457 677 410 677 358 c 0
 677 350 676 341 674 332 c 2
 615 54 l 2
 608 21 579 -9 544 -9 c 1
 616 332 l 2
 617 337 618 342 618 347 c 0
 618 369 597 405 547 405 c 256
 497 405 454 368 445 332 c 2
 413 179 l 2
 410 169 399 151 378 151 c 256
 365 151 355 159 355 172 c 0
 355 174 355 176 356 179 c 2
 387 332 l 2
 388 337 389 342 389 347 c 0
 389 367 372 405 318 405 c 0
 251 405 160 300 151 161 c 1
 140 150 132 140 128 131 c 1
 128 127 l 1
 144 159 187 181 223 181 c 0
 270 181 300 147 300 106 c 0
 300 52 248 -9 182 -9 c 0
 109 -9 91 75 91 133 c 0
 91 281 195 457 329 457 c 0
 371 457 411 440 433 407 c 1
253 95 m 0
 253 111 245 134 213 134 c 256
 177 134 152 107 152 74 c 0
 152 51 171 36 193 36 c 256
 228 36 253 69 253 95 c 0
EndSplineSet
EndChar

StartChar: uni0E54
Encoding: 3668 3668 291
Width: 694
VWidth: 1507
Flags: W
HStem: 0 51<255.277 393 454.763 597.512> 128 45<378.834 461.663> 273 45<390.975 473.6> 396 52<321.495 644.036>
VStem: 132 59<113.31 270.376> 325 50<150.497 256.591> 478 46<188.982 268.042>
LayerCount: 2
Fore
SplineSet
325 177 m 0
 325 296 414 318 446 318 c 256
 494 318 524 283 524 241 c 0
 524 183 468 128 407 128 c 0
 389 128 373 137 365 145 c 1
 365 140 l 1
 375 132 382 129 396 125 c 1
 431 76 499 57 558 57 c 0
 586 57 605 35 605 8 c 0
 605 6 604 3 604 0 c 1
 321 0 l 2
 211 0 132 69 132 173 c 0
 132 318 267 448 416 448 c 2
 564 448 l 2
 642 448 713 509 748 561 c 1
 754 557 766 545 766 522 c 0
 766 508 760 494 748 482 c 0
 696 434 630 396 552 396 c 2
 404 396 l 2
 295 396 191 293 191 189 c 0
 191 114 246 51 332 51 c 2
 393 51 l 1
 401 46 408 43 414 42 c 2
 436 36 l 1
 440 38 l 1
 360 55 325 122 325 177 c 0
437 273 m 256
 402 273 375 243 375 211 c 0
 375 188 394 173 416 173 c 256
 451 173 478 203 478 235 c 0
 478 258 459 273 437 273 c 256
EndSplineSet
EndChar

StartChar: uni0E55
Encoding: 3669 3669 292
Width: 694
VWidth: 1507
Flags: W
HStem: 0 51<255.277 393 454.763 597.512> 128 45<378.834 461.663> 273 45<390.975 473.6> 396 46<320.054 389 436.237 519.795 559 631.352> 541 45<449.371 530.905>
VStem: 132 59<113.31 268.862> 325 50<150.497 256.591> 385 48<450.624 525.372> 478 46<188.982 268.042> 535 46<457.526 527.184>
LayerCount: 2
Fore
SplineSet
494 541 m 256
 458 541 433 508 433 480 c 0
 433 457 449 442 473 442 c 256
 504 442 535 469 535 501 c 0
 535 515 527 541 494 541 c 256
325 177 m 0
 325 296 414 318 446 318 c 256
 494 318 524 283 524 241 c 0
 524 183 468 128 407 128 c 0
 389 128 373 137 365 145 c 1
 365 140 l 1
 375 132 382 129 396 125 c 1
 431 76 499 57 558 57 c 0
 586 57 605 35 605 8 c 0
 605 6 604 3 604 0 c 1
 321 0 l 2
 211 0 132 69 132 173 c 0
 132 315 257 434 389 446 c 1
 386 453 385 460 385 467 c 0
 385 520 433 586 503 586 c 256
 554 586 581 550 581 510 c 0
 581 485 570 464 559 448 c 1
 640 448 712 508 748 561 c 1
 754 557 766 545 766 522 c 0
 766 508 760 494 748 482 c 0
 696 434 630 396 552 396 c 2
 404 396 l 2
 295 396 191 293 191 189 c 0
 191 114 246 51 332 51 c 2
 393 51 l 1
 401 46 408 43 414 42 c 2
 436 36 l 1
 440 38 l 1
 360 55 325 122 325 177 c 0
437 273 m 256
 402 273 375 243 375 211 c 0
 375 188 394 173 416 173 c 256
 451 173 478 203 478 235 c 0
 478 258 459 273 437 273 c 256
EndSplineSet
EndChar

StartChar: uni0E56
Encoding: 3670 3670 293
Width: 694
VWidth: 1507
Flags: MW
HStem: -9 51<290.452 464.796> 89 42<254.612 332.326> 229 45<262.1 344.087> 405 52<372.813 521.057>
VStem: 191 55<109.394 208.565> 243 52<415 476.715> 348 46<146.307 224.335> 597 59<172.432 332.423>
LayerCount: 2
Fore
SplineSet
433 405 m 0
 339 405 271 334 259 334 c 0
 256 334 241 335 241 351 c 0
 242 362 243 371 243 376 c 2
 243 401 l 2
 243 464 205 513 158 534 c 1
 172 550 192 560 211 560 c 0
 222 560 232 557 241 550 c 0
 277 514 295 471 295 423 c 2
 295 415 l 1
 361 451 413 457 443 457 c 0
 573 457 656 367 656 269 c 0
 656 143 537 -9 368 -9 c 0
 271 -9 191 48 191 132 c 0
 191 203 247 274 317 274 c 0
 365 274 394 240 394 197 c 0
 394 134 334 89 277 89 c 0
 265 89 245 94 235 106 c 1
 237 101 l 1
 245 95 254 90 264 87 c 1
 286 57 324 42 378 42 c 0
 504 42 597 159 597 256 c 0
 597 353 515 405 433 405 c 0
307 229 m 256
 271 229 246 196 246 168 c 0
 246 146 262 131 286 131 c 256
 320 131 348 160 348 190 c 0
 348 213 332 229 307 229 c 256
EndSplineSet
EndChar

StartChar: uni0E57
Encoding: 3671 3671 294
Width: 694
VWidth: 1507
Flags: W
HStem: -9 45<156.456 238.753> 134 47<165.787 249.808> 405 52<246.455 344.078 449.411 531.708>
VStem: 94 58<41.1131 188.642> 254 46<52.1215 129.948> 541 59<345.565 353 349.283 394.364>
LayerCount: 2
Fore
SplineSet
254 95 m 0
 254 118 237 134 213 134 c 256
 177 134 152 107 152 74 c 0
 152 51 171 36 193 36 c 256
 226 36 254 65 254 95 c 0
497 457 m 0
 571 457 600 407 600 370 c 0
 600 347 558 164 552 137 c 2
 538 65 l 1
 572 80 623 129 633 181 c 2
 675 383 l 2
 695 474 748 560 797 560 c 0
 815 560 830 553 840 540 c 1
 822 531 759 499 733 383 c 2
 690 181 l 2
 660 44 511 -11 490 -11 c 0
 477 -11 470 3 470 17 c 0
 470 20 l 2
 541 350 l 1
 541 352 542 354 542 356 c 0
 542 371 528 405 487 405 c 0
 451 405 414 375 410 350 c 2
 381 214 l 2
 378 204 367 185 347 185 c 256
 330 185 323 198 323 207 c 0
 323 209 323 212 324 214 c 1
 353 350 l 1
 353 352 354 354 354 356 c 0
 354 370 342 405 298 405 c 0
 210 405 160 245 151 161 c 1
 140 150 132 140 128 131 c 1
 128 127 l 1
 144 159 187 181 223 181 c 0
 270 181 300 147 300 106 c 0
 300 52 248 -9 182 -9 c 0
 147 -9 94 11 94 130 c 0
 94 261 166 457 309 457 c 0
 348 457 377 444 395 418 c 1
 434 452 477 457 497 457 c 0
EndSplineSet
EndChar

StartChar: uni0E58
Encoding: 3672 3672 295
Width: 694
VWidth: 1507
Flags: W
HStem: -9 51<412.629 513.91> 69 47<496.837 563.427> 214 45<509.253 590.703> 396 52<317.706 644.741>
VStem: 130 59<107.211 267.376> 448 46<127.124 198.491> 595 46<130.761 209.989>
LayerCount: 2
Fore
SplineSet
641 184 m 0
 641 120 572 -9 467 -9 c 0
 388 -9 335 38 320 107 c 1
 302 93 290 75 290 54 c 0
 290 39 295 30 295 24 c 0
 295 11 282 -9 259 -9 c 0
 166 -9 130 78 130 160 c 0
 130 327 274 448 416 448 c 2
 565 448 l 2
 643 448 713 509 748 561 c 1
 754 557 766 545 766 522 c 0
 766 508 760 494 748 482 c 0
 696 434 631 396 553 396 c 2
 404 396 l 2
 328 396 189 334 189 163 c 0
 189 132 199 64 258 44 c 1
 262 45 l 1
 252 49 244 54 237 60 c 1
 259 138 327 176 347 176 c 0
 385 176 351 135 400 76 c 0
 419 53 445 42 478 42 c 0
 489 42 512 47 535 66 c 1
 556 71 566 75 582 89 c 1
 577 90 l 1
 563 76 540 69 523 69 c 0
 472 69 448 107 448 142 c 0
 448 207 507 259 564 259 c 0
 611 259 641 225 641 184 c 0
494 151 m 0
 494 137 502 116 534 116 c 256
 568 116 595 144 595 173 c 0
 595 198 579 214 555 214 c 256
 522 214 494 187 494 151 c 0
EndSplineSet
EndChar

StartChar: uni0E59
Encoding: 3673 3673 296
Width: 694
VWidth: 1507
Flags: W
HStem: -9 30<270.731 310.953> 164 47<315.795 398.276> 405 52<301.36 421.351 525.111 620.887>
VStem: 131 57<88.1191 265.892> 254 46<79.6792 148.604> 402 46<81.9042 160.255> 725 48<496.078 554.444>
LayerCount: 2
Fore
SplineSet
448 136 m 0
 448 54 351 -9 285 -9 c 0
 181 -9 131 67 131 164 c 0
 131 327 267 457 372 457 c 0
 421 457 457 441 481 410 c 1
 503 432 542 457 582 457 c 0
 619 457 649 445 671 421 c 1
 701 444 725 496 725 551 c 2
 725 561 l 1
 754 561 773 543 773 516 c 0
 773 499 756 438 722 402 c 0
 691 368 667 355 653 355 c 0
 620 355 635 405 571 405 c 0
 547 405 519 382 508 363 c 1
 514 346 519 328 523 309 c 2
 535 250 l 2
 569 60 608 46 608 25 c 0
 608 4 587 -10 573 -10 c 0
 567 -10 559 -9 553 2 c 0
 529 42 505 84 478 229 c 2
 467 284 l 2
 447 385 404 405 362 405 c 0
 285 405 188 291 188 166 c 0
 188 103 219 61 267 45 c 1
 275 32 290 24 311 21 c 1
 311 26 l 1
 273 30 254 65 254 96 c 0
 254 154 309 211 371 211 c 256
 418 211 448 177 448 136 c 0
402 127 m 0
 402 149 386 164 362 164 c 256
 328 164 300 135 300 106 c 0
 300 92 308 66 341 66 c 256
 377 66 402 99 402 127 c 0
EndSplineSet
EndChar

StartChar: uni0E5A
Encoding: 3674 3674 297
Width: 743
VWidth: 1507
Flags: W
HStem: -9 21G<428.203 441.5 598.249 611.5> 363 52<275.784 432.171> 430 34<243 281.384> 561 45<212.663 293.865>
VStem: 151 46<467.849 546.516> 297 43<478.305 549.211> 594 71<11.7834 433.666>
LayerCount: 2
Fore
SplineSet
725 606 m 1
 753 606 771 583 771 558 c 0
 771 553 770 548 769 543 c 2
 665 54 l 2
 658 21 629 -9 594 -9 c 1
 686 424 l 1
 701 435 703 441 719 457 c 1
 719 461 l 1
 685 422 630 386 562 369 c 1
 494 54 l 2
 487 21 459 -9 424 -9 c 1
 515 424 l 1
 531 434 532 440 549 457 c 1
 549 461 l 1
 504 413 419 363 335 363 c 0
 243 363 151 417 151 488 c 0
 151 559 212 606 267 606 c 0
 325 606 340 560 340 532 c 0
 340 483 293 431 243 430 c 1
 247 427 l 1
 257 427 263 428 271 430 c 1
 292 420 317 415 345 415 c 0
 413 415 523 457 555 606 c 1
 584 606 600 583 600 559 c 0
 600 554 599 548 598 543 c 2
 573 424 l 1
 620 439 698 483 725 606 c 1
258 561 m 256
 222 561 197 531 197 500 c 0
 197 478 213 464 237 464 c 256
 271 464 297 492 297 525 c 0
 297 540 289 561 258 561 c 256
EndSplineSet
EndChar

StartChar: uni0E5B
Encoding: 3675 3675 298
Width: 1050
VWidth: 1507
Flags: W
HStem: 63 50<271.731 431.229> 222 40<342.949 420.311> 279 18<983.641 1027.93> 347 40<352.183 428.747> 493 47<335.871 463.462>
VStem: 171 54<160.717 348.773> 303 39<263.323 324.269> 473 54<381.861 462.447>
LayerCount: 2
Fore
SplineSet
395 347 m 256
 350 347 342 308 342 290 c 0
 342 271 354 262 377 262 c 256
 405 262 422 276 428 304 c 256
 434 333 423 347 395 347 c 256
877 283 m 1
 902 308 906 339 909 377 c 1
 961 351 965 308 1046 297 c 1
 1038 285 1025 279 1008 279 c 0
 974 279 946 292 925 318 c 1
 909 270 890 242 867 235 c 1
 845 235 846 334 831 359 c 1
 812 266 788 220 761 220 c 0
 744 220 749 325 731 351 c 1
 704 252 674 203 642 203 c 0
 629 203 629 328 616 351 c 1
 575 159 480 63 330 63 c 0
 203 63 171 156 171 231 c 0
 171 352 242 540 408 540 c 0
 483 540 527 500 527 427 c 0
 527 363 479 222 369 222 c 0
 329 222 303 253 303 289 c 0
 303 333 346 387 404 387 c 0
 430 387 450 377 463 357 c 1
 463 360 l 1
 470 382 473 394 473 396 c 1
 487 461 463 493 402 493 c 0
 277 493 225 318 225 235 c 0
 225 189 249 113 341 113 c 0
 539 113 586 361 589 433 c 1
 642 423 668 370 668 273 c 1
 704 344 703 384 703 404 c 0
 703 412 703 421 702 430 c 1
 741 417 769 373 785 298 c 1
 803 343 808 369 808 410 c 1
 849 398 872 356 877 283 c 1
EndSplineSet
EndChar

StartChar: zerowidthnonjoiner
Encoding: 8204 8204 299
Width: 0
VWidth: 1507
Flags: W
LayerCount: 2
Back
SplineSet
39 311 m 2
 47 345 68 362 102 362 c 1
 -62 -413 l 2
 -68 -447 -89 -464 -124 -464 c 1
 39 311 l 2
EndSplineSet
EndChar

StartChar: zerowidthjoiner
Encoding: 8205 8205 300
Width: 0
VWidth: 1507
Flags: W
LayerCount: 2
Back
SplineSet
74 228 m 1
 -62 -413 l 2
 -68 -447 -89 -464 -124 -464 c 1
 23 228 l 1
 -15 194 l 1
 -36 220 l 1
 32 277 l 1
 -12 336 l 1
 20 362 l 1
 63 304 l 1
 134 362 l 1
 155 336 l 1
 86 277 l 1
 131 220 l 1
 98 194 l 1
 74 228 l 1
EndSplineSet
EndChar

StartChar: lefttorightmark
Encoding: 8206 8206 301
Width: 0
VWidth: 1507
Flags: W
LayerCount: 2
Back
SplineSet
78 253 m 1
 -62 -413 l 2
 -68 -447 -89 -464 -124 -464 c 1
 39 307 l 1
 241 307 l 1
 222 335 l 1
 250 360 l 1
 314 280 l 1
 217 200 l 1
 199 228 l 1
 229 253 l 1
 78 253 l 1
EndSplineSet
EndChar

StartChar: righttoleftmark
Encoding: 8207 8207 302
Width: 0
VWidth: 1507
Flags: W
LayerCount: 2
Back
SplineSet
-62 -413 m 2
 -68 -447 -89 -464 -124 -464 c 1
 27 253 l 1
 -122 253 l 1
 -101 228 l 1
 -131 200 l 1
 -194 280 l 1
 -98 360 l 1
 -78 335 l 1
 -110 307 l 1
 90 307 l 1
 -62 -413 l 2
EndSplineSet
EndChar

StartChar: endash
Encoding: 8211 8211 303
Width: 602
VWidth: 1507
Flags: W
HStem: 271 55<117.461 610.539>
LayerCount: 2
Fore
SplineSet
626 326 m 1
 620 294 597 271 561 271 c 2
 102 271 l 1
 108 303 131 326 167 326 c 2
 626 326 l 1
EndSplineSet
EndChar

StartChar: emdash
Encoding: 8212 8212 304
Width: 1107
VWidth: 1507
Flags: W
HStem: 273 51<115.262 1118.81>
LayerCount: 2
Fore
SplineSet
102 273 m 1
 111 307 131 324 164 324 c 2
 1130 324 l 1
 1124 290 1104 273 1069 273 c 2
 102 273 l 1
EndSplineSet
EndChar

StartChar: dagger
Encoding: 8224 8224 311
Width: 575
VWidth: 1507
Flags: W
HStem: 431 54<163 217.281 217.281 245.218 245.218 354 413 534.799 534.799 550.825 550.825 607 151 620 163 163>
LayerCount: 2
Fore
SplineSet
607 431 m 1
 587 432 526 436 404 436 c 1
 288 -131 l 1
 231 -131 l 1
 246 -61 l 2
 262 4 319 269 354 436 c 1
 286 436 218 434 151 431 c 1
 163 485 l 1
 263 483 283 481 363 481 c 1
 389 601 375 541 403 682 c 2
 416 743 l 1
 473 743 l 1
 413 481 l 1
 481 481 532 483 620 485 c 1
 607 431 l 1
EndSplineSet
EndChar

StartChar: daggerdbl
Encoding: 8225 8225 312
Width: 575
VWidth: 1507
Flags: W
HStem: 148 54<102 158.086 158.086 218.661 218.661 294 354 486.156 486.156 492.558 492.558 547> 431 54<163 217.281 217.281 245.218 245.218 354 413 534.799 534.799 550.825 550.825 607>
LayerCount: 2
Fore
SplineSet
607 431 m 1
 587 432 526 436 404 436 c 1
 354 197 l 1
 422 197 493 199 559 202 c 1
 547 148 l 1
 506 150 466 152 344 152 c 1
 308 -27 l 2
 299 -70 293 -105 288 -131 c 1
 231 -131 l 1
 255 -27 l 2
 265 16 278 76 294 152 c 1
 225 152 157 151 90 148 c 1
 102 202 l 1
 223 197 263 197 303 197 c 1
 354 436 l 1
 286 436 218 434 151 431 c 1
 163 485 l 1
 263 483 283 481 363 481 c 1
 389 601 375 541 403 682 c 2
 416 743 l 1
 473 743 l 1
 413 481 l 1
 481 481 532 483 620 485 c 1
 607 431 l 1
EndSplineSet
EndChar

StartChar: bullet
Encoding: 8226 8226 313
Width: 539
VWidth: 1507
Flags: W
HStem: 164 269<287.784 380.839>
VStem: 196 274<253.509 343.246>
LayerCount: 2
Fore
SplineSet
196 266 m 0
 196 361 285 433 362 433 c 0
 432 433 470 383 470 329 c 0
 470 245 393 164 304 164 c 0
 232 164 196 219 196 266 c 0
EndSplineSet
EndChar

StartChar: perthousand
Encoding: 8240 8240 315
Width: 1245
VWidth: 1507
Flags: W
HStem: -5 44<582.35 723.102 973.504 1111.55> 309 44<222.129 363.49> 363 44<641.887 782.207 1032.68 1174.32> 677 43<283.551 423.636>
VStem: 153 50<373.277 418.738 417.5 419.977 419.977 443.211> 444 51<586.789 608.523 608.523 614.023 611.273 655.87> 511 50<60.0052 106.227 104.977 107.477 107.477 129.211> 800 50<272.789 296.023 296.023 300.523 298.273 342.478> 901 51<60.2627 105.488 103.5 107.477 107.477 129.211> 1191 50<272.789 295.523 295.523 300.023 297.773 342.718>
LayerCount: 2
Fore
SplineSet
1117 407 m 0
 1191 407 1244 365 1244 311 c 0
 1244 304 1243 297 1241 289 c 2
 1203 113 l 2
 1191 54 1118 -5 1029 -5 c 256
 959 -5 901 35 901 94 c 0
 901 100 902 107 903 113 c 2
 941 289 l 2
 957 354 1030 407 1117 407 c 0
1193 302 m 0
 1193 339 1155 363 1108 363 c 0
 1050 363 1001 330 990 289 c 2
 953 113 l 2
 952 109 952 105 952 102 c 0
 952 77 976 39 1039 39 c 0
 1093 39 1145 73 1153 113 c 2
 1191 289 l 2
 1192 294 1193 298 1193 302 c 0
368 720 m 0
 446 720 495 676 495 625 c 0
 495 618 495 611 493 603 c 2
 455 427 l 2
 445 362 363 309 280 309 c 256
 218 309 153 341 153 408 c 0
 153 414 154 421 155 427 c 2
 193 603 l 2
 202 660 274 720 368 720 c 0
444 614 m 0
 444 650 407 677 359 677 c 0
 299 677 250 640 243 603 c 2
 205 427 l 2
 204 422 203 417 203 413 c 0
 203 377 241 353 289 353 c 0
 345 353 396 386 405 427 c 2
 443 603 l 2
 444 607 444 611 444 614 c 0
727 407 m 0
 797 407 853 369 853 312 c 0
 853 305 852 297 850 289 c 2
 812 113 l 2
 801 48 720 -5 639 -5 c 256
 566 -5 511 36 511 97 c 0
 511 102 511 107 512 113 c 2
 550 289 l 2
 566 354 639 407 727 407 c 0
802 303 m 0
 802 338 764 363 717 363 c 0
 660 363 609 330 600 289 c 2
 562 113 l 2
 561 109 561 105 561 102 c 0
 561 77 585 39 648 39 c 0
 703 39 755 73 763 113 c 2
 800 289 l 2
 801 294 802 299 802 303 c 0
733 722 m 2
 748 743 765 754 783 754 c 0
 792 754 801 751 811 746 c 1
 273 -6 l 2
 257 -28 241 -39 223 -39 c 0
 215 -39 205 -36 196 -30 c 1
 733 722 l 2
EndSplineSet
EndChar

StartChar: minute
Encoding: 8242 8242 316
Width: 195
VWidth: 1507
Flags: W
HStem: 508 217
LayerCount: 2
Fore
SplineSet
206 653 m 2
 226 710 269 725 306 725 c 1
 231 565 l 2
 227 554 202 508 158 508 c 1
 206 653 l 2
EndSplineSet
EndChar

StartChar: second
Encoding: 8243 8243 317
Width: 327
VWidth: 1507
Flags: W
HStem: 508 217<289 306 158 437 306 306>
LayerCount: 2
Fore
SplineSet
206 653 m 2
 226 710 269 725 306 725 c 1
 231 565 l 2
 227 554 202 508 158 508 c 1
 206 653 l 2
338 653 m 2
 356 710 400 725 437 725 c 1
 362 565 l 2
 356 550 333 508 289 508 c 1
 338 653 l 2
EndSplineSet
EndChar

StartChar: guilsinglleft
Encoding: 8249 8249 318
Width: 292
VWidth: 1507
Flags: W
HStem: 93 410<248 334 334 334>
VStem: 102 263<298 485 298 298>
LayerCount: 2
Fore
SplineSet
102 298 m 1
 102 304 106 311 113 318 c 2
 295 485 l 2
 308 497 321 503 334 503 c 0
 347 503 357 497 365 485 c 1
 163 298 l 1
 285 112 l 1
 273 99 260 93 248 93 c 0
 234 93 224 99 216 112 c 2
 106 279 l 2
 101 286 100 292 102 298 c 1
EndSplineSet
EndChar

StartChar: Euro
Encoding: 8364 8364 321
Width: 699
VWidth: 1507
Flags: W
HStem: -9 54<268.215 438.466> 264 54<69.8867 131 202 485.463> 399 55<98.1504 160 231 514.146> 671 54<392.094 599.723>
VStem: 117 62<125.093 211.305 210.632 211.977 211.977 226 226 240.778> 680 69<479.497 488.625 488.543 592.254>
LayerCount: 2
Fore
SplineSet
354 -9 m 0
 230 -9 117 67 117 181 c 0
 117 195 119 210 122 226 c 2
 131 264 l 1
 56 264 l 1
 63 300 84 318 121 318 c 2
 142 318 l 1
 160 399 l 1
 84 399 l 1
 91 436 113 454 149 454 c 2
 170 454 l 1
 179 491 l 2
 208 634 376 725 511 725 c 0
 646 725 747 652 749 535 c 0
 749 468 692 461 677 461 c 1
 679 466 680 470 680 472 c 1
 684 491 l 2
 686 502 687 512 687 522 c 0
 687 612 602 671 499 671 c 256
 393 671 261 603 240 491 c 2
 231 454 l 1
 529 454 l 1
 521 417 499 399 464 399 c 2
 220 399 l 1
 202 318 l 1
 500 318 l 1
 492 282 471 264 436 264 c 2
 191 264 l 1
 182 226 l 2
 180 216 179 207 179 198 c 0
 179 112 257 45 366 45 c 256
 505 45 611 142 627 226 c 1
 629 231 630 236 631 242 c 2
 633 256 l 1
 654 256 682 244 682 216 c 0
 682 174 617 48 450 4 c 0
 417 -5 385 -9 354 -9 c 0
EndSplineSet
EndChar

StartChar: uni2113
Encoding: 8467 8467 322
Width: 321
VWidth: 1507
Flags: W
HStem: -5 58<160.105 250.871> 675 50<307.638 360.665>
VStem: 124 56<33.5296 80.6964 71.462 89.9308 89.9308 117.688> 362 51<580.939 674.385>
LayerCount: 2
Fore
SplineSet
304 64 m 0
 304 51 297 40 282 32 c 0
 235 7 199 -5 173 -5 c 0
 140 -5 124 14 124 54 c 0
 124 67 126 83 130 102 c 2
 179 339 l 1
 162 327 145 315 128 315 c 0
 114 315 102 324 93 341 c 1
 193 401 l 1
 234 594 l 2
 253 681 289 725 344 725 c 0
 399 725 413 689 413 655 c 0
 413 592 372 443 238 368 c 1
 182 101 l 2
 180 92 180 85 180 79 c 0
 180 62 188 53 204 53 c 0
 223 53 253 65 294 90 c 1
 300 81 304 73 304 64 c 0
253 433 m 1
 349 506 362 616 362 640 c 0
 362 663 353 675 336 675 c 0
 315 675 298 648 286 594 c 2
 253 433 l 1
EndSplineSet
EndChar

StartChar: trademark
Encoding: 8482 8482 323
Width: 886
VWidth: 1507
Flags: W
HStem: 674 42<180.176 309 359 495.408>
LayerCount: 2
Fore
SplineSet
502 716 m 1
 497 688 482 674 457 674 c 2
 359 674 l 1
 291 359 l 2
 285 326 265 309 231 309 c 1
 309 674 l 1
 173 674 l 1
 179 702 194 716 217 716 c 2
 502 716 l 1
867 583 m 1
 886 616 l 1
 886 623 l 1
 696 329 l 2
 687 316 677 309 666 309 c 256
 655 309 648 316 645 329 c 2
 579 623 l 1
 576 616 l 1
 583 583 l 1
 535 359 l 2
 529 326 509 309 475 309 c 1
 555 683 l 2
 560 709 578 722 609 722 c 1
 683 387 l 1
 898 722 l 1
 929 722 943 709 938 683 c 2
 868 359 l 2
 862 326 842 309 808 309 c 1
 867 583 l 1
EndSplineSet
EndChar

StartChar: Ohm
Encoding: 8486 8486 324
Width: 696
VWidth: 1507
Flags: W
HStem: 0 51<65.4643 241 476 640.693> 674 51<397.631 576.996>
VStem: 155 58<285.097 480.639> 666 58<385.212 579.194>
LayerCount: 2
Fore
SplineSet
502 725 m 256
 651 725 724 610 724 496 c 0
 724 364 633 226 500 167 c 1
 476 51 l 1
 601 51 l 2
 629 51 643 39 643 14 c 0
 643 10 643 5 642 0 c 1
 408 0 l 1
 451 203 l 1
 580 243 666 376 666 487 c 0
 666 578 609 674 491 674 c 256
 353 674 213 534 213 372 c 0
 213 322 237 234 330 203 c 1
 288 0 l 1
 54 0 l 1
 60 34 81 51 116 51 c 2
 241 51 l 1
 265 167 l 1
 223 190 155 247 155 366 c 0
 155 542 313 725 502 725 c 256
EndSplineSet
EndChar

StartChar: estimated
Encoding: 8494 8494 325
Width: 480
VWidth: 1507
Flags: W
HStem: -11 46<192.927 324.693> 298 46<182 452> 541 45<290.039 421.063>
VStem: 101 57<72.4584 223.5> 457 55<361.786 502.835>
LayerCount: 2
Fore
SplineSet
452 344 m 1
 455 368 457 389 457 408 c 0
 457 505 418 541 359 541 c 0
 288 541 225 488 182 344 c 1
 452 344 l 1
442 133 m 0
 442 124 383 -11 241 -11 c 0
 148 -11 101 46 101 161 c 0
 101 203 107 251 119 307 c 0
 158 492 241 585 368 586 c 0
 464 586 512 530 512 419 c 0
 512 384 507 344 497 298 c 1
 172 298 l 1
 163 249 158 206 158 171 c 0
 158 80 189 35 250 35 c 0
 317 35 369 76 407 158 c 1
 430 154 442 145 442 133 c 0
EndSplineSet
EndChar

StartChar: partialdiff
Encoding: 8706 8706 326
Width: 630
VWidth: 1507
Flags: W
HStem: -9 48<233.439 415.96> 472 48<319.859 476.851>
VStem: 104 57<112.999 294.409> 573 64<228.729 430.611>
LayerCount: 2
Fore
SplineSet
339 764 m 1
 477 704 637 589 637 368 c 0
 637 157 497 -9 307 -9 c 0
 174 -9 104 78 104 184 c 0
 104 357 259 520 425 520 c 0
 499 520 563 485 600 427 c 1
 601 431 l 1
 596 443 587 456 574 469 c 1
 553 513 496 631 307 717 c 1
 339 764 l 1
317 39 m 0
 486 39 573 200 573 328 c 0
 573 362 564 392 550 413 c 1
 491 472 441 472 415 472 c 0
 257 472 161 312 161 197 c 0
 161 104 224 39 317 39 c 0
EndSplineSet
EndChar

StartChar: Delta
Encoding: 8710 8710 327
Width: 602
VWidth: 1507
Flags: W
HStem: 0 51<87 537> 705 20G<442.448 459.083>
LayerCount: 2
Fore
SplineSet
428 597 m 1
 87 51 l 1
 537 51 l 1
 428 597 l 1
603 0 m 1
 0 0 l 1
 455 725 l 1
 603 0 l 1
EndSplineSet
EndChar

StartChar: product
Encoding: 8719 8719 328
Width: 737
VWidth: 1507
Flags: W
HStem: 692 51<294 736>
LayerCount: 2
Fore
SplineSet
130 -81 m 2
 120.667 -119.667 97.3333 -139 60 -139 c 1
 247 743 l 1
 803 743 l 1
 629 -81 l 2
 619.667 -119.667 596.333 -139 559 -139 c 1
 736 692 l 1
 294 692 l 1
 130 -81 l 2
EndSplineSet
EndChar

StartChar: summation
Encoding: 8721 8721 329
Width: 783
VWidth: 1507
Flags: W
HStem: -130 55<113 724.203> 689 54<276 895.463>
LayerCount: 2
Fore
SplineSet
181 706 m 0
 181 725 196 743 217 743 c 2
 910 743 l 1
 902 707 881 689 846 689 c 2
 276 689 l 1
 620 327 l 2
 624 322 626 316 626 310 c 0
 626 307 l 1
 624 301 619 295 610 288 c 2
 113 -75 l 1
 683 -75 l 2
 712 -75 727 -88 727 -113 c 0
 727 -118 726 -124 725 -130 c 1
 32 -130 l 2
 16 -130 8 -121 8 -104 c 0
 8 -95 12 -87 21 -80 c 2
 550 306 l 1
 185 693 l 1
 183 697 181 701 181 706 c 0
EndSplineSet
EndChar

StartChar: minus
Encoding: 8722 8722 330
Width: 602
VWidth: 1507
Flags: W
HStem: 271 55<117.461 610.539>
LayerCount: 2
Fore
SplineSet
626 326 m 1
 620 294 597 271 561 271 c 2
 102 271 l 1
 108 303 131 326 167 326 c 2
 626 326 l 1
EndSplineSet
EndChar

StartChar: radical
Encoding: 8730 8730 331
Width: 530
VWidth: 1507
Flags: W
HStem: -9 21G<238.5 252> 332 49<115.231 188>
LayerCount: 2
Fore
SplineSet
270 3 m 2
 265 -5 257 -9 247 -9 c 0
 230 -9 229 -3 228 3 c 2
 188 332 l 1
 154 332 l 2
 122 332 109 348 115 381 c 1
 219 381 l 2
 229 381 235 376 237 366 c 2
 265 84 l 1
 620 684 l 2
 638 715 662 726 692 716 c 1
 270 3 l 2
EndSplineSet
EndChar

StartChar: infinity
Encoding: 8734 8734 332
Width: 937
VWidth: 1507
Flags: W
HStem: 164 49<224.73 377.763 653.978 808.102> 455 45<271.187 419.806 703.296 848.181>
VStem: 142 54<239.588 379.895> 881 55<285.619 422.241>
LayerCount: 2
Fore
SplineSet
196 304 m 0
 196 258 216 213 297 213 c 0
 381 213 480 300 508 339 c 1
 440 445 380 455 348 455 c 0
 254 455 196 375 196 304 c 0
790 500 m 0
 881 500 936 449 936 373 c 0
 936 278 867 164 720 164 c 0
 667 164 624 183 591 222 c 0
 558 260 537 288 528 306 c 1
 444 211 363 164 286 164 c 0
 179 164 142 236 142 290 c 0
 142 393 210 500 356 500 c 0
 409 500 452 481 486 443 c 0
 518 405 540 377 549 360 c 1
 632 453 713 500 790 500 c 0
568 327 m 1
 635 220 696 210 728 210 c 0
 823 210 881 289 881 360 c 0
 881 404 860 452 778 452 c 0
 692 452 596 367 568 327 c 1
EndSplineSet
EndChar

StartChar: integral
Encoding: 8747 8747 333
Width: 375
VWidth: 1507
Flags: W
HStem: -135 48<-56.9379 39.4573> 701 46<415.517 506.99 502.631 511.35>
LayerCount: 2
Fore
SplineSet
477 747 m 0
 503 747 528 746 528 722 c 0
 528 715 525 707 519 698 c 1
 493 701 497 701 487 701 c 0
 428 701 388 670 365 607 c 2
 143 6 l 2
 108 -88 53 -135 -22 -135 c 0
 -53 -135 -72 -130 -72 -110 c 0
 -72 -102 -68 -93 -62 -83 c 1
 -49 -86 -37 -87 -26 -87 c 0
 27 -87 66 -55 92 8 c 2
 311 609 l 2
 344 700 399 747 477 747 c 0
EndSplineSet
EndChar

StartChar: approxequal
Encoding: 8776 8776 334
Width: 602
VWidth: 1507
Flags: W
HStem: 124 51<369.34 530.106> 190 51<145.373 291.14> 304 52<407.794 570.557> 371 51<157.53 330.231>
LayerCount: 2
Fore
SplineSet
243 371 m 0
 195 371 158 353 131 332 c 1
 126 342 124 351 124 359 c 0
 124 409 208 422 253 422 c 0
 353 422 414 356 491 356 c 0
 536 356 580 376 623 415 c 1
 631 407 635 397 635 388 c 0
 635 345 555 304 479 304 c 0
 385 304 330 371 243 371 c 0
203 190 m 0
 187 190 147 190 93 151 c 1
 89 161 86 170 86 178 c 0
 86 228 170 241 216 241 c 0
 313 241 375 175 452 175 c 0
 497 175 540 195 583 234 c 1
 592 226 597 217 597 206 c 0
 597 163 516 124 442 124 c 0
 348 124 289 190 203 190 c 0
EndSplineSet
EndChar

StartChar: notequal
Encoding: 8800 8800 335
Width: 602
VWidth: 1507
Flags: W
HStem: 182 52<96.6154 253 344 593.766> 363 52<134.234 383 473 631.385>
LayerCount: 2
Fore
SplineSet
83 182 m 1
 91 217 112 234 145 234 c 2
 289 234 l 1
 383 363 l 1
 122 363 l 1
 128 398 149 415 184 415 c 2
 419 415 l 1
 500 528 l 2
 514 547 529 556 545 556 c 0
 553 556 561 554 570 549 c 1
 473 415 l 1
 645 415 l 1
 637 380 616 363 583 363 c 2
 437 363 l 1
 344 234 l 1
 606 234 l 1
 600 199 579 182 544 182 c 2
 307 182 l 1
 226 69 l 2
 212 50 197 41 181 41 c 0
 174 41 165 43 157 48 c 1
 253 182 l 1
 83 182 l 1
EndSplineSet
EndChar

StartChar: lessequal
Encoding: 8804 8804 336
Width: 602
VWidth: 1507
Flags: W
HStem: -2 55<60.1673 552.968>
LayerCount: 2
Fore
SplineSet
111 292 m 0
 111 297 114 314 127 318 c 2
 662 511 l 1
 663 507 663 504 663 500 c 0
 663 482 656 458 627 448 c 2
 213 298 l 1
 564 149 l 2
 579 142 582 129 582 121 c 0
 582 110 578 98 571 86 c 1
 119 279 l 2
 114 281 111 285 111 292 c 0
568 53 m 1
 563 20 539 -2 503 -2 c 2
 45 -2 l 1
 51 30 73 53 110 53 c 2
 568 53 l 1
EndSplineSet
EndChar

StartChar: greaterequal
Encoding: 8805 8805 337
Width: 602
VWidth: 1507
Flags: W
HStem: -2 55<60.1673 110 503 525.562>
LayerCount: 2
Fore
SplineSet
628 304 m 0
 628 289 617 282 610 279 c 2
 77 86 l 1
 76 91 75 96 75 101 c 0
 75 117 84 140 112 149 c 2
 526 298 l 1
 175 448 l 2
 160 454 156 464 156 475 c 0
 156 486 160 498 167 511 c 1
 618 318 l 2
 624 316 628 311 628 304 c 0
503 -2 m 2
 518 -2 560 2 568 53 c 1
 110 53 l 2
 73 53 51 30 45 -2 c 1
 503 -2 l 2
EndSplineSet
EndChar

StartChar: lozenge
Encoding: 9674 9674 338
Width: 592
VWidth: 1507
Flags: MW
HStem: 707 20G<444 457.5>
VStem: 128 57<357 357> 559 57<357 357>
LayerCount: 2
Fore
SplineSet
306 47 m 1
 559 357 l 1
 439 668 l 1
 185 357 l 1
 306 47 l 1
451 727 m 0
 464 727 473 722 479 711 c 2
 616 357 l 1
 329 3 l 2
 319 -7 307 -12 294 -12 c 0
 288 -12 270 -11 265 3 c 2
 128 357 l 1
 416 711 l 2
 425 722 437 727 451 727 c 0
EndSplineSet
EndChar

